M48
; DRILL file {KiCad 9.0.7} date 2026-02-28T16:38:33+0530
; FORMAT={-:-/ absolute / metric / decimal}
; #@! TF.CreationDate,2026-02-28T16:38:33+05:30
; #@! TF.GenerationSoftware,Kicad,Pcbnew,9.0.7
; #@! TF.FileFunction,Plated,1,2,PTH
FMAT,2
METRIC
; #@! TA.AperFunction,Plated,PTH,ViaDrill
T1C0.300
; #@! TA.AperFunction,Plated,PTH,ViaDrill
T2C0.400
; #@! TA.AperFunction,Plated,PTH,ComponentDrill
T3C0.750
; #@! TA.AperFunction,Plated,PTH,ComponentDrill
T4C0.800
; #@! TA.AperFunction,Plated,PTH,ComponentDrill
T5C1.000
; #@! TA.AperFunction,Plated,PTH,ComponentDrill
T6C1.100
%
G90
G05
T1
X81.75Y-88.08
X107.7Y-93.98
X108.05Y-81.88
T2
X92.05Y-126.3
X93.25Y-144.15
X98.25Y-74.33
X98.7Y-45.85
X98.7Y-48.25
X99.65Y-72.93
X104.9Y-56.58
X108.1Y-50.8
X110.0Y-54.4
X110.35Y-77.8
X111.85Y-87.78
X113.65Y-99.73
T3
X100.7Y-95.56
X100.7Y-96.83
X100.7Y-98.1
T4
X83.55Y-75.24
X83.55Y-80.12
X90.98Y-103.46
X90.98Y-106.0
X90.98Y-108.54
X90.98Y-111.08
X90.98Y-113.62
X90.98Y-116.16
X90.98Y-118.7
X90.98Y-121.24
X94.885Y-57.48
X94.885Y-60.02
X94.885Y-62.56
X94.885Y-65.1
X94.885Y-67.64
X94.885Y-70.18
X94.885Y-72.72
X94.885Y-75.26
X94.885Y-77.8
X94.885Y-80.34
X94.885Y-82.88
X94.885Y-85.42
X94.885Y-87.96
X94.885Y-90.5
X98.6Y-103.46
X98.6Y-106.0
X98.6Y-108.54
X98.6Y-111.08
X98.6Y-113.62
X98.6Y-116.16
X98.6Y-118.7
X98.6Y-121.24
X102.505Y-57.48
X102.505Y-60.02
X102.505Y-62.56
X102.505Y-65.1
X102.505Y-67.64
X102.505Y-70.18
X102.505Y-72.72
X102.505Y-75.26
X102.505Y-77.8
X102.505Y-80.34
X102.505Y-82.88
X102.505Y-85.42
X102.505Y-87.96
X102.505Y-90.5
X104.1Y-119.55
X104.1Y-122.09
X104.1Y-124.63
X104.1Y-127.17
X104.1Y-129.71
X104.1Y-132.25
X104.1Y-134.79
X104.1Y-137.33
X104.1Y-139.87
X111.72Y-119.55
X111.72Y-122.09
X111.72Y-124.63
X111.72Y-127.17
X111.72Y-129.71
X111.72Y-132.25
X111.72Y-134.79
X111.72Y-137.33
X111.72Y-139.87
T5
X74.95Y-58.85
X74.95Y-61.39
X74.95Y-63.93
X74.95Y-66.47
X74.95Y-69.01
X74.95Y-71.55
X74.95Y-74.09
X74.95Y-76.63
X105.25Y-109.2
X112.85Y-109.2
X118.11Y-80.94
X118.11Y-83.48
X118.11Y-86.02
X120.65Y-80.94
X120.65Y-83.48
X120.65Y-86.02
X122.55Y-58.85
X122.55Y-61.39
X122.55Y-63.93
X122.55Y-66.47
X122.55Y-69.01
X122.55Y-71.55
X122.6Y-103.94
X122.6Y-106.48
X122.6Y-109.02
X122.6Y-111.56
X122.6Y-114.1
X122.6Y-116.64
X122.6Y-119.18
X122.6Y-121.72
X122.6Y-125.27
X122.6Y-127.81
X122.6Y-130.35
X122.6Y-132.89
X122.6Y-135.43
X122.6Y-137.97
X122.6Y-140.51
X122.6Y-143.05
T6
X77.2Y-112.64
X77.2Y-116.45
X77.2Y-120.26
X77.2Y-124.07
X77.2Y-127.88
X77.2Y-131.69
X86.58Y-150.85
X90.39Y-150.85
X95.19Y-150.85
X97.5Y-37.0
X97.5Y-41.5
X98.71Y-51.2
X99.0Y-150.85
X101.25Y-51.2
X103.79Y-51.2
X104.0Y-37.0
X104.0Y-41.5
X116.3Y-94.6
X116.3Y-99.1
X122.8Y-94.6
X122.8Y-99.1
T5
G00X79.35Y-98.75
M15
G01X77.85Y-98.75
M16
G05
G00X79.35Y-107.75
M15
G01X77.85Y-107.75
M16
G05
G00X79.6Y-102.6
M15
G01X79.6Y-103.9
M16
G05
G00X84.78Y-41.27
M15
G01X84.78Y-39.77
M16
G05
G00X85.6Y-102.25
M15
G01X85.6Y-104.25
M16
G05
G00X89.93Y-41.52
M15
G01X88.63Y-41.52
M16
G05
G00X90.28Y-47.52
M15
G01X88.28Y-47.52
M16
G05
G00X93.78Y-41.27
M15
G01X93.78Y-39.77
M16
G05
M30
