%TF.GenerationSoftware,KiCad,Pcbnew,9.0.7*%
%TF.CreationDate,2026-02-28T16:38:49+05:30*%
%TF.ProjectId,E205 AVR Board design IPD task 1,45323035-2041-4565-9220-426f61726420,rev?*%
%TF.SameCoordinates,Original*%
%TF.FileFunction,Copper,L2,Bot*%
%TF.FilePolarity,Positive*%
%FSLAX46Y46*%
G04 Gerber Fmt 4.6, Leading zero omitted, Abs format (unit mm)*
G04 Created by KiCad (PCBNEW 9.0.7) date 2026-02-28 16:38:49*
%MOMM*%
%LPD*%
G01*
G04 APERTURE LIST*
G04 Aperture macros list*
%AMRoundRect*
0 Rectangle with rounded corners*
0 $1 Rounding radius*
0 $2 $3 $4 $5 $6 $7 $8 $9 X,Y pos of 4 corners*
0 Add a 4 corners polygon primitive as box body*
4,1,4,$2,$3,$4,$5,$6,$7,$8,$9,$2,$3,0*
0 Add four circle primitives for the rounded corners*
1,1,$1+$1,$2,$3*
1,1,$1+$1,$4,$5*
1,1,$1+$1,$6,$7*
1,1,$1+$1,$8,$9*
0 Add four rect primitives between the rounded corners*
20,1,$1+$1,$2,$3,$4,$5,0*
20,1,$1+$1,$4,$5,$6,$7,0*
20,1,$1+$1,$6,$7,$8,$9,0*
20,1,$1+$1,$8,$9,$2,$3,0*%
G04 Aperture macros list end*
%TA.AperFunction,ComponentPad*%
%ADD10R,1.700000X1.700000*%
%TD*%
%TA.AperFunction,ComponentPad*%
%ADD11C,1.700000*%
%TD*%
%TA.AperFunction,ComponentPad*%
%ADD12RoundRect,0.250000X-0.550000X-0.550000X0.550000X-0.550000X0.550000X0.550000X-0.550000X0.550000X0*%
%TD*%
%TA.AperFunction,ComponentPad*%
%ADD13C,1.600000*%
%TD*%
%TA.AperFunction,ComponentPad*%
%ADD14RoundRect,0.250000X-0.750000X-0.750000X0.750000X-0.750000X0.750000X0.750000X-0.750000X0.750000X0*%
%TD*%
%TA.AperFunction,ComponentPad*%
%ADD15C,2.000000*%
%TD*%
%TA.AperFunction,ComponentPad*%
%ADD16R,4.000000X2.000000*%
%TD*%
%TA.AperFunction,ComponentPad*%
%ADD17O,3.300000X2.000000*%
%TD*%
%TA.AperFunction,ComponentPad*%
%ADD18O,2.000000X3.500000*%
%TD*%
%TA.AperFunction,ComponentPad*%
%ADD19RoundRect,0.250000X-0.600000X-0.600000X0.600000X-0.600000X0.600000X0.600000X-0.600000X0.600000X0*%
%TD*%
%TA.AperFunction,ComponentPad*%
%ADD20R,2.000000X2.000000*%
%TD*%
%TA.AperFunction,ComponentPad*%
%ADD21R,1.905000X2.000000*%
%TD*%
%TA.AperFunction,ComponentPad*%
%ADD22O,1.905000X2.000000*%
%TD*%
%TA.AperFunction,ComponentPad*%
%ADD23R,2.000000X4.000000*%
%TD*%
%TA.AperFunction,ComponentPad*%
%ADD24O,2.000000X3.300000*%
%TD*%
%TA.AperFunction,ComponentPad*%
%ADD25O,3.500000X2.000000*%
%TD*%
%TA.AperFunction,ComponentPad*%
%ADD26C,1.500000*%
%TD*%
%TA.AperFunction,ComponentPad*%
%ADD27RoundRect,0.250000X-0.750000X0.750000X-0.750000X-0.750000X0.750000X-0.750000X0.750000X0.750000X0*%
%TD*%
%TA.AperFunction,ComponentPad*%
%ADD28R,1.500000X1.050000*%
%TD*%
%TA.AperFunction,ComponentPad*%
%ADD29O,1.500000X1.050000*%
%TD*%
%TA.AperFunction,ViaPad*%
%ADD30C,0.800000*%
%TD*%
%TA.AperFunction,ViaPad*%
%ADD31C,0.600000*%
%TD*%
%TA.AperFunction,Conductor*%
%ADD32C,0.400000*%
%TD*%
%TA.AperFunction,Conductor*%
%ADD33C,0.600000*%
%TD*%
%TA.AperFunction,Conductor*%
%ADD34C,0.800000*%
%TD*%
G04 APERTURE END LIST*
D10*
%TO.P,J9,1,Pin_1*%
%TO.N,Net-(J9-Pin_1)*%
X122600000Y-125270000D03*
D11*
%TO.P,J9,2,Pin_2*%
%TO.N,Net-(J9-Pin_2)*%
X122600000Y-127810000D03*
%TO.P,J9,3,Pin_3*%
%TO.N,Net-(J9-Pin_3)*%
X122600000Y-130350000D03*
%TO.P,J9,4,Pin_4*%
%TO.N,Net-(J9-Pin_4)*%
X122600000Y-132890000D03*
%TO.P,J9,5,Pin_5*%
%TO.N,Net-(J9-Pin_5)*%
X122600000Y-135430000D03*
%TO.P,J9,6,Pin_6*%
%TO.N,Net-(J9-Pin_6)*%
X122600000Y-137970000D03*
%TO.P,J9,7,Pin_7*%
%TO.N,Net-(J9-Pin_7)*%
X122600000Y-140510000D03*
%TO.P,J9,8,Pin_8*%
%TO.N,Net-(J9-Pin_8)*%
X122600000Y-143050000D03*
%TD*%
D12*
%TO.P,U1,1,~{RESET}/PC6*%
%TO.N,RESET*%
X94885000Y-57480000D03*
D13*
%TO.P,U1,2,PD0*%
%TO.N,Net-(J3-Pin_1)*%
X94885000Y-60020000D03*
%TO.P,U1,3,PD1*%
%TO.N,Net-(J3-Pin_2)*%
X94885000Y-62560000D03*
%TO.P,U1,4,PD2*%
%TO.N,Net-(J3-Pin_3)*%
X94885000Y-65100000D03*
%TO.P,U1,5,PD3*%
%TO.N,Net-(J3-Pin_4)*%
X94885000Y-67640000D03*
%TO.P,U1,6,PD4*%
%TO.N,Net-(J3-Pin_5)*%
X94885000Y-70180000D03*
%TO.P,U1,7,VCC*%
%TO.N,+5V*%
X94885000Y-72720000D03*
%TO.P,U1,8,GND*%
%TO.N,GND*%
X94885000Y-75260000D03*
%TO.P,U1,9,XTAL1/PB6*%
%TO.N,Net-(U1-XTAL1{slash}PB6)*%
X94885000Y-77800000D03*
%TO.P,U1,10,XTAL2/PB7*%
%TO.N,Net-(U1-XTAL2{slash}PB7)*%
X94885000Y-80340000D03*
%TO.P,U1,11,PD5*%
%TO.N,Net-(J3-Pin_6)*%
X94885000Y-82880000D03*
%TO.P,U1,12,PD6*%
%TO.N,Net-(J3-Pin_7)*%
X94885000Y-85420000D03*
%TO.P,U1,13,PD7*%
%TO.N,Net-(J3-Pin_8)*%
X94885000Y-87960000D03*
%TO.P,U1,14,PB0*%
%TO.N,GPIO_FLAG_1*%
X94885000Y-90500000D03*
%TO.P,U1,15,PB1*%
%TO.N,GPIO_FLAG_2*%
X102505000Y-90500000D03*
%TO.P,U1,16,PB2*%
%TO.N,PWM1*%
X102505000Y-87960000D03*
%TO.P,U1,17,PB3*%
%TO.N,MOSI*%
X102505000Y-85420000D03*
%TO.P,U1,18,PB4*%
%TO.N,MISO*%
X102505000Y-82880000D03*
%TO.P,U1,19,PB5*%
%TO.N,SCK*%
X102505000Y-80340000D03*
%TO.P,U1,20,AVCC*%
%TO.N,+5V*%
X102505000Y-77800000D03*
%TO.P,U1,21,AREF*%
X102505000Y-75260000D03*
%TO.P,U1,22,GND*%
%TO.N,GND*%
X102505000Y-72720000D03*
%TO.P,U1,23,PC0*%
%TO.N,Net-(J2-Pin_1)*%
X102505000Y-70180000D03*
%TO.P,U1,24,PC1*%
%TO.N,Net-(J2-Pin_2)*%
X102505000Y-67640000D03*
%TO.P,U1,25,PC2*%
%TO.N,Net-(J2-Pin_3)*%
X102505000Y-65100000D03*
%TO.P,U1,26,PC3*%
%TO.N,Net-(J2-Pin_4)*%
X102505000Y-62560000D03*
%TO.P,U1,27,PC4*%
%TO.N,Net-(J2-Pin_5)*%
X102505000Y-60020000D03*
%TO.P,U1,28,PC5*%
%TO.N,Net-(J2-Pin_6)*%
X102505000Y-57480000D03*
%TD*%
D14*
%TO.P,J7,1,Pin_1*%
%TO.N,Net-(J7-Pin_1)*%
X86580000Y-150850000D03*
D15*
%TO.P,J7,2,Pin_2*%
%TO.N,Net-(J7-Pin_2)*%
X90390000Y-150850000D03*
%TD*%
%TO.P,SW1,1,1*%
%TO.N,Net-(R1-Pad2)*%
X122800000Y-99100000D03*
X116300000Y-99100000D03*
%TO.P,SW1,2,2*%
%TO.N,GND*%
X122800000Y-94600000D03*
X116300000Y-94600000D03*
%TD*%
D16*
%TO.P,J4,1*%
%TO.N,Net-(J4-Pad1)*%
X89280000Y-47520000D03*
D17*
%TO.P,J4,2*%
%TO.N,GND*%
X89280000Y-41520000D03*
D18*
%TO.P,J4,MP*%
%TO.N,N/C*%
X93780000Y-40520000D03*
X84780000Y-40520000D03*
%TD*%
D12*
%TO.P,U5,1,I1*%
%TO.N,Net-(J9-Pin_1)*%
X104100000Y-119550000D03*
D13*
%TO.P,U5,2,I2*%
%TO.N,Net-(J9-Pin_2)*%
X104100000Y-122090000D03*
%TO.P,U5,3,I3*%
%TO.N,Net-(J9-Pin_3)*%
X104100000Y-124630000D03*
%TO.P,U5,4,I4*%
%TO.N,Net-(J9-Pin_4)*%
X104100000Y-127170000D03*
%TO.P,U5,5,I5*%
%TO.N,Net-(J9-Pin_5)*%
X104100000Y-129710000D03*
%TO.P,U5,6,I6*%
%TO.N,Net-(J9-Pin_6)*%
X104100000Y-132250000D03*
%TO.P,U5,7,I7*%
%TO.N,Net-(J9-Pin_7)*%
X104100000Y-134790000D03*
%TO.P,U5,8,I8*%
%TO.N,Net-(J9-Pin_8)*%
X104100000Y-137330000D03*
%TO.P,U5,9,GND*%
%TO.N,GND*%
X104100000Y-139870000D03*
%TO.P,U5,10,COM*%
%TO.N,+12V*%
X111720000Y-139870000D03*
%TO.P,U5,11,O8*%
%TO.N,Net-(J10-Pin_8)*%
X111720000Y-137330000D03*
%TO.P,U5,12,O7*%
%TO.N,Net-(J10-Pin_7)*%
X111720000Y-134790000D03*
%TO.P,U5,13,O6*%
%TO.N,Net-(J10-Pin_6)*%
X111720000Y-132250000D03*
%TO.P,U5,14,O5*%
%TO.N,Net-(J10-Pin_5)*%
X111720000Y-129710000D03*
%TO.P,U5,15,O4*%
%TO.N,Net-(J10-Pin_4)*%
X111720000Y-127170000D03*
%TO.P,U5,16,O3*%
%TO.N,Net-(J10-Pin_3)*%
X111720000Y-124630000D03*
%TO.P,U5,17,O2*%
%TO.N,Net-(J10-Pin_2)*%
X111720000Y-122090000D03*
%TO.P,U5,18,O1*%
%TO.N,Net-(J10-Pin_1)*%
X111720000Y-119550000D03*
%TD*%
D19*
%TO.P,J1,1,MISO*%
%TO.N,MISO*%
X118110000Y-80940000D03*
D11*
%TO.P,J1,2,VCC*%
%TO.N,+5V*%
X120650000Y-80940000D03*
%TO.P,J1,3,SCK*%
%TO.N,SCK*%
X118110000Y-83480000D03*
%TO.P,J1,4,MOSI*%
%TO.N,MOSI*%
X120650000Y-83480000D03*
%TO.P,J1,5,~{RST}*%
%TO.N,RESET*%
X118110000Y-86020000D03*
%TO.P,J1,6,GND*%
%TO.N,GND*%
X120650000Y-86020000D03*
%TD*%
D20*
%TO.P,BZ1,1,+*%
%TO.N,+5V*%
X112850000Y-109200000D03*
D15*
%TO.P,BZ1,2,-*%
%TO.N,Net-(BZ1--)*%
X105250000Y-109200000D03*
%TD*%
D10*
%TO.P,J3,1,Pin_1*%
%TO.N,Net-(J3-Pin_1)*%
X74950000Y-58850000D03*
D11*
%TO.P,J3,2,Pin_2*%
%TO.N,Net-(J3-Pin_2)*%
X74950000Y-61390000D03*
%TO.P,J3,3,Pin_3*%
%TO.N,Net-(J3-Pin_3)*%
X74950000Y-63930000D03*
%TO.P,J3,4,Pin_4*%
%TO.N,Net-(J3-Pin_4)*%
X74950000Y-66470000D03*
%TO.P,J3,5,Pin_5*%
%TO.N,Net-(J3-Pin_5)*%
X74950000Y-69010000D03*
%TO.P,J3,6,Pin_6*%
%TO.N,Net-(J3-Pin_6)*%
X74950000Y-71550000D03*
%TO.P,J3,7,Pin_7*%
%TO.N,Net-(J3-Pin_7)*%
X74950000Y-74090000D03*
%TO.P,J3,8,Pin_8*%
%TO.N,Net-(J3-Pin_8)*%
X74950000Y-76630000D03*
%TD*%
D10*
%TO.P,J10,1,Pin_1*%
%TO.N,Net-(J10-Pin_1)*%
X122600000Y-103940000D03*
D11*
%TO.P,J10,2,Pin_2*%
%TO.N,Net-(J10-Pin_2)*%
X122600000Y-106480000D03*
%TO.P,J10,3,Pin_3*%
%TO.N,Net-(J10-Pin_3)*%
X122600000Y-109020000D03*
%TO.P,J10,4,Pin_4*%
%TO.N,Net-(J10-Pin_4)*%
X122600000Y-111560000D03*
%TO.P,J10,5,Pin_5*%
%TO.N,Net-(J10-Pin_5)*%
X122600000Y-114100000D03*
%TO.P,J10,6,Pin_6*%
%TO.N,Net-(J10-Pin_6)*%
X122600000Y-116640000D03*
%TO.P,J10,7,Pin_7*%
%TO.N,Net-(J10-Pin_7)*%
X122600000Y-119180000D03*
%TO.P,J10,8,Pin_8*%
%TO.N,Net-(J10-Pin_8)*%
X122600000Y-121720000D03*
%TD*%
D21*
%TO.P,U2,1,IN*%
%TO.N,Net-(U2-IN)*%
X98710000Y-51200000D03*
D22*
%TO.P,U2,2,GND*%
%TO.N,GND*%
X101250000Y-51200000D03*
%TO.P,U2,3,OUT*%
%TO.N,Net-(Q1-D)*%
X103790000Y-51200000D03*
%TD*%
D14*
%TO.P,J8,1,Pin_1*%
%TO.N,Net-(J8-Pin_1)*%
X95190000Y-150850000D03*
D15*
%TO.P,J8,2,Pin_2*%
%TO.N,Net-(J8-Pin_2)*%
X99000000Y-150850000D03*
%TD*%
D23*
%TO.P,J5,1*%
%TO.N,+12V*%
X85600000Y-103250000D03*
D24*
%TO.P,J5,2*%
%TO.N,GND*%
X79600000Y-103250000D03*
D25*
%TO.P,J5,MP*%
%TO.N,N/C*%
X78600000Y-98750000D03*
X78600000Y-107750000D03*
%TD*%
D15*
%TO.P,SW2,1,1*%
%TO.N,Net-(J4-Pad1)*%
X97500000Y-37000000D03*
X104000000Y-37000000D03*
%TO.P,SW2,2,2*%
%TO.N,Net-(C9-Pad1)*%
X97500000Y-41500000D03*
X104000000Y-41500000D03*
%TD*%
D10*
%TO.P,J2,1,Pin_1*%
%TO.N,Net-(J2-Pin_1)*%
X122550000Y-71550000D03*
D11*
%TO.P,J2,2,Pin_2*%
%TO.N,Net-(J2-Pin_2)*%
X122550000Y-69010000D03*
%TO.P,J2,3,Pin_3*%
%TO.N,Net-(J2-Pin_3)*%
X122550000Y-66470000D03*
%TO.P,J2,4,Pin_4*%
%TO.N,Net-(J2-Pin_4)*%
X122550000Y-63930000D03*
%TO.P,J2,5,Pin_5*%
%TO.N,Net-(J2-Pin_5)*%
X122550000Y-61390000D03*
%TO.P,J2,6,Pin_6*%
%TO.N,Net-(J2-Pin_6)*%
X122550000Y-58850000D03*
%TD*%
D26*
%TO.P,Y1,1,1*%
%TO.N,Net-(U1-XTAL2{slash}PB7)*%
X83550000Y-80120000D03*
%TO.P,Y1,2,2*%
%TO.N,Net-(U1-XTAL1{slash}PB6)*%
X83550000Y-75240000D03*
%TD*%
D12*
%TO.P,U4,1,EN1\u002C2*%
%TO.N,Net-(J6-Pin_3)*%
X90980000Y-103460000D03*
D13*
%TO.P,U4,2,1A*%
%TO.N,Net-(J6-Pin_1)*%
X90980000Y-106000000D03*
%TO.P,U4,3,1Y*%
%TO.N,Net-(J7-Pin_1)*%
X90980000Y-108540000D03*
%TO.P,U4,4,GND*%
%TO.N,GND*%
X90980000Y-111080000D03*
%TO.P,U4,5,GND*%
X90980000Y-113620000D03*
%TO.P,U4,6,2Y*%
%TO.N,Net-(J7-Pin_2)*%
X90980000Y-116160000D03*
%TO.P,U4,7,2A*%
%TO.N,Net-(J6-Pin_2)*%
X90980000Y-118700000D03*
%TO.P,U4,8,VCC2*%
%TO.N,+12V*%
X90980000Y-121240000D03*
%TO.P,U4,9,EN3\u002C4*%
%TO.N,Net-(J6-Pin_6)*%
X98600000Y-121240000D03*
%TO.P,U4,10,3A*%
%TO.N,Net-(J6-Pin_4)*%
X98600000Y-118700000D03*
%TO.P,U4,11,3Y*%
%TO.N,Net-(J8-Pin_1)*%
X98600000Y-116160000D03*
%TO.P,U4,12,GND*%
%TO.N,GND*%
X98600000Y-113620000D03*
%TO.P,U4,13,GND*%
X98600000Y-111080000D03*
%TO.P,U4,14,4Y*%
%TO.N,Net-(J8-Pin_2)*%
X98600000Y-108540000D03*
%TO.P,U4,15,4A*%
%TO.N,Net-(J6-Pin_5)*%
X98600000Y-106000000D03*
%TO.P,U4,16,VCC1*%
%TO.N,+12V*%
X98600000Y-103460000D03*
%TD*%
D27*
%TO.P,J6,1,Pin_1*%
%TO.N,Net-(J6-Pin_1)*%
X77200000Y-112640000D03*
D15*
%TO.P,J6,2,Pin_2*%
%TO.N,Net-(J6-Pin_2)*%
X77200000Y-116450000D03*
%TO.P,J6,3,Pin_3*%
%TO.N,Net-(J6-Pin_3)*%
X77200000Y-120260000D03*
%TO.P,J6,4,Pin_4*%
%TO.N,Net-(J6-Pin_4)*%
X77200000Y-124070000D03*
%TO.P,J6,5,Pin_5*%
%TO.N,Net-(J6-Pin_5)*%
X77200000Y-127880000D03*
%TO.P,J6,6,Pin_6*%
%TO.N,Net-(J6-Pin_6)*%
X77200000Y-131690000D03*
%TD*%
D28*
%TO.P,Q2,1,S*%
%TO.N,GND*%
X100700000Y-95560000D03*
D29*
%TO.P,Q2,2,G*%
%TO.N,Net-(Q2-G)*%
X100700000Y-96830000D03*
%TO.P,Q2,3,D*%
%TO.N,Net-(BZ1--)*%
X100700000Y-98100000D03*
%TD*%
D30*
%TO.N,+5V*%
X108100000Y-50800000D03*
X111850000Y-87780000D03*
X110350000Y-77800000D03*
X110000000Y-54400000D03*
%TO.N,GND*%
X98250000Y-74330000D03*
D31*
X81750000Y-88080000D03*
D30*
X113650000Y-99730000D03*
X99650000Y-72930000D03*
X104900000Y-56580000D03*
%TO.N,Net-(U2-IN)*%
X98700000Y-45850000D03*
X98700000Y-48250000D03*
%TO.N,+12V*%
X93250000Y-144150000D03*
D31*
%TO.N,RESET*%
X107700000Y-93980000D03*
%TO.N,SCK*%
X108050000Y-81880000D03*
D30*
%TO.N,Net-(J6-Pin_5)*%
X92050000Y-126300000D03*
%TD*%
D32*
%TO.N,Net-(BZ1--)*%
X100700000Y-104650000D02*
X105250000Y-109200000D01*
X100700000Y-98100000D02*
X100700000Y-104650000D01*
%TO.N,+5V*%
X110350000Y-77800000D02*
X110350000Y-86280000D01*
D33*
X108100000Y-52500000D02*
X110000000Y-54400000D01*
D32*
X110350000Y-86280000D02*
X111850000Y-87780000D01*
D33*
X104940000Y-75260000D02*
X102505000Y-75260000D01*
X110000000Y-54400000D02*
X108300000Y-56100000D01*
X108100000Y-50800000D02*
X108100000Y-52500000D01*
X102505000Y-75260000D02*
X102505000Y-77800000D01*
X108300000Y-56100000D02*
X108300000Y-71900000D01*
X108300000Y-71900000D02*
X104940000Y-75260000D01*
%TO.N,GND*%
X102050000Y-95560000D02*
X105800000Y-99310000D01*
X106100000Y-57780000D02*
X104900000Y-56580000D01*
D34*
X90980000Y-111080000D02*
X90980000Y-113620000D01*
D33*
X111930000Y-101450000D02*
X113650000Y-99730000D01*
D32*
X113650000Y-99730000D02*
X113650000Y-97250000D01*
D33*
X105800000Y-99310000D02*
X105810000Y-99310000D01*
X106100000Y-69125000D02*
X106100000Y-65850000D01*
D34*
X98600000Y-113620000D02*
X98600000Y-111080000D01*
D33*
X105810000Y-99310000D02*
X107950000Y-101450000D01*
X100700000Y-95560000D02*
X102050000Y-95560000D01*
D32*
X113650000Y-97250000D02*
X116300000Y-94600000D01*
D33*
X102505000Y-72720000D02*
X106100000Y-69125000D01*
X107950000Y-101450000D02*
X111930000Y-101450000D01*
X106100000Y-65850000D02*
X106100000Y-57780000D01*
X99650000Y-72930000D02*
X98250000Y-74330000D01*
%TO.N,Net-(U2-IN)*%
X98700000Y-48250000D02*
X98700000Y-45850000D01*
D34*
%TO.N,+12V*%
X90980000Y-121240000D02*
X95250000Y-116970000D01*
X90100000Y-141000000D02*
X93250000Y-144150000D01*
X95250000Y-116970000D02*
X95250000Y-106810000D01*
X90980000Y-121240000D02*
X90100000Y-122120000D01*
X95250000Y-106810000D02*
X98600000Y-103460000D01*
X90100000Y-122120000D02*
X90100000Y-141000000D01*
D32*
%TO.N,RESET*%
X96500000Y-87680000D02*
X96500000Y-59095000D01*
X107700000Y-93980000D02*
X102800000Y-93980000D01*
X102800000Y-93980000D02*
X96500000Y-87680000D01*
X96500000Y-59095000D02*
X94885000Y-57480000D01*
%TO.N,SCK*%
X106510000Y-80340000D02*
X102505000Y-80340000D01*
X108050000Y-81880000D02*
X106510000Y-80340000D01*
D34*
%TO.N,Net-(J6-Pin_3)*%
X85250000Y-110200000D02*
X87550000Y-107900000D01*
X74600000Y-117660000D02*
X74600000Y-111800000D01*
X77200000Y-120260000D02*
X74600000Y-117660000D01*
X89740000Y-103460000D02*
X90980000Y-103460000D01*
X76200000Y-110200000D02*
X85250000Y-110200000D01*
X87550000Y-107900000D02*
X87550000Y-105650000D01*
X74600000Y-111800000D02*
X76200000Y-110200000D01*
X87550000Y-105650000D02*
X89740000Y-103460000D01*
%TO.N,Net-(J6-Pin_5)*%
X96500000Y-121850000D02*
X96500000Y-108100000D01*
X96500000Y-108100000D02*
X98600000Y-106000000D01*
X92050000Y-126300000D02*
X96500000Y-121850000D01*
%TO.N,Net-(J6-Pin_1)*%
X84360000Y-112640000D02*
X89000000Y-108000000D01*
X89000000Y-107050000D02*
X90050000Y-106000000D01*
X89000000Y-108000000D02*
X89000000Y-107050000D01*
X77200000Y-112640000D02*
X84360000Y-112640000D01*
X90050000Y-106000000D02*
X90980000Y-106000000D01*
%TO.N,Net-(J7-Pin_1)*%
X90980000Y-108540000D02*
X90410000Y-108540000D01*
X90410000Y-108540000D02*
X86580000Y-112370000D01*
X86580000Y-112370000D02*
X86580000Y-150850000D01*
%TO.N,Net-(J7-Pin_2)*%
X88050000Y-148510000D02*
X90390000Y-150850000D01*
X88050000Y-119090000D02*
X88050000Y-148510000D01*
X88050000Y-119090000D02*
X90980000Y-116160000D01*
%TO.N,Net-(J8-Pin_2)*%
X96750000Y-127950000D02*
X96750000Y-148600000D01*
X101600000Y-123100000D02*
X101600000Y-111540000D01*
X96750000Y-127950000D02*
X101600000Y-123100000D01*
X101600000Y-111540000D02*
X98600000Y-108540000D01*
X96750000Y-148600000D02*
X99000000Y-150850000D01*
%TO.N,Net-(J8-Pin_1)*%
X95190000Y-127510000D02*
X95190000Y-150850000D01*
X100200000Y-122500000D02*
X95190000Y-127510000D01*
X100200000Y-117760000D02*
X100200000Y-122500000D01*
X98600000Y-116160000D02*
X100200000Y-117760000D01*
D33*
%TO.N,Net-(J9-Pin_1)*%
X107800000Y-112150000D02*
X104100000Y-115850000D01*
X117450000Y-112150000D02*
X107800000Y-112150000D01*
X122600000Y-125270000D02*
X121120000Y-125270000D01*
X119950000Y-124100000D02*
X119950000Y-114650000D01*
X119950000Y-114650000D02*
X117450000Y-112150000D01*
X121120000Y-125270000D02*
X119950000Y-124100000D01*
X104100000Y-115850000D02*
X104100000Y-119550000D01*
%TO.N,Net-(J9-Pin_4)*%
X115850000Y-115150000D02*
X109350000Y-115150000D01*
X107700000Y-123570000D02*
X104100000Y-127170000D01*
X122600000Y-132890000D02*
X117200000Y-127490000D01*
X107700000Y-116800000D02*
X107700000Y-123570000D01*
X109350000Y-115150000D02*
X107700000Y-116800000D01*
X117200000Y-127490000D02*
X117200000Y-116500000D01*
X117200000Y-116500000D02*
X115850000Y-115150000D01*
%TO.N,Net-(J9-Pin_7)*%
X107700000Y-136400000D02*
X107700000Y-139200000D01*
X107700000Y-139200000D02*
X110750000Y-142250000D01*
X119650000Y-142250000D02*
X121390000Y-140510000D01*
X106090000Y-134790000D02*
X107700000Y-136400000D01*
X104100000Y-134790000D02*
X106090000Y-134790000D01*
X121390000Y-140510000D02*
X122600000Y-140510000D01*
X110750000Y-142250000D02*
X119650000Y-142250000D01*
%TO.N,Net-(J9-Pin_5)*%
X108900000Y-124910000D02*
X104100000Y-129710000D01*
X116000000Y-128830000D02*
X116000000Y-117050000D01*
X116000000Y-117050000D02*
X115200000Y-116250000D01*
X122600000Y-135430000D02*
X116000000Y-128830000D01*
X108900000Y-117150000D02*
X108900000Y-124910000D01*
X115200000Y-116250000D02*
X109800000Y-116250000D01*
X109800000Y-116250000D02*
X108900000Y-117150000D01*
%TO.N,Net-(J9-Pin_3)*%
X106750000Y-121980000D02*
X104100000Y-124630000D01*
X116300000Y-114200000D02*
X108750000Y-114200000D01*
X106750000Y-116200000D02*
X106750000Y-121980000D01*
X108750000Y-114200000D02*
X106750000Y-116200000D01*
X118050000Y-125800000D02*
X118050000Y-115950000D01*
X118050000Y-115950000D02*
X116300000Y-114200000D01*
X122600000Y-130350000D02*
X118050000Y-125800000D01*
%TO.N,Net-(J9-Pin_6)*%
X111100000Y-141250000D02*
X108750000Y-138900000D01*
X108750000Y-138900000D02*
X108750000Y-135650000D01*
X105350000Y-132250000D02*
X104100000Y-132250000D01*
X108750000Y-135650000D02*
X105350000Y-132250000D01*
X122600000Y-137970000D02*
X119320000Y-141250000D01*
X119320000Y-141250000D02*
X111100000Y-141250000D01*
%TO.N,Net-(J9-Pin_2)*%
X105700000Y-120490000D02*
X104100000Y-122090000D01*
X122600000Y-127810000D02*
X122010000Y-127810000D01*
X118950000Y-115200000D02*
X116900000Y-113150000D01*
X105700000Y-115650000D02*
X105700000Y-120490000D01*
X108200000Y-113150000D02*
X105700000Y-115650000D01*
X122010000Y-127810000D02*
X118950000Y-124750000D01*
X118950000Y-124750000D02*
X118950000Y-115200000D01*
X116900000Y-113150000D02*
X108200000Y-113150000D01*
%TO.N,Net-(J9-Pin_8)*%
X122450000Y-143200000D02*
X110250000Y-143200000D01*
X104380000Y-137330000D02*
X104100000Y-137330000D01*
X122600000Y-143050000D02*
X122450000Y-143200000D01*
X110250000Y-143200000D02*
X104380000Y-137330000D01*
%TD*%
%TA.AperFunction,Conductor*%
%TO.N,GND*%
G36*
X89622870Y-110703141D02*
G01*
X89678803Y-110745013D01*
X89703220Y-110810477D01*
X89702009Y-110838721D01*
X89680000Y-110977682D01*
X89680000Y-111182317D01*
X89712009Y-111384417D01*
X89775244Y-111579031D01*
X89868141Y-111761350D01*
X89868147Y-111761359D01*
X89900523Y-111805921D01*
X89900524Y-111805922D01*
X90580000Y-111126446D01*
X90580000Y-111132661D01*
X90607259Y-111234394D01*
X90659920Y-111325606D01*
X90734394Y-111400080D01*
X90825606Y-111452741D01*
X90927339Y-111480000D01*
X90933553Y-111480000D01*
X90254076Y-112159474D01*
X90298650Y-112191859D01*
X90392180Y-112239515D01*
X90442976Y-112287489D01*
X90459771Y-112355310D01*
X90437234Y-112421445D01*
X90392180Y-112460485D01*
X90298644Y-112508143D01*
X90254077Y-112540523D01*
X90254077Y-112540524D01*
X90933554Y-113220000D01*
X90927339Y-113220000D01*
X90825606Y-113247259D01*
X90734394Y-113299920D01*
X90659920Y-113374394D01*
X90607259Y-113465606D01*
X90580000Y-113567339D01*
X90580000Y-113573553D01*
X89900524Y-112894077D01*
X89900523Y-112894077D01*
X89868143Y-112938644D01*
X89775244Y-113120968D01*
X89712009Y-113315582D01*
X89680000Y-113517682D01*
X89680000Y-113722317D01*
X89712009Y-113924417D01*
X89775244Y-114119031D01*
X89868141Y-114301350D01*
X89868147Y-114301359D01*
X89900523Y-114345921D01*
X89900524Y-114345922D01*
X90580000Y-113666446D01*
X90580000Y-113672661D01*
X90607259Y-113774394D01*
X90659920Y-113865606D01*
X90734394Y-113940080D01*
X90825606Y-113992741D01*
X90927339Y-114020000D01*
X90933553Y-114020000D01*
X90254076Y-114699474D01*
X90298652Y-114731861D01*
X90391628Y-114779234D01*
X90442425Y-114827208D01*
X90459220Y-114895029D01*
X90436683Y-114961164D01*
X90391630Y-115000203D01*
X90298388Y-115047713D01*
X90132786Y-115168028D01*
X89988028Y-115312786D01*
X89867715Y-115478386D01*
X89774781Y-115660776D01*
X89711522Y-115855465D01*
X89679500Y-116057648D01*
X89679500Y-116135638D01*
X89659815Y-116202677D01*
X89643181Y-116223319D01*
X87692181Y-118174319D01*
X87630858Y-118207804D01*
X87561166Y-118202820D01*
X87505233Y-118160948D01*
X87480816Y-118095484D01*
X87480500Y-118086638D01*
X87480500Y-112794361D01*
X87500185Y-112727322D01*
X87516814Y-112706685D01*
X89491860Y-110731639D01*
X89553178Y-110698157D01*
X89622870Y-110703141D01*
G37*
%TD.AperFunction*%
%TA.AperFunction,Conductor*%
G36*
X99679474Y-111805921D02*
G01*
X99711859Y-111761349D01*
X99804755Y-111579031D01*
X99867988Y-111384421D01*
X99871337Y-111363278D01*
X99901264Y-111300142D01*
X99960575Y-111263209D01*
X100030437Y-111264205D01*
X100081492Y-111294991D01*
X100663181Y-111876680D01*
X100696666Y-111938003D01*
X100699500Y-111964361D01*
X100699500Y-116686638D01*
X100679815Y-116753677D01*
X100627011Y-116799432D01*
X100557853Y-116809376D01*
X100494297Y-116780351D01*
X100487819Y-116774319D01*
X99936819Y-116223319D01*
X99903334Y-116161996D01*
X99900500Y-116135638D01*
X99900500Y-116057648D01*
X99868477Y-115855465D01*
X99805218Y-115660776D01*
X99771503Y-115594607D01*
X99712287Y-115478390D01*
X99678955Y-115432512D01*
X99591971Y-115312786D01*
X99447213Y-115168028D01*
X99281611Y-115047713D01*
X99188369Y-115000203D01*
X99137574Y-114952229D01*
X99120779Y-114884407D01*
X99143317Y-114818273D01*
X99188371Y-114779234D01*
X99281346Y-114731861D01*
X99281347Y-114731861D01*
X99325921Y-114699474D01*
X98646447Y-114020000D01*
X98652661Y-114020000D01*
X98754394Y-113992741D01*
X98845606Y-113940080D01*
X98920080Y-113865606D01*
X98972741Y-113774394D01*
X99000000Y-113672661D01*
X99000000Y-113666448D01*
X99679474Y-114345922D01*
X99679474Y-114345921D01*
X99711859Y-114301349D01*
X99804755Y-114119031D01*
X99867990Y-113924417D01*
X99900000Y-113722317D01*
X99900000Y-113517682D01*
X99867990Y-113315582D01*
X99804755Y-113120968D01*
X99711859Y-112938650D01*
X99679474Y-112894077D01*
X99679474Y-112894076D01*
X99000000Y-113573551D01*
X99000000Y-113567339D01*
X98972741Y-113465606D01*
X98920080Y-113374394D01*
X98845606Y-113299920D01*
X98754394Y-113247259D01*
X98652661Y-113220000D01*
X98646446Y-113220000D01*
X99325922Y-112540524D01*
X99325921Y-112540523D01*
X99281359Y-112508147D01*
X99281350Y-112508141D01*
X99187819Y-112460485D01*
X99137023Y-112412511D01*
X99120228Y-112344690D01*
X99142765Y-112278555D01*
X99187820Y-112239515D01*
X99281346Y-112191861D01*
X99281347Y-112191861D01*
X99325921Y-112159474D01*
X98646447Y-111480000D01*
X98652661Y-111480000D01*
X98754394Y-111452741D01*
X98845606Y-111400080D01*
X98920080Y-111325606D01*
X98972741Y-111234394D01*
X99000000Y-111132661D01*
X99000000Y-111126446D01*
X99679474Y-111805921D01*
G37*
%TD.AperFunction*%
%TA.AperFunction,Conductor*%
G36*
X98200000Y-113672661D02*
G01*
X98227259Y-113774394D01*
X98279920Y-113865606D01*
X98354394Y-113940080D01*
X98445606Y-113992741D01*
X98547339Y-114020000D01*
X98553553Y-114020000D01*
X97874076Y-114699474D01*
X97918652Y-114731861D01*
X98011628Y-114779234D01*
X98062425Y-114827208D01*
X98079220Y-114895029D01*
X98056683Y-114961164D01*
X98011630Y-115000203D01*
X97918388Y-115047713D01*
X97752786Y-115168028D01*
X97752782Y-115168032D01*
X97612181Y-115308634D01*
X97550858Y-115342119D01*
X97481166Y-115337135D01*
X97425233Y-115295263D01*
X97400816Y-115229799D01*
X97400500Y-115220953D01*
X97400500Y-114470618D01*
X97420185Y-114403579D01*
X97472989Y-114357824D01*
X97516273Y-114350173D01*
X98200000Y-113666446D01*
X98200000Y-113672661D01*
G37*
%TD.AperFunction*%
%TA.AperFunction,Conductor*%
G36*
X98200000Y-111132661D02*
G01*
X98227259Y-111234394D01*
X98279920Y-111325606D01*
X98354394Y-111400080D01*
X98445606Y-111452741D01*
X98547339Y-111480000D01*
X98553553Y-111480000D01*
X97874076Y-112159474D01*
X97918650Y-112191859D01*
X98012180Y-112239515D01*
X98062976Y-112287489D01*
X98079771Y-112355310D01*
X98057234Y-112421445D01*
X98012180Y-112460485D01*
X97918644Y-112508143D01*
X97874077Y-112540523D01*
X97874077Y-112540524D01*
X98553554Y-113220000D01*
X98547339Y-113220000D01*
X98445606Y-113247259D01*
X98354394Y-113299920D01*
X98279920Y-113374394D01*
X98227259Y-113465606D01*
X98200000Y-113567339D01*
X98200000Y-113573553D01*
X97515513Y-112889066D01*
X97465851Y-112878633D01*
X97416094Y-112829581D01*
X97400500Y-112769380D01*
X97400500Y-111930618D01*
X97420185Y-111863579D01*
X97472989Y-111817824D01*
X97516273Y-111810173D01*
X98200000Y-111126446D01*
X98200000Y-111132661D01*
G37*
%TD.AperFunction*%
%TA.AperFunction,Conductor*%
G36*
X97528814Y-109358225D02*
G01*
X97542147Y-109356309D01*
X97562290Y-109365508D01*
X97583927Y-109370215D01*
X97601652Y-109383483D01*
X97605703Y-109385334D01*
X97612181Y-109391366D01*
X97752786Y-109531971D01*
X97918385Y-109652284D01*
X97918387Y-109652285D01*
X97918390Y-109652287D01*
X98011630Y-109699795D01*
X98062426Y-109747770D01*
X98079221Y-109815591D01*
X98056684Y-109881725D01*
X98011630Y-109920765D01*
X97918644Y-109968143D01*
X97874077Y-110000523D01*
X97874077Y-110000524D01*
X98553554Y-110680000D01*
X98547339Y-110680000D01*
X98445606Y-110707259D01*
X98354394Y-110759920D01*
X98279920Y-110834394D01*
X98227259Y-110925606D01*
X98200000Y-111027339D01*
X98200000Y-111033553D01*
X97515513Y-110349066D01*
X97465851Y-110338633D01*
X97416094Y-110289581D01*
X97400500Y-110229380D01*
X97400500Y-109479047D01*
X97406738Y-109457801D01*
X97408318Y-109435713D01*
X97416390Y-109424929D01*
X97420185Y-109412008D01*
X97436918Y-109397508D01*
X97450190Y-109379780D01*
X97462810Y-109375072D01*
X97472989Y-109366253D01*
X97494906Y-109363101D01*
X97515654Y-109355363D01*
X97528814Y-109358225D01*
G37*
%TD.AperFunction*%
%TA.AperFunction,Conductor*%
G36*
X119451444Y-84133999D02*
G01*
X119490486Y-84179056D01*
X119494951Y-84187820D01*
X119619890Y-84359786D01*
X119770213Y-84510109D01*
X119942179Y-84635048D01*
X119942181Y-84635049D01*
X119942184Y-84635051D01*
X119951493Y-84639794D01*
X120002290Y-84687766D01*
X120019087Y-84755587D01*
X119996552Y-84821722D01*
X119951505Y-84860760D01*
X119942446Y-84865376D01*
X119942440Y-84865380D01*
X119888282Y-84904727D01*
X119888282Y-84904728D01*
X120520591Y-85537037D01*
X120457007Y-85554075D01*
X120342993Y-85619901D01*
X120249901Y-85712993D01*
X120184075Y-85827007D01*
X120167037Y-85890591D01*
X119534728Y-85258282D01*
X119534727Y-85258282D01*
X119495380Y-85312440D01*
X119495376Y-85312446D01*
X119490760Y-85321505D01*
X119442781Y-85372297D01*
X119374959Y-85389087D01*
X119308826Y-85366543D01*
X119269794Y-85321493D01*
X119265051Y-85312184D01*
X119265049Y-85312181D01*
X119265048Y-85312179D01*
X119140109Y-85140213D01*
X118989786Y-84989890D01*
X118817820Y-84864951D01*
X118809600Y-84860763D01*
X118809054Y-84860485D01*
X118758259Y-84812512D01*
X118741463Y-84744692D01*
X118763999Y-84678556D01*
X118809054Y-84639515D01*
X118817816Y-84635051D01*
X118903524Y-84572781D01*
X118989786Y-84510109D01*
X118989788Y-84510106D01*
X118989792Y-84510104D01*
X119140104Y-84359792D01*
X119140106Y-84359788D01*
X119140109Y-84359786D01*
X119265048Y-84187820D01*
X119265047Y-84187820D01*
X119265051Y-84187816D01*
X119269514Y-84179054D01*
X119317488Y-84128259D01*
X119385308Y-84111463D01*
X119451444Y-84133999D01*
G37*
%TD.AperFunction*%
%TA.AperFunction,Conductor*%
G36*
X124082539Y-35260185D02*
G01*
X124128294Y-35312989D01*
X124139500Y-35364500D01*
X124139500Y-58677133D01*
X124119815Y-58744172D01*
X124067011Y-58789927D01*
X123997853Y-58799871D01*
X123934297Y-58770846D01*
X123896523Y-58712068D01*
X123893027Y-58696531D01*
X123891595Y-58687490D01*
X123867246Y-58533757D01*
X123801557Y-58331588D01*
X123705051Y-58142184D01*
X123705049Y-58142181D01*
X123705048Y-58142179D01*
X123580109Y-57970213D01*
X123429786Y-57819890D01*
X123257820Y-57694951D01*
X123068414Y-57598444D01*
X123068413Y-57598443D01*
X123068412Y-57598443D01*
X122866243Y-57532754D01*
X122866241Y-57532753D01*
X122866240Y-57532753D01*
X122704957Y-57507208D01*
X122656287Y-57499500D01*
X122443713Y-57499500D01*
X122395042Y-57507208D01*
X122233760Y-57532753D01*
X122031585Y-57598444D01*
X121842179Y-57694951D01*
X121670213Y-57819890D01*
X121519890Y-57970213D01*
X121394951Y-58142179D01*
X121298444Y-58331585D01*
X121232753Y-58533760D01*
X121204077Y-58714814D01*
X121199500Y-58743713D01*
X121199500Y-58956287D01*
X121232754Y-59166243D01*
X121288688Y-59338390D01*
X121298444Y-59368414D01*
X121394951Y-59557820D01*
X121519890Y-59729786D01*
X121670213Y-59880109D01*
X121842182Y-60005050D01*
X121850946Y-60009516D01*
X121901742Y-60057491D01*
X121918536Y-60125312D01*
X121895998Y-60191447D01*
X121850946Y-60230484D01*
X121842182Y-60234949D01*
X121670213Y-60359890D01*
X121519890Y-60510213D01*
X121394951Y-60682179D01*
X121298444Y-60871585D01*
X121232753Y-61073760D01*
X121216003Y-61179515D01*
X121199500Y-61283713D01*
X121199500Y-61496287D01*
X121232754Y-61706243D01*
X121288688Y-61878390D01*
X121298444Y-61908414D01*
X121394951Y-62097820D01*
X121519890Y-62269786D01*
X121670213Y-62420109D01*
X121842182Y-62545050D01*
X121850946Y-62549516D01*
X121901742Y-62597491D01*
X121918536Y-62665312D01*
X121895998Y-62731447D01*
X121850946Y-62770484D01*
X121842182Y-62774949D01*
X121670213Y-62899890D01*
X121519890Y-63050213D01*
X121394951Y-63222179D01*
X121298444Y-63411585D01*
X121232753Y-63613760D01*
X121216003Y-63719515D01*
X121199500Y-63823713D01*
X121199500Y-64036287D01*
X121232754Y-64246243D01*
X121288688Y-64418390D01*
X121298444Y-64448414D01*
X121394951Y-64637820D01*
X121519890Y-64809786D01*
X121670213Y-64960109D01*
X121842182Y-65085050D01*
X121850946Y-65089516D01*
X121901742Y-65137491D01*
X121918536Y-65205312D01*
X121895998Y-65271447D01*
X121850946Y-65310484D01*
X121842182Y-65314949D01*
X121670213Y-65439890D01*
X121519890Y-65590213D01*
X121394951Y-65762179D01*
X121298444Y-65951585D01*
X121232753Y-66153760D01*
X121216003Y-66259515D01*
X121199500Y-66363713D01*
X121199500Y-66576287D01*
X121232754Y-66786243D01*
X121288688Y-66958390D01*
X121298444Y-66988414D01*
X121394951Y-67177820D01*
X121519890Y-67349786D01*
X121670213Y-67500109D01*
X121842182Y-67625050D01*
X121850946Y-67629516D01*
X121901742Y-67677491D01*
X121918536Y-67745312D01*
X121895998Y-67811447D01*
X121850946Y-67850484D01*
X121842182Y-67854949D01*
X121670213Y-67979890D01*
X121519890Y-68130213D01*
X121394951Y-68302179D01*
X121298444Y-68491585D01*
X121232753Y-68693760D01*
X121216003Y-68799515D01*
X121199500Y-68903713D01*
X121199500Y-69116287D01*
X121232754Y-69326243D01*
X121288688Y-69498390D01*
X121298444Y-69528414D01*
X121394951Y-69717820D01*
X121519890Y-69889786D01*
X121633430Y-70003326D01*
X121666915Y-70064649D01*
X121661931Y-70134341D01*
X121620059Y-70190274D01*
X121589083Y-70207189D01*
X121457669Y-70256203D01*
X121457664Y-70256206D01*
X121342455Y-70342452D01*
X121342452Y-70342455D01*
X121256206Y-70457664D01*
X121256202Y-70457671D01*
X121205908Y-70592517D01*
X121199501Y-70652116D01*
X121199500Y-70652135D01*
X121199500Y-72447870D01*
X121199501Y-72447876D01*
X121205908Y-72507483D01*
X121256202Y-72642328D01*
X121256206Y-72642335D01*
X121342452Y-72757544D01*
X121342455Y-72757547D01*
X121457664Y-72843793D01*
X121457671Y-72843797D01*
X121592517Y-72894091D01*
X121592516Y-72894091D01*
X121599444Y-72894835D01*
X121652127Y-72900500D01*
X123447872Y-72900499D01*
X123507483Y-72894091D01*
X123642331Y-72843796D01*
X123757546Y-72757546D01*
X123843796Y-72642331D01*
X123894091Y-72507483D01*
X123894091Y-72507476D01*
X123894822Y-72504387D01*
X123896050Y-72502228D01*
X123896802Y-72500215D01*
X123897128Y-72500336D01*
X123929394Y-72443670D01*
X123991304Y-72411283D01*
X124060896Y-72417507D01*
X124116075Y-72460368D01*
X124139322Y-72526257D01*
X124139500Y-72532899D01*
X124139500Y-93605946D01*
X124119815Y-93672985D01*
X124067011Y-93718740D01*
X124027898Y-93725653D01*
X123323787Y-94429765D01*
X123312518Y-94387708D01*
X123240110Y-94262292D01*
X123137708Y-94159890D01*
X123012292Y-94087482D01*
X122970234Y-94076212D01*
X123669105Y-93377340D01*
X123669104Y-93377338D01*
X123586174Y-93317087D01*
X123375802Y-93209897D01*
X123151247Y-93136934D01*
X123151248Y-93136934D01*
X122918052Y-93100000D01*
X122681948Y-93100000D01*
X122448752Y-93136934D01*
X122224197Y-93209897D01*
X122013830Y-93317084D01*
X121930894Y-93377340D01*
X122629766Y-94076212D01*
X122587708Y-94087482D01*
X122462292Y-94159890D01*
X122359890Y-94262292D01*
X122287482Y-94387708D01*
X122276212Y-94429766D01*
X121577340Y-93730894D01*
X121517084Y-93813830D01*
X121409897Y-94024197D01*
X121336934Y-94248752D01*
X121300000Y-94481947D01*
X121300000Y-94718052D01*
X121336934Y-94951247D01*
X121409897Y-95175802D01*
X121517087Y-95386174D01*
X121577338Y-95469104D01*
X121577340Y-95469105D01*
X122276212Y-94770233D01*
X122287482Y-94812292D01*
X122359890Y-94937708D01*
X122462292Y-95040110D01*
X122587708Y-95112518D01*
X122629765Y-95123787D01*
X121930893Y-95822658D01*
X122013828Y-95882914D01*
X122224197Y-95990102D01*
X122448752Y-96063065D01*
X122448751Y-96063065D01*
X122681948Y-96100000D01*
X122918052Y-96100000D01*
X123151247Y-96063065D01*
X123375802Y-95990102D01*
X123586163Y-95882918D01*
X123586169Y-95882914D01*
X123669104Y-95822658D01*
X123669105Y-95822658D01*
X122970233Y-95123787D01*
X123012292Y-95112518D01*
X123137708Y-95040110D01*
X123240110Y-94937708D01*
X123312518Y-94812292D01*
X123323787Y-94770234D01*
X124028831Y-95475278D01*
X124074148Y-95484798D01*
X124123905Y-95533850D01*
X124139500Y-95594052D01*
X124139500Y-98018111D01*
X124119815Y-98085150D01*
X124067011Y-98130905D01*
X123997853Y-98140849D01*
X123934297Y-98111824D01*
X123927819Y-98105792D01*
X123777512Y-97955485D01*
X123777510Y-97955483D01*
X123586433Y-97816657D01*
X123555453Y-97800872D01*
X123375996Y-97709433D01*
X123151368Y-97636446D01*
X122918097Y-97599500D01*
X122918092Y-97599500D01*
X122681908Y-97599500D01*
X122681903Y-97599500D01*
X122448631Y-97636446D01*
X122224003Y-97709433D01*
X122013566Y-97816657D01*
X121904550Y-97895862D01*
X121822490Y-97955483D01*
X121822488Y-97955485D01*
X121822487Y-97955485D01*
X121655485Y-98122487D01*
X121655485Y-98122488D01*
X121655483Y-98122490D01*
X121618053Y-98174008D01*
X121516657Y-98313566D01*
X121409433Y-98524003D01*
X121336446Y-98748631D01*
X121299500Y-98981902D01*
X121299500Y-99218097D01*
X121336446Y-99451368D01*
X121409433Y-99675996D01*
X121516657Y-99886433D01*
X121655483Y-100077510D01*
X121822490Y-100244517D01*
X122013567Y-100383343D01*
X122112991Y-100434002D01*
X122224003Y-100490566D01*
X122224005Y-100490566D01*
X122224008Y-100490568D01*
X122344412Y-100529689D01*
X122448631Y-100563553D01*
X122681903Y-100600500D01*
X122681908Y-100600500D01*
X122918097Y-100600500D01*
X123151368Y-100563553D01*
X123375992Y-100490568D01*
X123586433Y-100383343D01*
X123777510Y-100244517D01*
X123927819Y-100094208D01*
X123989142Y-100060723D01*
X124058834Y-100065707D01*
X124114767Y-100107579D01*
X124139184Y-100173043D01*
X124139500Y-100181889D01*
X124139500Y-102819140D01*
X124119815Y-102886179D01*
X124067011Y-102931934D01*
X123997853Y-102941878D01*
X123934297Y-102912853D01*
X123899318Y-102862473D01*
X123893797Y-102847671D01*
X123893793Y-102847664D01*
X123807547Y-102732455D01*
X123807544Y-102732452D01*
X123692335Y-102646206D01*
X123692328Y-102646202D01*
X123557482Y-102595908D01*
X123557483Y-102595908D01*
X123497883Y-102589501D01*
X123497881Y-102589500D01*
X123497873Y-102589500D01*
X123497864Y-102589500D01*
X121702129Y-102589500D01*
X121702123Y-102589501D01*
X121642516Y-102595908D01*
X121507671Y-102646202D01*
X121507664Y-102646206D01*
X121392455Y-102732452D01*
X121392452Y-102732455D01*
X121306206Y-102847664D01*
X121306202Y-102847671D01*
X121255908Y-102982517D01*
X121249501Y-103042116D01*
X121249500Y-103042135D01*
X121249500Y-104837870D01*
X121249501Y-104837876D01*
X121255908Y-104897483D01*
X121306202Y-105032328D01*
X121306206Y-105032335D01*
X121392452Y-105147544D01*
X121392455Y-105147547D01*
X121507664Y-105233793D01*
X121507671Y-105233797D01*
X121639082Y-105282810D01*
X121695016Y-105324681D01*
X121719433Y-105390145D01*
X121704582Y-105458418D01*
X121683431Y-105486673D01*
X121569889Y-105600215D01*
X121444951Y-105772179D01*
X121348444Y-105961585D01*
X121282753Y-106163760D01*
X121249500Y-106373713D01*
X121249500Y-106586286D01*
X121278991Y-106772488D01*
X121282754Y-106796243D01*
X121346350Y-106991971D01*
X121348444Y-106998414D01*
X121444951Y-107187820D01*
X121569890Y-107359786D01*
X121720213Y-107510109D01*
X121892182Y-107635050D01*
X121900946Y-107639516D01*
X121951742Y-107687491D01*
X121968536Y-107755312D01*
X121945998Y-107821447D01*
X121900946Y-107860484D01*
X121892182Y-107864949D01*
X121720213Y-107989890D01*
X121569890Y-108140213D01*
X121444951Y-108312179D01*
X121348444Y-108501585D01*
X121282753Y-108703760D01*
X121249500Y-108913713D01*
X121249500Y-109126286D01*
X121282415Y-109334108D01*
X121282754Y-109336243D01*
X121346350Y-109531971D01*
X121348444Y-109538414D01*
X121444951Y-109727820D01*
X121569890Y-109899786D01*
X121720213Y-110050109D01*
X121892182Y-110175050D01*
X121900946Y-110179516D01*
X121951742Y-110227491D01*
X121968536Y-110295312D01*
X121945998Y-110361447D01*
X121900946Y-110400484D01*
X121892182Y-110404949D01*
X121720213Y-110529890D01*
X121569890Y-110680213D01*
X121444951Y-110852179D01*
X121348444Y-111041585D01*
X121282753Y-111243760D01*
X121262212Y-111373453D01*
X121249500Y-111453713D01*
X121249500Y-111666287D01*
X121256630Y-111711303D01*
X121278902Y-111851927D01*
X121282754Y-111876243D01*
X121311385Y-111964361D01*
X121348444Y-112078414D01*
X121444951Y-112267820D01*
X121569890Y-112439786D01*
X121720213Y-112590109D01*
X121892182Y-112715050D01*
X121900946Y-112719516D01*
X121951742Y-112767491D01*
X121968536Y-112835312D01*
X121945998Y-112901447D01*
X121900946Y-112940484D01*
X121892182Y-112944949D01*
X121720213Y-113069890D01*
X121569890Y-113220213D01*
X121444951Y-113392179D01*
X121348444Y-113581585D01*
X121282753Y-113783760D01*
X121249500Y-113993713D01*
X121249500Y-114206286D01*
X121278902Y-114391927D01*
X121282754Y-114416243D01*
X121333089Y-114571158D01*
X121348444Y-114618414D01*
X121444951Y-114807820D01*
X121569890Y-114979786D01*
X121720213Y-115130109D01*
X121892182Y-115255050D01*
X121900946Y-115259516D01*
X121951742Y-115307491D01*
X121968536Y-115375312D01*
X121945998Y-115441447D01*
X121900946Y-115480484D01*
X121892182Y-115484949D01*
X121720213Y-115609890D01*
X121569890Y-115760213D01*
X121444951Y-115932179D01*
X121348444Y-116121585D01*
X121282753Y-116323760D01*
X121260457Y-116464534D01*
X121249500Y-116533713D01*
X121249500Y-116746287D01*
X121253940Y-116774319D01*
X121278902Y-116931927D01*
X121282754Y-116956243D01*
X121346350Y-117151971D01*
X121348444Y-117158414D01*
X121444951Y-117347820D01*
X121569890Y-117519786D01*
X121720213Y-117670109D01*
X121892182Y-117795050D01*
X121900946Y-117799516D01*
X121951742Y-117847491D01*
X121968536Y-117915312D01*
X121945998Y-117981447D01*
X121900946Y-118020484D01*
X121892182Y-118024949D01*
X121720213Y-118149890D01*
X121569890Y-118300213D01*
X121444951Y-118472179D01*
X121348444Y-118661585D01*
X121282753Y-118863760D01*
X121249500Y-119073713D01*
X121249500Y-119286286D01*
X121278902Y-119471927D01*
X121282754Y-119496243D01*
X121346350Y-119691971D01*
X121348444Y-119698414D01*
X121444951Y-119887820D01*
X121569890Y-120059786D01*
X121720213Y-120210109D01*
X121892182Y-120335050D01*
X121900946Y-120339516D01*
X121951742Y-120387491D01*
X121968536Y-120455312D01*
X121945998Y-120521447D01*
X121900946Y-120560484D01*
X121892182Y-120564949D01*
X121720213Y-120689890D01*
X121569890Y-120840213D01*
X121444951Y-121012179D01*
X121348444Y-121201585D01*
X121282753Y-121403760D01*
X121249500Y-121613713D01*
X121249500Y-121826286D01*
X121281972Y-122031309D01*
X121282754Y-122036243D01*
X121346350Y-122231971D01*
X121348444Y-122238414D01*
X121444951Y-122427820D01*
X121569890Y-122599786D01*
X121720213Y-122750109D01*
X121892179Y-122875048D01*
X121892181Y-122875049D01*
X121892184Y-122875051D01*
X122081588Y-122971557D01*
X122283757Y-123037246D01*
X122493713Y-123070500D01*
X122493714Y-123070500D01*
X122706286Y-123070500D01*
X122706287Y-123070500D01*
X122916243Y-123037246D01*
X123118412Y-122971557D01*
X123307816Y-122875051D01*
X123429481Y-122786657D01*
X123479786Y-122750109D01*
X123479788Y-122750106D01*
X123479792Y-122750104D01*
X123630104Y-122599792D01*
X123630106Y-122599788D01*
X123630109Y-122599786D01*
X123755048Y-122427820D01*
X123755047Y-122427820D01*
X123755051Y-122427816D01*
X123851557Y-122238412D01*
X123897569Y-122096799D01*
X123937007Y-122039125D01*
X124001365Y-122011927D01*
X124070211Y-122023842D01*
X124121687Y-122071086D01*
X124139500Y-122135119D01*
X124139500Y-124149140D01*
X124119815Y-124216179D01*
X124067011Y-124261934D01*
X123997853Y-124271878D01*
X123934297Y-124242853D01*
X123899318Y-124192473D01*
X123893797Y-124177671D01*
X123893793Y-124177664D01*
X123807547Y-124062455D01*
X123807544Y-124062452D01*
X123692335Y-123976206D01*
X123692328Y-123976202D01*
X123557482Y-123925908D01*
X123557483Y-123925908D01*
X123497883Y-123919501D01*
X123497881Y-123919500D01*
X123497873Y-123919500D01*
X123497864Y-123919500D01*
X121702129Y-123919500D01*
X121702123Y-123919501D01*
X121642516Y-123925908D01*
X121507671Y-123976202D01*
X121507664Y-123976206D01*
X121392455Y-124062452D01*
X121329261Y-124146867D01*
X121273326Y-124188738D01*
X121203635Y-124193721D01*
X121142314Y-124160236D01*
X120786819Y-123804741D01*
X120753334Y-123743418D01*
X120750500Y-123717060D01*
X120750500Y-114571155D01*
X120750499Y-114571153D01*
X120726616Y-114451086D01*
X120719737Y-114416503D01*
X120714384Y-114403579D01*
X120659397Y-114270827D01*
X120659390Y-114270814D01*
X120571790Y-114139712D01*
X120551109Y-114119031D01*
X120460289Y-114028211D01*
X119226439Y-112794361D01*
X117960292Y-111528213D01*
X117960288Y-111528210D01*
X117829185Y-111440609D01*
X117829172Y-111440602D01*
X117683501Y-111380264D01*
X117683489Y-111380261D01*
X117528845Y-111349500D01*
X117528842Y-111349500D01*
X107878842Y-111349500D01*
X107721157Y-111349500D01*
X107721155Y-111349500D01*
X107651891Y-111363278D01*
X107600739Y-111373453D01*
X107575002Y-111378572D01*
X107566502Y-111380263D01*
X107566498Y-111380264D01*
X107420827Y-111440602D01*
X107420814Y-111440609D01*
X107325788Y-111504104D01*
X107325787Y-111504106D01*
X107290649Y-111527584D01*
X107289705Y-111528215D01*
X104472001Y-114345921D01*
X103589711Y-115228211D01*
X103558408Y-115259514D01*
X103478209Y-115339712D01*
X103390609Y-115470814D01*
X103390602Y-115470827D01*
X103330264Y-115616498D01*
X103330261Y-115616510D01*
X103299500Y-115771153D01*
X103299500Y-118204091D01*
X103279815Y-118271130D01*
X103235731Y-118309641D01*
X103236813Y-118311395D01*
X103230667Y-118315185D01*
X103230666Y-118315186D01*
X103182685Y-118344781D01*
X103081342Y-118407289D01*
X102957289Y-118531342D01*
X102865187Y-118680663D01*
X102865185Y-118680668D01*
X102839063Y-118759500D01*
X102810001Y-118847203D01*
X102810001Y-118847204D01*
X102810000Y-118847204D01*
X102799500Y-118949983D01*
X102799500Y-120150001D01*
X102799501Y-120150018D01*
X102810000Y-120252796D01*
X102810001Y-120252799D01*
X102837256Y-120335048D01*
X102865186Y-120419334D01*
X102957288Y-120568656D01*
X103081344Y-120692712D01*
X103230666Y-120784814D01*
X103312570Y-120811954D01*
X103370015Y-120851727D01*
X103396838Y-120916243D01*
X103384523Y-120985018D01*
X103346451Y-121029978D01*
X103252787Y-121098028D01*
X103252782Y-121098032D01*
X103108028Y-121242786D01*
X102987715Y-121408386D01*
X102894781Y-121590776D01*
X102831522Y-121785465D01*
X102799500Y-121987648D01*
X102799500Y-122192351D01*
X102831522Y-122394534D01*
X102894781Y-122589223D01*
X102906891Y-122612989D01*
X102977813Y-122752181D01*
X102987715Y-122771613D01*
X103108028Y-122937213D01*
X103252786Y-123081971D01*
X103399678Y-123188692D01*
X103418390Y-123202287D01*
X103489309Y-123238422D01*
X103511080Y-123249515D01*
X103561876Y-123297490D01*
X103578671Y-123365311D01*
X103556134Y-123431446D01*
X103511080Y-123470485D01*
X103418386Y-123517715D01*
X103252786Y-123638028D01*
X103108028Y-123782786D01*
X102987715Y-123948386D01*
X102894781Y-124130776D01*
X102831522Y-124325465D01*
X102799500Y-124527648D01*
X102799500Y-124732351D01*
X102831522Y-124934534D01*
X102894781Y-125129223D01*
X102958691Y-125254653D01*
X102976282Y-125289176D01*
X102987715Y-125311613D01*
X103108028Y-125477213D01*
X103252786Y-125621971D01*
X103395915Y-125725958D01*
X103418390Y-125742287D01*
X103509840Y-125788883D01*
X103511080Y-125789515D01*
X103561876Y-125837490D01*
X103578671Y-125905311D01*
X103556134Y-125971446D01*
X103511080Y-126010485D01*
X103418386Y-126057715D01*
X103252786Y-126178028D01*
X103108028Y-126322786D01*
X102987715Y-126488386D01*
X102894781Y-126670776D01*
X102831522Y-126865465D01*
X102799500Y-127067648D01*
X102799500Y-127272351D01*
X102831522Y-127474534D01*
X102894781Y-127669223D01*
X102987715Y-127851613D01*
X103108028Y-128017213D01*
X103252786Y-128161971D01*
X103339704Y-128225119D01*
X103418390Y-128282287D01*
X103498292Y-128322999D01*
X103511080Y-128329515D01*
X103561876Y-128377490D01*
X103578671Y-128445311D01*
X103556134Y-128511446D01*
X103511080Y-128550485D01*
X103418386Y-128597715D01*
X103252786Y-128718028D01*
X103108028Y-128862786D01*
X102987715Y-129028386D01*
X102894781Y-129210776D01*
X102831522Y-129405465D01*
X102799500Y-129607648D01*
X102799500Y-129812351D01*
X102831522Y-130014534D01*
X102894781Y-130209223D01*
X102987715Y-130391613D01*
X103108028Y-130557213D01*
X103252786Y-130701971D01*
X103339704Y-130765119D01*
X103418390Y-130822287D01*
X103508915Y-130868412D01*
X103511080Y-130869515D01*
X103561876Y-130917490D01*
X103578671Y-130985311D01*
X103556134Y-131051446D01*
X103511080Y-131090485D01*
X103418386Y-131137715D01*
X103252786Y-131258028D01*
X103108028Y-131402786D01*
X102987715Y-131568386D01*
X102894781Y-131750776D01*
X102831522Y-131945465D01*
X102799500Y-132147648D01*
X102799500Y-132352351D01*
X102831522Y-132554534D01*
X102894781Y-132749223D01*
X102987715Y-132931613D01*
X103108028Y-133097213D01*
X103252786Y-133241971D01*
X103339704Y-133305119D01*
X103418390Y-133362287D01*
X103508915Y-133408412D01*
X103511080Y-133409515D01*
X103561876Y-133457490D01*
X103578671Y-133525311D01*
X103556134Y-133591446D01*
X103511080Y-133630485D01*
X103418386Y-133677715D01*
X103252786Y-133798028D01*
X103108028Y-133942786D01*
X102987715Y-134108386D01*
X102894781Y-134290776D01*
X102831522Y-134485465D01*
X102799500Y-134687648D01*
X102799500Y-134892351D01*
X102831522Y-135094534D01*
X102894781Y-135289223D01*
X102987715Y-135471613D01*
X103108028Y-135637213D01*
X103252786Y-135781971D01*
X103339704Y-135845119D01*
X103418390Y-135902287D01*
X103508915Y-135948412D01*
X103511080Y-135949515D01*
X103561876Y-135997490D01*
X103578671Y-136065311D01*
X103556134Y-136131446D01*
X103511080Y-136170485D01*
X103418386Y-136217715D01*
X103252786Y-136338028D01*
X103108028Y-136482786D01*
X102987715Y-136648386D01*
X102894781Y-136830776D01*
X102831522Y-137025465D01*
X102799500Y-137227648D01*
X102799500Y-137432351D01*
X102831522Y-137634534D01*
X102894781Y-137829223D01*
X102987715Y-138011613D01*
X103108028Y-138177213D01*
X103252786Y-138321971D01*
X103418385Y-138442284D01*
X103418387Y-138442285D01*
X103418390Y-138442287D01*
X103511080Y-138489515D01*
X103511630Y-138489795D01*
X103562426Y-138537770D01*
X103579221Y-138605591D01*
X103556684Y-138671725D01*
X103511630Y-138710765D01*
X103418644Y-138758143D01*
X103374077Y-138790523D01*
X103374077Y-138790524D01*
X104053554Y-139470000D01*
X104047339Y-139470000D01*
X103945606Y-139497259D01*
X103854394Y-139549920D01*
X103779920Y-139624394D01*
X103727259Y-139715606D01*
X103700000Y-139817339D01*
X103700000Y-139823553D01*
X103020524Y-139144077D01*
X103020523Y-139144077D01*
X102988143Y-139188644D01*
X102895244Y-139370968D01*
X102832009Y-139565582D01*
X102800000Y-139767682D01*
X102800000Y-139972317D01*
X102832009Y-140174417D01*
X102895244Y-140369031D01*
X102988141Y-140551350D01*
X102988147Y-140551359D01*
X103020523Y-140595921D01*
X103020524Y-140595922D01*
X103700000Y-139916446D01*
X103700000Y-139922661D01*
X103727259Y-140024394D01*
X103779920Y-140115606D01*
X103854394Y-140190080D01*
X103945606Y-140242741D01*
X104047339Y-140270000D01*
X104053553Y-140270000D01*
X103374076Y-140949474D01*
X103418650Y-140981859D01*
X103600968Y-141074755D01*
X103795582Y-141137990D01*
X103997683Y-141170000D01*
X104202317Y-141170000D01*
X104404417Y-141137990D01*
X104599031Y-141074755D01*
X104781349Y-140981859D01*
X104825921Y-140949474D01*
X104146447Y-140270000D01*
X104152661Y-140270000D01*
X104254394Y-140242741D01*
X104345606Y-140190080D01*
X104420080Y-140115606D01*
X104472741Y-140024394D01*
X104500000Y-139922661D01*
X104500000Y-139916446D01*
X105179474Y-140595921D01*
X105211859Y-140551349D01*
X105304755Y-140369031D01*
X105367990Y-140174417D01*
X105400000Y-139972317D01*
X105400000Y-139781440D01*
X105419685Y-139714401D01*
X105472489Y-139668646D01*
X105541647Y-139658702D01*
X105605203Y-139687727D01*
X105611681Y-139693759D01*
X109739707Y-143821786D01*
X109739711Y-143821789D01*
X109870814Y-143909390D01*
X109870818Y-143909392D01*
X109870821Y-143909394D01*
X110016503Y-143969738D01*
X110171153Y-144000499D01*
X110171157Y-144000500D01*
X110171158Y-144000500D01*
X110328843Y-144000500D01*
X121589242Y-144000500D01*
X121656281Y-144020185D01*
X121676923Y-144036819D01*
X121720213Y-144080109D01*
X121892179Y-144205048D01*
X121892181Y-144205049D01*
X121892184Y-144205051D01*
X122081588Y-144301557D01*
X122283757Y-144367246D01*
X122493713Y-144400500D01*
X122493714Y-144400500D01*
X122706286Y-144400500D01*
X122706287Y-144400500D01*
X122916243Y-144367246D01*
X123118412Y-144301557D01*
X123307816Y-144205051D01*
X123329789Y-144189086D01*
X123479786Y-144080109D01*
X123479788Y-144080106D01*
X123479792Y-144080104D01*
X123630104Y-143929792D01*
X123630106Y-143929788D01*
X123630109Y-143929786D01*
X123755048Y-143757820D01*
X123755047Y-143757820D01*
X123755051Y-143757816D01*
X123851557Y-143568412D01*
X123897569Y-143426799D01*
X123937007Y-143369125D01*
X124001365Y-143341927D01*
X124070211Y-143353842D01*
X124121687Y-143401086D01*
X124139500Y-143465119D01*
X124139500Y-154615500D01*
X124119815Y-154682539D01*
X124067011Y-154728294D01*
X124015500Y-154739500D01*
X73464500Y-154739500D01*
X73397461Y-154719815D01*
X73351706Y-154667011D01*
X73340500Y-154615500D01*
X73340500Y-149931995D01*
X76299500Y-149931995D01*
X76299500Y-150168004D01*
X76299501Y-150168020D01*
X76330306Y-150402010D01*
X76391394Y-150629993D01*
X76481714Y-150848045D01*
X76481719Y-150848056D01*
X76551023Y-150968092D01*
X76599727Y-151052450D01*
X76599729Y-151052453D01*
X76599730Y-151052454D01*
X76743406Y-151239697D01*
X76743412Y-151239704D01*
X76910295Y-151406587D01*
X76910302Y-151406593D01*
X76935589Y-151425996D01*
X77097550Y-151550273D01*
X77228918Y-151626118D01*
X77301943Y-151668280D01*
X77301948Y-151668282D01*
X77301951Y-151668284D01*
X77520007Y-151758606D01*
X77747986Y-151819693D01*
X77981989Y-151850500D01*
X77981996Y-151850500D01*
X78218004Y-151850500D01*
X78218011Y-151850500D01*
X78452014Y-151819693D01*
X78679993Y-151758606D01*
X78898049Y-151668284D01*
X79102450Y-151550273D01*
X79289699Y-151406592D01*
X79456592Y-151239699D01*
X79600273Y-151052450D01*
X79718284Y-150848049D01*
X79808606Y-150629993D01*
X79869693Y-150402014D01*
X79900500Y-150168011D01*
X79900500Y-149931989D01*
X79869693Y-149697986D01*
X79808606Y-149470007D01*
X79718284Y-149251951D01*
X79718282Y-149251948D01*
X79718280Y-149251943D01*
X79676118Y-149178918D01*
X79600273Y-149047550D01*
X79456592Y-148860301D01*
X79456587Y-148860295D01*
X79289704Y-148693412D01*
X79289697Y-148693406D01*
X79102454Y-148549730D01*
X79102453Y-148549729D01*
X79102450Y-148549727D01*
X79020957Y-148502677D01*
X78898056Y-148431719D01*
X78898045Y-148431714D01*
X78679993Y-148341394D01*
X78452010Y-148280306D01*
X78218020Y-148249501D01*
X78218017Y-148249500D01*
X78218011Y-148249500D01*
X77981989Y-148249500D01*
X77981983Y-148249500D01*
X77981979Y-148249501D01*
X77747989Y-148280306D01*
X77520006Y-148341394D01*
X77301954Y-148431714D01*
X77301943Y-148431719D01*
X77097545Y-148549730D01*
X76910302Y-148693406D01*
X76910295Y-148693412D01*
X76743412Y-148860295D01*
X76743406Y-148860302D01*
X76599730Y-149047545D01*
X76481719Y-149251943D01*
X76481714Y-149251954D01*
X76391394Y-149470006D01*
X76330306Y-149697989D01*
X76299501Y-149931979D01*
X76299500Y-149931995D01*
X73340500Y-149931995D01*
X73340500Y-131571902D01*
X75699500Y-131571902D01*
X75699500Y-131808097D01*
X75736446Y-132041368D01*
X75809433Y-132265996D01*
X75915866Y-132474880D01*
X75916657Y-132476433D01*
X76055483Y-132667510D01*
X76222490Y-132834517D01*
X76413567Y-132973343D01*
X76512991Y-133024002D01*
X76624003Y-133080566D01*
X76624005Y-133080566D01*
X76624008Y-133080568D01*
X76716532Y-133110631D01*
X76848631Y-133153553D01*
X77081903Y-133190500D01*
X77081908Y-133190500D01*
X77318097Y-133190500D01*
X77551368Y-133153553D01*
X77775992Y-133080568D01*
X77986433Y-132973343D01*
X78177510Y-132834517D01*
X78344517Y-132667510D01*
X78483343Y-132476433D01*
X78590568Y-132265992D01*
X78663553Y-132041368D01*
X78700500Y-131808097D01*
X78700500Y-131571902D01*
X78663553Y-131338631D01*
X78590566Y-131114003D01*
X78524994Y-130985311D01*
X78483343Y-130903567D01*
X78344517Y-130712490D01*
X78177510Y-130545483D01*
X77986433Y-130406657D01*
X77775996Y-130299433D01*
X77551368Y-130226446D01*
X77318097Y-130189500D01*
X77318092Y-130189500D01*
X77081908Y-130189500D01*
X77081903Y-130189500D01*
X76848631Y-130226446D01*
X76624003Y-130299433D01*
X76413566Y-130406657D01*
X76345257Y-130456287D01*
X76222490Y-130545483D01*
X76222488Y-130545485D01*
X76222487Y-130545485D01*
X76055485Y-130712487D01*
X76055485Y-130712488D01*
X76055483Y-130712490D01*
X76017246Y-130765119D01*
X75916657Y-130903566D01*
X75809433Y-131114003D01*
X75736446Y-131338631D01*
X75699500Y-131571902D01*
X73340500Y-131571902D01*
X73340500Y-127761902D01*
X75699500Y-127761902D01*
X75699500Y-127998097D01*
X75736446Y-128231368D01*
X75809433Y-128455996D01*
X75881642Y-128597713D01*
X75916657Y-128666433D01*
X76055483Y-128857510D01*
X76222490Y-129024517D01*
X76413567Y-129163343D01*
X76503512Y-129209172D01*
X76624003Y-129270566D01*
X76624005Y-129270566D01*
X76624008Y-129270568D01*
X76744412Y-129309689D01*
X76848631Y-129343553D01*
X77081903Y-129380500D01*
X77081908Y-129380500D01*
X77318097Y-129380500D01*
X77551368Y-129343553D01*
X77561404Y-129340292D01*
X77775992Y-129270568D01*
X77986433Y-129163343D01*
X78177510Y-129024517D01*
X78344517Y-128857510D01*
X78483343Y-128666433D01*
X78590568Y-128455992D01*
X78663553Y-128231368D01*
X78670612Y-128186801D01*
X78700500Y-127998097D01*
X78700500Y-127761902D01*
X78663553Y-127528631D01*
X78616040Y-127382402D01*
X78590568Y-127304008D01*
X78590566Y-127304005D01*
X78590566Y-127304003D01*
X78520195Y-127165894D01*
X78483343Y-127093567D01*
X78344517Y-126902490D01*
X78177510Y-126735483D01*
X77986433Y-126596657D01*
X77921934Y-126563793D01*
X77775996Y-126489433D01*
X77551368Y-126416446D01*
X77318097Y-126379500D01*
X77318092Y-126379500D01*
X77081908Y-126379500D01*
X77081903Y-126379500D01*
X76848631Y-126416446D01*
X76624003Y-126489433D01*
X76413566Y-126596657D01*
X76333335Y-126654949D01*
X76222490Y-126735483D01*
X76222488Y-126735485D01*
X76222487Y-126735485D01*
X76055485Y-126902487D01*
X76055485Y-126902488D01*
X76055483Y-126902490D01*
X76035345Y-126930208D01*
X75916657Y-127093566D01*
X75809433Y-127304003D01*
X75736446Y-127528631D01*
X75699500Y-127761902D01*
X73340500Y-127761902D01*
X73340500Y-123951902D01*
X75699500Y-123951902D01*
X75699500Y-124188097D01*
X75736446Y-124421368D01*
X75809433Y-124645996D01*
X75916657Y-124856433D01*
X76055483Y-125047510D01*
X76222490Y-125214517D01*
X76413567Y-125353343D01*
X76504151Y-125399498D01*
X76624003Y-125460566D01*
X76624005Y-125460566D01*
X76624008Y-125460568D01*
X76744412Y-125499689D01*
X76848631Y-125533553D01*
X77081903Y-125570500D01*
X77081908Y-125570500D01*
X77318097Y-125570500D01*
X77551368Y-125533553D01*
X77775992Y-125460568D01*
X77986433Y-125353343D01*
X78177510Y-125214517D01*
X78344517Y-125047510D01*
X78483343Y-124856433D01*
X78590568Y-124645992D01*
X78663553Y-124421368D01*
X78671352Y-124372128D01*
X78700500Y-124188097D01*
X78700500Y-123951902D01*
X78663553Y-123718631D01*
X78629689Y-123614412D01*
X78590568Y-123494008D01*
X78590566Y-123494005D01*
X78590566Y-123494003D01*
X78523642Y-123362659D01*
X78483343Y-123283567D01*
X78344517Y-123092490D01*
X78177510Y-122925483D01*
X77986433Y-122786657D01*
X77775996Y-122679433D01*
X77551368Y-122606446D01*
X77318097Y-122569500D01*
X77318092Y-122569500D01*
X77081908Y-122569500D01*
X77081903Y-122569500D01*
X76848631Y-122606446D01*
X76624003Y-122679433D01*
X76413566Y-122786657D01*
X76304550Y-122865862D01*
X76222490Y-122925483D01*
X76222488Y-122925485D01*
X76222487Y-122925485D01*
X76055485Y-123092487D01*
X76055485Y-123092488D01*
X76055483Y-123092490D01*
X75995862Y-123174550D01*
X75916657Y-123283566D01*
X75809433Y-123494003D01*
X75736446Y-123718631D01*
X75699500Y-123951902D01*
X73340500Y-123951902D01*
X73340500Y-111711303D01*
X73699500Y-111711303D01*
X73699500Y-117748696D01*
X73734103Y-117922659D01*
X73734106Y-117922669D01*
X73745634Y-117950500D01*
X73748429Y-117957246D01*
X73801987Y-118086547D01*
X73844316Y-118149896D01*
X73848601Y-118156309D01*
X73900537Y-118234038D01*
X73900540Y-118234041D01*
X75669714Y-120003214D01*
X75703199Y-120064537D01*
X75704507Y-120110291D01*
X75699500Y-120141907D01*
X75699500Y-120378097D01*
X75736446Y-120611368D01*
X75809433Y-120835996D01*
X75899204Y-121012179D01*
X75916657Y-121046433D01*
X76055483Y-121237510D01*
X76222490Y-121404517D01*
X76413567Y-121543343D01*
X76506660Y-121590776D01*
X76624003Y-121650566D01*
X76624005Y-121650566D01*
X76624008Y-121650568D01*
X76744412Y-121689689D01*
X76848631Y-121723553D01*
X77081903Y-121760500D01*
X77081908Y-121760500D01*
X77318097Y-121760500D01*
X77551368Y-121723553D01*
X77775992Y-121650568D01*
X77986433Y-121543343D01*
X78177510Y-121404517D01*
X78344517Y-121237510D01*
X78483343Y-121046433D01*
X78590568Y-120835992D01*
X78663553Y-120611368D01*
X78671944Y-120558390D01*
X78700500Y-120378097D01*
X78700500Y-120141902D01*
X78663553Y-119908631D01*
X78628025Y-119799289D01*
X78590568Y-119684008D01*
X78590566Y-119684005D01*
X78590566Y-119684003D01*
X78525753Y-119556801D01*
X78483343Y-119473567D01*
X78344517Y-119282490D01*
X78177510Y-119115483D01*
X77986433Y-118976657D01*
X77775996Y-118869433D01*
X77551368Y-118796446D01*
X77318097Y-118759500D01*
X77318092Y-118759500D01*
X77081908Y-118759500D01*
X77081907Y-118759500D01*
X77050291Y-118764507D01*
X76980998Y-118755551D01*
X76943214Y-118729714D01*
X75536819Y-117323319D01*
X75503334Y-117261996D01*
X75500500Y-117235638D01*
X75500500Y-116858104D01*
X75520185Y-116791065D01*
X75572989Y-116745310D01*
X75642147Y-116735366D01*
X75705703Y-116764391D01*
X75742431Y-116819785D01*
X75809433Y-117025996D01*
X75846655Y-117099047D01*
X75916657Y-117236433D01*
X76055483Y-117427510D01*
X76222490Y-117594517D01*
X76413567Y-117733343D01*
X76467755Y-117760953D01*
X76624003Y-117840566D01*
X76624005Y-117840566D01*
X76624008Y-117840568D01*
X76736549Y-117877135D01*
X76848631Y-117913553D01*
X77081903Y-117950500D01*
X77081908Y-117950500D01*
X77318097Y-117950500D01*
X77551368Y-117913553D01*
X77578639Y-117904692D01*
X77775992Y-117840568D01*
X77986433Y-117733343D01*
X78177510Y-117594517D01*
X78344517Y-117427510D01*
X78483343Y-117236433D01*
X78590568Y-117025992D01*
X78663553Y-116801368D01*
X78669410Y-116764391D01*
X78700500Y-116568097D01*
X78700500Y-116331902D01*
X78663553Y-116098631D01*
X78629689Y-115994412D01*
X78590568Y-115874008D01*
X78590566Y-115874005D01*
X78590566Y-115874003D01*
X78483342Y-115663566D01*
X78473162Y-115649554D01*
X78344517Y-115472490D01*
X78177510Y-115305483D01*
X77986433Y-115166657D01*
X77775996Y-115059433D01*
X77551368Y-114986446D01*
X77318097Y-114949500D01*
X77318092Y-114949500D01*
X77081908Y-114949500D01*
X77081903Y-114949500D01*
X76848631Y-114986446D01*
X76624003Y-115059433D01*
X76413566Y-115166657D01*
X76338835Y-115220953D01*
X76222490Y-115305483D01*
X76222488Y-115305485D01*
X76222487Y-115305485D01*
X76055485Y-115472487D01*
X76055485Y-115472488D01*
X76055483Y-115472490D01*
X76049675Y-115480484D01*
X75916657Y-115663566D01*
X75809433Y-115874003D01*
X75742431Y-116080214D01*
X75702993Y-116137889D01*
X75638634Y-116165087D01*
X75569788Y-116153172D01*
X75518312Y-116105928D01*
X75500500Y-116041895D01*
X75500500Y-113678988D01*
X75520185Y-113611949D01*
X75572989Y-113566194D01*
X75642147Y-113556250D01*
X75705703Y-113585275D01*
X75742205Y-113639982D01*
X75765186Y-113709334D01*
X75857288Y-113858656D01*
X75981344Y-113982712D01*
X76130666Y-114074814D01*
X76297203Y-114129999D01*
X76399991Y-114140500D01*
X78000008Y-114140499D01*
X78102797Y-114129999D01*
X78269334Y-114074814D01*
X78418656Y-113982712D01*
X78542712Y-113858656D01*
X78634814Y-113709334D01*
X78662595Y-113625495D01*
X78702368Y-113568051D01*
X78766884Y-113541228D01*
X78780301Y-113540500D01*
X84448693Y-113540500D01*
X84448694Y-113540499D01*
X84622666Y-113505895D01*
X84728110Y-113462218D01*
X84786547Y-113438013D01*
X84874959Y-113378936D01*
X84934036Y-113339464D01*
X85467819Y-112805681D01*
X85529142Y-112772196D01*
X85598834Y-112777180D01*
X85654767Y-112819052D01*
X85679184Y-112884516D01*
X85679500Y-112893362D01*
X85679500Y-149269699D01*
X85659815Y-149336738D01*
X85607011Y-149382493D01*
X85594507Y-149387403D01*
X85561962Y-149398188D01*
X85510668Y-149415185D01*
X85510663Y-149415187D01*
X85361342Y-149507289D01*
X85237289Y-149631342D01*
X85145187Y-149780663D01*
X85145186Y-149780666D01*
X85090001Y-149947203D01*
X85090001Y-149947204D01*
X85090000Y-149947204D01*
X85079500Y-150049983D01*
X85079500Y-151650001D01*
X85079501Y-151650018D01*
X85090000Y-151752796D01*
X85090001Y-151752799D01*
X85145185Y-151919331D01*
X85145186Y-151919334D01*
X85237288Y-152068656D01*
X85361344Y-152192712D01*
X85510666Y-152284814D01*
X85677203Y-152339999D01*
X85779991Y-152350500D01*
X87380008Y-152350499D01*
X87482797Y-152339999D01*
X87649334Y-152284814D01*
X87798656Y-152192712D01*
X87922712Y-152068656D01*
X88014814Y-151919334D01*
X88069999Y-151752797D01*
X88080500Y-151650009D01*
X88080499Y-150113360D01*
X88100184Y-150046322D01*
X88152987Y-150000567D01*
X88222146Y-149990623D01*
X88285702Y-150019648D01*
X88292180Y-150025680D01*
X88859714Y-150593214D01*
X88893199Y-150654537D01*
X88894507Y-150700291D01*
X88889500Y-150731907D01*
X88889500Y-150968097D01*
X88926446Y-151201368D01*
X88999433Y-151425996D01*
X89062754Y-151550269D01*
X89106657Y-151636433D01*
X89245483Y-151827510D01*
X89412490Y-151994517D01*
X89603567Y-152133343D01*
X89702991Y-152184002D01*
X89814003Y-152240566D01*
X89814005Y-152240566D01*
X89814008Y-152240568D01*
X89934412Y-152279689D01*
X90038631Y-152313553D01*
X90271903Y-152350500D01*
X90271908Y-152350500D01*
X90508097Y-152350500D01*
X90741368Y-152313553D01*
X90965992Y-152240568D01*
X91176433Y-152133343D01*
X91367510Y-151994517D01*
X91534517Y-151827510D01*
X91673343Y-151636433D01*
X91780568Y-151425992D01*
X91853553Y-151201368D01*
X91890500Y-150968097D01*
X91890500Y-150731902D01*
X91853553Y-150498631D01*
X91780566Y-150274003D01*
X91673342Y-150063566D01*
X91663479Y-150049991D01*
X91534517Y-149872490D01*
X91367510Y-149705483D01*
X91176433Y-149566657D01*
X90965996Y-149459433D01*
X90741368Y-149386446D01*
X90508097Y-149349500D01*
X90508092Y-149349500D01*
X90271908Y-149349500D01*
X90271907Y-149349500D01*
X90240291Y-149354507D01*
X90170998Y-149345551D01*
X90133214Y-149319714D01*
X88986819Y-148173319D01*
X88953334Y-148111996D01*
X88950500Y-148085638D01*
X88950500Y-119514361D01*
X88970185Y-119447322D01*
X88986819Y-119426680D01*
X89214280Y-119199219D01*
X89498072Y-118915426D01*
X89559393Y-118881943D01*
X89629084Y-118886927D01*
X89685018Y-118928798D01*
X89708224Y-118983707D01*
X89711523Y-119004537D01*
X89774781Y-119199223D01*
X89867715Y-119381613D01*
X89988028Y-119547213D01*
X90132786Y-119691971D01*
X90280500Y-119799289D01*
X90298390Y-119812287D01*
X90381304Y-119854534D01*
X90391080Y-119859515D01*
X90441876Y-119907490D01*
X90458671Y-119975311D01*
X90436134Y-120041446D01*
X90391080Y-120080485D01*
X90298386Y-120127715D01*
X90132786Y-120248028D01*
X89988028Y-120392786D01*
X89867715Y-120558386D01*
X89774781Y-120740776D01*
X89711522Y-120935465D01*
X89679500Y-121137648D01*
X89679500Y-121215637D01*
X89659815Y-121282676D01*
X89643181Y-121303318D01*
X89400538Y-121545960D01*
X89400537Y-121545961D01*
X89377988Y-121579710D01*
X89377987Y-121579711D01*
X89301990Y-121693446D01*
X89301985Y-121693456D01*
X89268046Y-121775393D01*
X89234106Y-121857329D01*
X89234103Y-121857341D01*
X89199500Y-122031303D01*
X89199500Y-141088696D01*
X89234103Y-141262658D01*
X89234105Y-141262666D01*
X89253919Y-141310501D01*
X89301985Y-141426544D01*
X89301987Y-141426547D01*
X89340040Y-141483497D01*
X89340041Y-141483498D01*
X89400537Y-141574038D01*
X89400538Y-141574039D01*
X92550536Y-144724035D01*
X92675965Y-144849464D01*
X92823453Y-144948013D01*
X92871452Y-144967895D01*
X92987334Y-145015895D01*
X93161304Y-145050499D01*
X93161308Y-145050500D01*
X93161309Y-145050500D01*
X93338693Y-145050500D01*
X93338694Y-145050499D01*
X93512666Y-145015895D01*
X93676547Y-144948013D01*
X93824036Y-144849464D01*
X93949464Y-144724036D01*
X94048013Y-144576547D01*
X94050938Y-144569484D01*
X94094779Y-144515081D01*
X94161072Y-144493015D01*
X94228772Y-144510293D01*
X94276383Y-144561430D01*
X94289500Y-144616936D01*
X94289500Y-149269699D01*
X94269815Y-149336738D01*
X94217011Y-149382493D01*
X94204507Y-149387403D01*
X94171962Y-149398188D01*
X94120668Y-149415185D01*
X94120663Y-149415187D01*
X93971342Y-149507289D01*
X93847289Y-149631342D01*
X93755187Y-149780663D01*
X93755186Y-149780666D01*
X93700001Y-149947203D01*
X93700001Y-149947204D01*
X93700000Y-149947204D01*
X93689500Y-150049983D01*
X93689500Y-151650001D01*
X93689501Y-151650018D01*
X93700000Y-151752796D01*
X93700001Y-151752799D01*
X93755185Y-151919331D01*
X93755186Y-151919334D01*
X93847288Y-152068656D01*
X93971344Y-152192712D01*
X94120666Y-152284814D01*
X94287203Y-152339999D01*
X94389991Y-152350500D01*
X95990008Y-152350499D01*
X96092797Y-152339999D01*
X96259334Y-152284814D01*
X96408656Y-152192712D01*
X96532712Y-152068656D01*
X96624814Y-151919334D01*
X96679999Y-151752797D01*
X96690500Y-151650009D01*
X96690499Y-150113360D01*
X96710184Y-150046322D01*
X96762987Y-150000567D01*
X96832146Y-149990623D01*
X96895702Y-150019648D01*
X96902180Y-150025680D01*
X97469714Y-150593214D01*
X97503199Y-150654537D01*
X97504507Y-150700291D01*
X97499500Y-150731907D01*
X97499500Y-150968097D01*
X97536446Y-151201368D01*
X97609433Y-151425996D01*
X97672754Y-151550269D01*
X97716657Y-151636433D01*
X97855483Y-151827510D01*
X98022490Y-151994517D01*
X98213567Y-152133343D01*
X98312991Y-152184002D01*
X98424003Y-152240566D01*
X98424005Y-152240566D01*
X98424008Y-152240568D01*
X98544412Y-152279689D01*
X98648631Y-152313553D01*
X98881903Y-152350500D01*
X98881908Y-152350500D01*
X99118097Y-152350500D01*
X99351368Y-152313553D01*
X99575992Y-152240568D01*
X99786433Y-152133343D01*
X99977510Y-151994517D01*
X100144517Y-151827510D01*
X100283343Y-151636433D01*
X100390568Y-151425992D01*
X100463553Y-151201368D01*
X100500500Y-150968097D01*
X100500500Y-150731902D01*
X100463553Y-150498631D01*
X100390566Y-150274003D01*
X100283342Y-150063566D01*
X100273479Y-150049991D01*
X100187750Y-149931995D01*
X117599500Y-149931995D01*
X117599500Y-150168004D01*
X117599501Y-150168020D01*
X117630306Y-150402010D01*
X117691394Y-150629993D01*
X117781714Y-150848045D01*
X117781719Y-150848056D01*
X117851023Y-150968092D01*
X117899727Y-151052450D01*
X117899729Y-151052453D01*
X117899730Y-151052454D01*
X118043406Y-151239697D01*
X118043412Y-151239704D01*
X118210295Y-151406587D01*
X118210302Y-151406593D01*
X118235589Y-151425996D01*
X118397550Y-151550273D01*
X118528918Y-151626118D01*
X118601943Y-151668280D01*
X118601948Y-151668282D01*
X118601951Y-151668284D01*
X118820007Y-151758606D01*
X119047986Y-151819693D01*
X119281989Y-151850500D01*
X119281996Y-151850500D01*
X119518004Y-151850500D01*
X119518011Y-151850500D01*
X119752014Y-151819693D01*
X119979993Y-151758606D01*
X120198049Y-151668284D01*
X120402450Y-151550273D01*
X120589699Y-151406592D01*
X120756592Y-151239699D01*
X120900273Y-151052450D01*
X121018284Y-150848049D01*
X121108606Y-150629993D01*
X121169693Y-150402014D01*
X121200500Y-150168011D01*
X121200500Y-149931989D01*
X121169693Y-149697986D01*
X121108606Y-149470007D01*
X121018284Y-149251951D01*
X121018282Y-149251948D01*
X121018280Y-149251943D01*
X120976118Y-149178918D01*
X120900273Y-149047550D01*
X120756592Y-148860301D01*
X120756587Y-148860295D01*
X120589704Y-148693412D01*
X120589697Y-148693406D01*
X120402454Y-148549730D01*
X120402453Y-148549729D01*
X120402450Y-148549727D01*
X120320957Y-148502677D01*
X120198056Y-148431719D01*
X120198045Y-148431714D01*
X119979993Y-148341394D01*
X119752010Y-148280306D01*
X119518020Y-148249501D01*
X119518017Y-148249500D01*
X119518011Y-148249500D01*
X119281989Y-148249500D01*
X119281983Y-148249500D01*
X119281979Y-148249501D01*
X119047989Y-148280306D01*
X118820006Y-148341394D01*
X118601954Y-148431714D01*
X118601943Y-148431719D01*
X118397545Y-148549730D01*
X118210302Y-148693406D01*
X118210295Y-148693412D01*
X118043412Y-148860295D01*
X118043406Y-148860302D01*
X117899730Y-149047545D01*
X117781719Y-149251943D01*
X117781714Y-149251954D01*
X117691394Y-149470006D01*
X117630306Y-149697989D01*
X117599501Y-149931979D01*
X117599500Y-149931995D01*
X100187750Y-149931995D01*
X100144517Y-149872490D01*
X99977510Y-149705483D01*
X99786433Y-149566657D01*
X99575996Y-149459433D01*
X99351368Y-149386446D01*
X99118097Y-149349500D01*
X99118092Y-149349500D01*
X98881908Y-149349500D01*
X98881907Y-149349500D01*
X98850291Y-149354507D01*
X98780998Y-149345551D01*
X98743214Y-149319714D01*
X97686819Y-148263319D01*
X97653334Y-148201996D01*
X97650500Y-148175638D01*
X97650500Y-128374361D01*
X97670185Y-128307322D01*
X97686819Y-128286680D01*
X102299461Y-123674038D01*
X102299464Y-123674035D01*
X102398013Y-123526547D01*
X102450223Y-123400500D01*
X102465895Y-123362666D01*
X102500500Y-123188692D01*
X102500500Y-123011308D01*
X102500500Y-111451309D01*
X102499716Y-111447370D01*
X102487194Y-111384417D01*
X102486368Y-111380263D01*
X102485013Y-111373453D01*
X102465895Y-111277334D01*
X102417895Y-111161452D01*
X102405969Y-111132661D01*
X102398014Y-111113455D01*
X102375659Y-111079999D01*
X102299464Y-110965965D01*
X102174035Y-110840536D01*
X99936819Y-108603319D01*
X99903334Y-108541996D01*
X99900500Y-108515638D01*
X99900500Y-108437648D01*
X99868477Y-108235465D01*
X99822030Y-108092516D01*
X99805220Y-108040781D01*
X99805218Y-108040778D01*
X99805218Y-108040776D01*
X99762870Y-107957664D01*
X99712287Y-107858390D01*
X99700709Y-107842454D01*
X99591971Y-107692786D01*
X99447213Y-107548028D01*
X99281614Y-107427715D01*
X99224533Y-107398631D01*
X99188917Y-107380483D01*
X99138123Y-107332511D01*
X99121328Y-107264690D01*
X99143865Y-107198555D01*
X99188917Y-107159516D01*
X99281610Y-107112287D01*
X99332103Y-107075602D01*
X99447213Y-106991971D01*
X99447215Y-106991968D01*
X99447219Y-106991966D01*
X99591966Y-106847219D01*
X99591968Y-106847215D01*
X99591971Y-106847213D01*
X99683444Y-106721309D01*
X99712287Y-106681610D01*
X99805220Y-106499219D01*
X99868477Y-106304534D01*
X99900500Y-106102352D01*
X99900500Y-105897648D01*
X99868477Y-105695465D01*
X99805218Y-105500776D01*
X99748848Y-105390145D01*
X99712287Y-105318390D01*
X99697380Y-105297872D01*
X99591971Y-105152786D01*
X99447213Y-105008028D01*
X99281614Y-104887715D01*
X99275006Y-104884348D01*
X99188917Y-104840483D01*
X99138123Y-104792511D01*
X99121328Y-104724690D01*
X99143865Y-104658555D01*
X99188917Y-104619516D01*
X99281610Y-104572287D01*
X99302770Y-104556913D01*
X99447213Y-104451971D01*
X99447215Y-104451968D01*
X99447219Y-104451966D01*
X99591966Y-104307219D01*
X99591968Y-104307215D01*
X99591971Y-104307213D01*
X99712284Y-104141614D01*
X99712283Y-104141614D01*
X99712287Y-104141610D01*
X99765015Y-104038124D01*
X99812989Y-103987329D01*
X99880810Y-103970534D01*
X99946945Y-103993071D01*
X99990397Y-104047786D01*
X99999500Y-104094420D01*
X99999500Y-104581006D01*
X99999500Y-104718994D01*
X99999500Y-104718996D01*
X99999499Y-104718996D01*
X100026418Y-104854322D01*
X100026421Y-104854332D01*
X100079222Y-104981807D01*
X100155887Y-105096545D01*
X100155888Y-105096546D01*
X103762518Y-108703175D01*
X103796003Y-108764498D01*
X103792769Y-108829170D01*
X103786447Y-108848627D01*
X103786447Y-108848628D01*
X103749500Y-109081902D01*
X103749500Y-109318097D01*
X103786446Y-109551368D01*
X103859433Y-109775996D01*
X103922508Y-109899786D01*
X103966657Y-109986433D01*
X104105483Y-110177510D01*
X104272490Y-110344517D01*
X104463567Y-110483343D01*
X104562991Y-110534002D01*
X104674003Y-110590566D01*
X104674005Y-110590566D01*
X104674008Y-110590568D01*
X104794412Y-110629689D01*
X104898631Y-110663553D01*
X105131903Y-110700500D01*
X105131908Y-110700500D01*
X105368097Y-110700500D01*
X105601368Y-110663553D01*
X105825992Y-110590568D01*
X106036433Y-110483343D01*
X106227510Y-110344517D01*
X106394517Y-110177510D01*
X106533343Y-109986433D01*
X106640568Y-109775992D01*
X106713553Y-109551368D01*
X106721604Y-109500535D01*
X106750500Y-109318097D01*
X106750500Y-109081902D01*
X106713553Y-108848631D01*
X106640566Y-108624003D01*
X106533342Y-108413566D01*
X106394517Y-108222490D01*
X106324162Y-108152135D01*
X111349500Y-108152135D01*
X111349500Y-110247870D01*
X111349501Y-110247876D01*
X111355908Y-110307483D01*
X111406202Y-110442328D01*
X111406206Y-110442335D01*
X111492452Y-110557544D01*
X111492455Y-110557547D01*
X111607664Y-110643793D01*
X111607671Y-110643797D01*
X111742517Y-110694091D01*
X111742516Y-110694091D01*
X111749444Y-110694835D01*
X111802127Y-110700500D01*
X113897872Y-110700499D01*
X113957483Y-110694091D01*
X114092331Y-110643796D01*
X114207546Y-110557546D01*
X114293796Y-110442331D01*
X114344091Y-110307483D01*
X114350500Y-110247873D01*
X114350499Y-108152128D01*
X114344091Y-108092517D01*
X114330278Y-108055483D01*
X114293797Y-107957671D01*
X114293793Y-107957664D01*
X114207547Y-107842455D01*
X114207544Y-107842452D01*
X114092335Y-107756206D01*
X114092328Y-107756202D01*
X113957482Y-107705908D01*
X113957483Y-107705908D01*
X113897883Y-107699501D01*
X113897881Y-107699500D01*
X113897873Y-107699500D01*
X113897864Y-107699500D01*
X111802129Y-107699500D01*
X111802123Y-107699501D01*
X111742516Y-107705908D01*
X111607671Y-107756202D01*
X111607664Y-107756206D01*
X111492455Y-107842452D01*
X111492452Y-107842455D01*
X111406206Y-107957664D01*
X111406202Y-107957671D01*
X111355908Y-108092517D01*
X111354957Y-108101368D01*
X111349501Y-108152123D01*
X111349500Y-108152135D01*
X106324162Y-108152135D01*
X106227510Y-108055483D01*
X106036433Y-107916657D01*
X105825996Y-107809433D01*
X105601368Y-107736446D01*
X105368097Y-107699500D01*
X105368092Y-107699500D01*
X105131908Y-107699500D01*
X105131903Y-107699500D01*
X104898628Y-107736447D01*
X104898627Y-107736447D01*
X104879170Y-107742769D01*
X104809329Y-107744762D01*
X104753175Y-107712518D01*
X101436819Y-104396162D01*
X101403334Y-104334839D01*
X101400500Y-104308481D01*
X101400500Y-99081918D01*
X101402313Y-99075743D01*
X101401132Y-99069418D01*
X101412036Y-99042628D01*
X101420185Y-99014879D01*
X101425653Y-99009176D01*
X101427474Y-99004704D01*
X101448467Y-98985387D01*
X101451809Y-98981902D01*
X114799500Y-98981902D01*
X114799500Y-99218097D01*
X114836446Y-99451368D01*
X114909433Y-99675996D01*
X115016657Y-99886433D01*
X115155483Y-100077510D01*
X115322490Y-100244517D01*
X115513567Y-100383343D01*
X115612991Y-100434002D01*
X115724003Y-100490566D01*
X115724005Y-100490566D01*
X115724008Y-100490568D01*
X115844412Y-100529689D01*
X115948631Y-100563553D01*
X116181903Y-100600500D01*
X116181908Y-100600500D01*
X116418097Y-100600500D01*
X116651368Y-100563553D01*
X116875992Y-100490568D01*
X117086433Y-100383343D01*
X117277510Y-100244517D01*
X117444517Y-100077510D01*
X117583343Y-99886433D01*
X117690568Y-99675992D01*
X117763553Y-99451368D01*
X117783410Y-99325996D01*
X117800500Y-99218097D01*
X117800500Y-98981902D01*
X117763553Y-98748631D01*
X117690566Y-98524003D01*
X117583342Y-98313566D01*
X117444517Y-98122490D01*
X117277510Y-97955483D01*
X117086433Y-97816657D01*
X117055453Y-97800872D01*
X116875996Y-97709433D01*
X116651368Y-97636446D01*
X116418097Y-97599500D01*
X116418092Y-97599500D01*
X116181908Y-97599500D01*
X116181903Y-97599500D01*
X115948631Y-97636446D01*
X115724003Y-97709433D01*
X115513566Y-97816657D01*
X115404550Y-97895862D01*
X115322490Y-97955483D01*
X115322488Y-97955485D01*
X115322487Y-97955485D01*
X115155485Y-98122487D01*
X115155485Y-98122488D01*
X115155483Y-98122490D01*
X115118053Y-98174008D01*
X115016657Y-98313566D01*
X114909433Y-98524003D01*
X114836446Y-98748631D01*
X114799500Y-98981902D01*
X101451809Y-98981902D01*
X101453158Y-98980496D01*
X101454348Y-98979658D01*
X101578718Y-98896558D01*
X101721558Y-98753718D01*
X101833786Y-98585756D01*
X101911091Y-98399127D01*
X101950500Y-98201003D01*
X101950500Y-97998997D01*
X101911091Y-97800873D01*
X101842983Y-97636447D01*
X101833787Y-97614246D01*
X101823934Y-97599500D01*
X101780094Y-97533889D01*
X101759217Y-97467214D01*
X101777701Y-97399834D01*
X101780078Y-97396134D01*
X101833786Y-97315756D01*
X101911091Y-97129127D01*
X101950500Y-96931003D01*
X101950500Y-96728997D01*
X101911091Y-96530873D01*
X101877451Y-96449661D01*
X101869983Y-96380194D01*
X101889592Y-96335144D01*
X101889101Y-96334876D01*
X101892102Y-96329379D01*
X101892748Y-96327896D01*
X101893352Y-96327089D01*
X101943597Y-96192376D01*
X101943598Y-96192372D01*
X101949999Y-96132844D01*
X101950000Y-96132827D01*
X101950000Y-95810000D01*
X101065866Y-95810000D01*
X101041674Y-95807617D01*
X101026004Y-95804500D01*
X101026003Y-95804500D01*
X100985830Y-95804500D01*
X101000075Y-95790255D01*
X101049444Y-95704745D01*
X101075000Y-95609370D01*
X101075000Y-95510630D01*
X101049444Y-95415255D01*
X101000075Y-95329745D01*
X100980330Y-95310000D01*
X101950000Y-95310000D01*
X101950000Y-94987172D01*
X101949999Y-94987155D01*
X101943598Y-94927627D01*
X101943596Y-94927620D01*
X101893354Y-94792913D01*
X101893350Y-94792906D01*
X101807190Y-94677812D01*
X101807187Y-94677809D01*
X101692093Y-94591649D01*
X101692086Y-94591645D01*
X101557379Y-94541403D01*
X101557372Y-94541401D01*
X101497844Y-94535000D01*
X100950000Y-94535000D01*
X100950000Y-95279670D01*
X100930255Y-95259925D01*
X100844745Y-95210556D01*
X100749370Y-95185000D01*
X100650630Y-95185000D01*
X100555255Y-95210556D01*
X100469745Y-95259925D01*
X100450000Y-95279670D01*
X100450000Y-94535000D01*
X99902155Y-94535000D01*
X99842627Y-94541401D01*
X99842620Y-94541403D01*
X99707913Y-94591645D01*
X99707906Y-94591649D01*
X99592812Y-94677809D01*
X99592809Y-94677812D01*
X99506649Y-94792906D01*
X99506645Y-94792913D01*
X99456403Y-94927620D01*
X99456401Y-94927627D01*
X99450000Y-94987155D01*
X99450000Y-95310000D01*
X100419670Y-95310000D01*
X100399925Y-95329745D01*
X100350556Y-95415255D01*
X100325000Y-95510630D01*
X100325000Y-95609370D01*
X100350556Y-95704745D01*
X100399925Y-95790255D01*
X100414170Y-95804500D01*
X100373997Y-95804500D01*
X100373996Y-95804500D01*
X100358326Y-95807617D01*
X100334134Y-95810000D01*
X99450000Y-95810000D01*
X99450000Y-96132844D01*
X99456401Y-96192372D01*
X99456403Y-96192379D01*
X99506645Y-96327086D01*
X99507251Y-96327895D01*
X99507604Y-96328841D01*
X99510897Y-96334872D01*
X99510030Y-96335345D01*
X99531670Y-96393359D01*
X99522547Y-96449661D01*
X99488910Y-96530868D01*
X99488907Y-96530880D01*
X99449500Y-96728992D01*
X99449500Y-96931007D01*
X99488907Y-97129119D01*
X99488909Y-97129127D01*
X99566213Y-97315755D01*
X99619904Y-97396109D01*
X99640782Y-97462787D01*
X99622297Y-97530167D01*
X99619904Y-97533891D01*
X99566213Y-97614244D01*
X99488909Y-97800872D01*
X99488907Y-97800880D01*
X99449500Y-97998992D01*
X99449500Y-98201007D01*
X99488907Y-98399119D01*
X99488909Y-98399127D01*
X99566212Y-98585752D01*
X99566217Y-98585762D01*
X99678441Y-98753718D01*
X99821279Y-98896556D01*
X99821282Y-98896558D01*
X99944391Y-98978816D01*
X99989196Y-99032427D01*
X99999500Y-99081918D01*
X99999500Y-102825579D01*
X99979815Y-102892618D01*
X99927011Y-102938373D01*
X99857853Y-102948317D01*
X99794297Y-102919292D01*
X99765015Y-102881874D01*
X99733050Y-102819140D01*
X99712287Y-102778390D01*
X99678913Y-102732454D01*
X99591971Y-102612786D01*
X99447213Y-102468028D01*
X99281613Y-102347715D01*
X99281612Y-102347714D01*
X99281610Y-102347713D01*
X99221898Y-102317288D01*
X99099223Y-102254781D01*
X98904534Y-102191522D01*
X98729995Y-102163878D01*
X98702352Y-102159500D01*
X98497648Y-102159500D01*
X98473329Y-102163351D01*
X98295465Y-102191522D01*
X98100776Y-102254781D01*
X97918386Y-102347715D01*
X97752786Y-102468028D01*
X97608028Y-102612786D01*
X97487715Y-102778386D01*
X97394781Y-102960776D01*
X97331522Y-103155465D01*
X97299500Y-103357648D01*
X97299500Y-103435637D01*
X97279815Y-103502676D01*
X97263181Y-103523318D01*
X94550540Y-106235958D01*
X94550539Y-106235959D01*
X94519432Y-106282515D01*
X94516805Y-106286447D01*
X94451987Y-106383453D01*
X94425246Y-106448012D01*
X94422396Y-106454890D01*
X94422396Y-106454892D01*
X94384105Y-106547333D01*
X94384103Y-106547341D01*
X94353844Y-106699462D01*
X94353845Y-106699463D01*
X94349500Y-106721308D01*
X94349500Y-116545638D01*
X94329815Y-116612677D01*
X94313181Y-116633319D01*
X92461929Y-118484570D01*
X92400606Y-118518055D01*
X92330914Y-118513071D01*
X92274981Y-118471199D01*
X92251775Y-118416287D01*
X92248477Y-118395465D01*
X92186295Y-118204091D01*
X92185220Y-118200781D01*
X92185218Y-118200778D01*
X92185218Y-118200776D01*
X92127061Y-118086638D01*
X92092287Y-118018390D01*
X92047864Y-117957246D01*
X91971971Y-117852786D01*
X91827213Y-117708028D01*
X91661614Y-117587715D01*
X91629413Y-117571308D01*
X91568917Y-117540483D01*
X91518123Y-117492511D01*
X91501328Y-117424690D01*
X91523865Y-117358555D01*
X91568917Y-117319516D01*
X91661610Y-117272287D01*
X91710959Y-117236433D01*
X91827213Y-117151971D01*
X91827215Y-117151968D01*
X91827219Y-117151966D01*
X91971966Y-117007219D01*
X91971968Y-117007215D01*
X91971971Y-117007213D01*
X92026668Y-116931927D01*
X92092287Y-116841610D01*
X92185220Y-116659219D01*
X92248477Y-116464534D01*
X92280500Y-116262352D01*
X92280500Y-116057648D01*
X92248477Y-115855466D01*
X92185220Y-115660781D01*
X92185218Y-115660778D01*
X92185218Y-115660776D01*
X92151503Y-115594607D01*
X92092287Y-115478390D01*
X92058955Y-115432512D01*
X91971971Y-115312786D01*
X91827213Y-115168028D01*
X91661611Y-115047713D01*
X91568369Y-115000203D01*
X91517574Y-114952229D01*
X91500779Y-114884407D01*
X91523317Y-114818273D01*
X91568371Y-114779234D01*
X91661346Y-114731861D01*
X91661347Y-114731861D01*
X91705921Y-114699474D01*
X91026447Y-114020000D01*
X91032661Y-114020000D01*
X91134394Y-113992741D01*
X91225606Y-113940080D01*
X91300080Y-113865606D01*
X91352741Y-113774394D01*
X91380000Y-113672661D01*
X91380000Y-113666447D01*
X92059474Y-114345921D01*
X92091859Y-114301349D01*
X92184755Y-114119031D01*
X92247990Y-113924417D01*
X92280000Y-113722317D01*
X92280000Y-113517682D01*
X92247990Y-113315582D01*
X92184755Y-113120968D01*
X92091859Y-112938650D01*
X92059474Y-112894077D01*
X92059474Y-112894076D01*
X91380000Y-113573551D01*
X91380000Y-113567339D01*
X91352741Y-113465606D01*
X91300080Y-113374394D01*
X91225606Y-113299920D01*
X91134394Y-113247259D01*
X91032661Y-113220000D01*
X91026446Y-113220000D01*
X91705922Y-112540524D01*
X91705921Y-112540523D01*
X91661359Y-112508147D01*
X91661350Y-112508141D01*
X91567819Y-112460485D01*
X91517023Y-112412511D01*
X91500228Y-112344690D01*
X91522765Y-112278555D01*
X91567820Y-112239515D01*
X91661346Y-112191861D01*
X91661347Y-112191861D01*
X91705921Y-112159474D01*
X91026447Y-111480000D01*
X91032661Y-111480000D01*
X91134394Y-111452741D01*
X91225606Y-111400080D01*
X91300080Y-111325606D01*
X91352741Y-111234394D01*
X91380000Y-111132661D01*
X91380000Y-111126447D01*
X92059474Y-111805921D01*
X92091859Y-111761349D01*
X92184755Y-111579031D01*
X92247990Y-111384417D01*
X92280000Y-111182317D01*
X92280000Y-110977682D01*
X92247990Y-110775582D01*
X92184755Y-110580968D01*
X92091859Y-110398650D01*
X92059474Y-110354077D01*
X92059474Y-110354076D01*
X91380000Y-111033551D01*
X91380000Y-111027339D01*
X91352741Y-110925606D01*
X91300080Y-110834394D01*
X91225606Y-110759920D01*
X91134394Y-110707259D01*
X91032661Y-110680000D01*
X91026446Y-110680000D01*
X91705922Y-110000524D01*
X91705921Y-110000523D01*
X91661359Y-109968147D01*
X91661350Y-109968141D01*
X91568369Y-109920765D01*
X91517573Y-109872790D01*
X91500778Y-109804969D01*
X91523315Y-109738835D01*
X91568370Y-109699795D01*
X91661610Y-109652287D01*
X91711144Y-109616298D01*
X91827213Y-109531971D01*
X91827215Y-109531968D01*
X91827219Y-109531966D01*
X91971966Y-109387219D01*
X91971968Y-109387215D01*
X91971971Y-109387213D01*
X92073879Y-109246946D01*
X92092287Y-109221610D01*
X92185220Y-109039219D01*
X92248477Y-108844534D01*
X92280500Y-108642352D01*
X92280500Y-108437648D01*
X92248477Y-108235466D01*
X92185220Y-108040781D01*
X92185218Y-108040778D01*
X92185218Y-108040776D01*
X92142870Y-107957664D01*
X92092287Y-107858390D01*
X92080709Y-107842454D01*
X91971971Y-107692786D01*
X91827213Y-107548028D01*
X91661614Y-107427715D01*
X91604533Y-107398631D01*
X91568917Y-107380483D01*
X91518123Y-107332511D01*
X91501328Y-107264690D01*
X91523865Y-107198555D01*
X91568917Y-107159516D01*
X91661610Y-107112287D01*
X91712103Y-107075602D01*
X91827213Y-106991971D01*
X91827215Y-106991968D01*
X91827219Y-106991966D01*
X91971966Y-106847219D01*
X91971968Y-106847215D01*
X91971971Y-106847213D01*
X92063444Y-106721309D01*
X92092287Y-106681610D01*
X92185220Y-106499219D01*
X92248477Y-106304534D01*
X92280500Y-106102352D01*
X92280500Y-105897648D01*
X92248477Y-105695465D01*
X92185218Y-105500776D01*
X92128848Y-105390145D01*
X92092287Y-105318390D01*
X92077380Y-105297872D01*
X91971971Y-105152786D01*
X91827219Y-105008034D01*
X91750130Y-104952026D01*
X91733547Y-104939978D01*
X91690882Y-104884649D01*
X91684903Y-104815036D01*
X91717508Y-104753240D01*
X91767426Y-104721955D01*
X91849334Y-104694814D01*
X91998656Y-104602712D01*
X92122712Y-104478656D01*
X92214814Y-104329334D01*
X92269999Y-104162797D01*
X92280500Y-104060009D01*
X92280499Y-102859992D01*
X92279240Y-102847671D01*
X92269999Y-102757203D01*
X92269998Y-102757199D01*
X92233218Y-102646206D01*
X92214814Y-102590666D01*
X92122712Y-102441344D01*
X91998656Y-102317288D01*
X91849334Y-102225186D01*
X91682797Y-102170001D01*
X91682795Y-102170000D01*
X91580010Y-102159500D01*
X90379998Y-102159500D01*
X90379981Y-102159501D01*
X90277203Y-102170000D01*
X90277200Y-102170001D01*
X90110668Y-102225185D01*
X90110663Y-102225187D01*
X89961342Y-102317289D01*
X89837289Y-102441342D01*
X89800741Y-102500597D01*
X89748793Y-102547321D01*
X89695202Y-102559500D01*
X89651304Y-102559500D01*
X89477339Y-102594103D01*
X89477323Y-102594108D01*
X89361453Y-102642102D01*
X89361454Y-102642103D01*
X89313451Y-102661987D01*
X89170956Y-102757198D01*
X89170957Y-102757199D01*
X89165974Y-102760528D01*
X89165962Y-102760538D01*
X87312180Y-104614319D01*
X87250857Y-104647804D01*
X87181165Y-104642820D01*
X87125232Y-104600948D01*
X87100815Y-104535484D01*
X87100499Y-104526638D01*
X87100499Y-101202129D01*
X87100498Y-101202123D01*
X87100497Y-101202116D01*
X87094091Y-101142517D01*
X87086027Y-101120897D01*
X87043797Y-101007671D01*
X87043793Y-101007664D01*
X86957547Y-100892455D01*
X86957544Y-100892452D01*
X86842335Y-100806206D01*
X86842328Y-100806202D01*
X86707482Y-100755908D01*
X86707483Y-100755908D01*
X86647883Y-100749501D01*
X86647881Y-100749500D01*
X86647873Y-100749500D01*
X86647864Y-100749500D01*
X84552129Y-100749500D01*
X84552123Y-100749501D01*
X84492516Y-100755908D01*
X84357671Y-100806202D01*
X84357664Y-100806206D01*
X84242455Y-100892452D01*
X84242452Y-100892455D01*
X84156206Y-101007664D01*
X84156202Y-101007671D01*
X84105908Y-101142517D01*
X84099501Y-101202116D01*
X84099501Y-101202123D01*
X84099500Y-101202135D01*
X84099500Y-105297870D01*
X84099501Y-105297876D01*
X84105908Y-105357483D01*
X84156202Y-105492328D01*
X84156206Y-105492335D01*
X84242452Y-105607544D01*
X84242455Y-105607547D01*
X84357664Y-105693793D01*
X84357671Y-105693797D01*
X84492517Y-105744091D01*
X84492516Y-105744091D01*
X84499444Y-105744835D01*
X84552127Y-105750500D01*
X86525500Y-105750499D01*
X86592539Y-105770184D01*
X86638294Y-105822987D01*
X86649500Y-105874499D01*
X86649500Y-107475638D01*
X86629815Y-107542677D01*
X86613181Y-107563319D01*
X84913319Y-109263181D01*
X84851996Y-109296666D01*
X84825638Y-109299500D01*
X80130568Y-109299500D01*
X80063529Y-109279815D01*
X80017774Y-109227011D01*
X80007830Y-109157853D01*
X80036855Y-109094297D01*
X80074273Y-109065015D01*
X80136433Y-109033343D01*
X80327510Y-108894517D01*
X80494517Y-108727510D01*
X80633343Y-108536433D01*
X80740568Y-108325992D01*
X80813553Y-108101368D01*
X80820820Y-108055485D01*
X80850500Y-107868097D01*
X80850500Y-107631902D01*
X80813553Y-107398631D01*
X80748544Y-107198555D01*
X80740568Y-107174008D01*
X80740566Y-107174005D01*
X80740566Y-107174003D01*
X80651097Y-106998412D01*
X80633343Y-106963567D01*
X80494517Y-106772490D01*
X80327510Y-106605483D01*
X80136433Y-106466657D01*
X80099840Y-106448012D01*
X79925996Y-106359433D01*
X79701368Y-106286446D01*
X79468097Y-106249500D01*
X79468092Y-106249500D01*
X77731908Y-106249500D01*
X77731903Y-106249500D01*
X77498631Y-106286446D01*
X77274003Y-106359433D01*
X77063566Y-106466657D01*
X76954550Y-106545862D01*
X76872490Y-106605483D01*
X76872488Y-106605485D01*
X76872487Y-106605485D01*
X76705485Y-106772487D01*
X76705485Y-106772488D01*
X76705483Y-106772490D01*
X76651193Y-106847213D01*
X76566657Y-106963566D01*
X76459433Y-107174003D01*
X76386446Y-107398631D01*
X76349500Y-107631902D01*
X76349500Y-107868097D01*
X76386446Y-108101368D01*
X76459433Y-108325996D01*
X76556061Y-108515638D01*
X76566657Y-108536433D01*
X76705483Y-108727510D01*
X76872490Y-108894517D01*
X77063567Y-109033343D01*
X77097132Y-109050445D01*
X77125727Y-109065015D01*
X77176523Y-109112990D01*
X77193318Y-109180811D01*
X77170781Y-109246946D01*
X77116066Y-109290397D01*
X77069432Y-109299500D01*
X76111304Y-109299500D01*
X75937339Y-109334103D01*
X75937323Y-109334108D01*
X75821453Y-109382102D01*
X75821454Y-109382103D01*
X75773454Y-109401986D01*
X75625965Y-109500535D01*
X75625961Y-109500538D01*
X73900540Y-111225958D01*
X73900537Y-111225961D01*
X73868907Y-111273299D01*
X73868901Y-111273308D01*
X73866212Y-111277334D01*
X73801987Y-111373453D01*
X73774172Y-111440606D01*
X73771373Y-111447361D01*
X73771369Y-111447370D01*
X73734105Y-111537333D01*
X73734103Y-111537341D01*
X73699500Y-111711303D01*
X73340500Y-111711303D01*
X73340500Y-103348543D01*
X75599499Y-103348543D01*
X75637947Y-103541829D01*
X75637950Y-103541839D01*
X75713364Y-103723907D01*
X75713371Y-103723920D01*
X75822860Y-103887781D01*
X75822863Y-103887785D01*
X75962214Y-104027136D01*
X75962218Y-104027139D01*
X76126079Y-104136628D01*
X76126092Y-104136635D01*
X76308160Y-104212049D01*
X76308165Y-104212051D01*
X76308169Y-104212051D01*
X76308170Y-104212052D01*
X76501456Y-104250500D01*
X76501459Y-104250500D01*
X76698543Y-104250500D01*
X76828582Y-104224632D01*
X76891835Y-104212051D01*
X77073914Y-104136632D01*
X77237782Y-104027139D01*
X77377139Y-103887782D01*
X77486632Y-103723914D01*
X77562051Y-103541835D01*
X77570373Y-103500000D01*
X77585402Y-103424446D01*
X77585402Y-103424445D01*
X77600499Y-103348545D01*
X77600500Y-103348543D01*
X77600500Y-103151456D01*
X77562052Y-102958170D01*
X77562051Y-102958169D01*
X77562051Y-102958165D01*
X77551186Y-102931934D01*
X77486635Y-102776092D01*
X77486628Y-102776079D01*
X77377139Y-102612218D01*
X77377136Y-102612214D01*
X77246869Y-102481947D01*
X78100000Y-102481947D01*
X78100000Y-103000000D01*
X79100000Y-103000000D01*
X79100000Y-103500000D01*
X78100000Y-103500000D01*
X78100000Y-104018052D01*
X78136934Y-104251247D01*
X78209897Y-104475802D01*
X78317085Y-104686171D01*
X78455866Y-104877186D01*
X78622813Y-105044133D01*
X78813828Y-105182914D01*
X79024195Y-105290102D01*
X79248744Y-105363063D01*
X79248750Y-105363065D01*
X79350000Y-105379101D01*
X79350000Y-104333012D01*
X79407007Y-104365925D01*
X79534174Y-104400000D01*
X79665826Y-104400000D01*
X79792993Y-104365925D01*
X79850000Y-104333012D01*
X79850000Y-105379100D01*
X79951249Y-105363065D01*
X79951255Y-105363063D01*
X80175804Y-105290102D01*
X80386171Y-105182914D01*
X80577186Y-105044133D01*
X80744133Y-104877186D01*
X80882914Y-104686171D01*
X80990102Y-104475802D01*
X81063065Y-104251247D01*
X81100000Y-104018052D01*
X81100000Y-103500000D01*
X80100000Y-103500000D01*
X80100000Y-103000000D01*
X81100000Y-103000000D01*
X81100000Y-102481947D01*
X81063065Y-102248752D01*
X80990102Y-102024197D01*
X80882914Y-101813828D01*
X80744133Y-101622813D01*
X80577186Y-101455866D01*
X80386171Y-101317085D01*
X80175802Y-101209897D01*
X79951247Y-101136934D01*
X79850000Y-101120897D01*
X79850000Y-102166988D01*
X79792993Y-102134075D01*
X79665826Y-102100000D01*
X79534174Y-102100000D01*
X79407007Y-102134075D01*
X79350000Y-102166988D01*
X79350000Y-101120897D01*
X79248752Y-101136934D01*
X79024197Y-101209897D01*
X78813828Y-101317085D01*
X78622813Y-101455866D01*
X78455866Y-101622813D01*
X78317085Y-101813828D01*
X78209897Y-102024197D01*
X78136934Y-102248752D01*
X78100000Y-102481947D01*
X77246869Y-102481947D01*
X77237785Y-102472863D01*
X77237781Y-102472860D01*
X77073920Y-102363371D01*
X77073907Y-102363364D01*
X76891839Y-102287950D01*
X76891829Y-102287947D01*
X76698543Y-102249500D01*
X76698541Y-102249500D01*
X76501459Y-102249500D01*
X76501457Y-102249500D01*
X76308170Y-102287947D01*
X76308160Y-102287950D01*
X76126092Y-102363364D01*
X76126079Y-102363371D01*
X75962218Y-102472860D01*
X75962214Y-102472863D01*
X75822863Y-102612214D01*
X75822860Y-102612218D01*
X75713371Y-102776079D01*
X75713364Y-102776092D01*
X75637950Y-102958160D01*
X75637947Y-102958170D01*
X75599500Y-103151456D01*
X75599500Y-103151459D01*
X75599500Y-103348541D01*
X75599500Y-103348543D01*
X75599499Y-103348543D01*
X73340500Y-103348543D01*
X73340500Y-98631902D01*
X76349500Y-98631902D01*
X76349500Y-98868097D01*
X76386446Y-99101368D01*
X76459433Y-99325996D01*
X76523314Y-99451368D01*
X76566657Y-99536433D01*
X76705483Y-99727510D01*
X76872490Y-99894517D01*
X77063567Y-100033343D01*
X77127085Y-100065707D01*
X77274003Y-100140566D01*
X77274005Y-100140566D01*
X77274008Y-100140568D01*
X77394412Y-100179689D01*
X77498631Y-100213553D01*
X77731903Y-100250500D01*
X77731908Y-100250500D01*
X79468097Y-100250500D01*
X79701368Y-100213553D01*
X79798819Y-100181889D01*
X79925992Y-100140568D01*
X80136433Y-100033343D01*
X80327510Y-99894517D01*
X80494517Y-99727510D01*
X80633343Y-99536433D01*
X80740568Y-99325992D01*
X80813553Y-99101368D01*
X80818613Y-99069418D01*
X80850500Y-98868097D01*
X80850500Y-98631902D01*
X80813553Y-98398631D01*
X80779689Y-98294412D01*
X80740568Y-98174008D01*
X80740566Y-98174005D01*
X80740566Y-98174003D01*
X80684002Y-98062991D01*
X80633343Y-97963567D01*
X80494517Y-97772490D01*
X80327510Y-97605483D01*
X80136433Y-97466657D01*
X80128838Y-97462787D01*
X79925996Y-97359433D01*
X79701368Y-97286446D01*
X79468097Y-97249500D01*
X79468092Y-97249500D01*
X77731908Y-97249500D01*
X77731903Y-97249500D01*
X77498631Y-97286446D01*
X77274003Y-97359433D01*
X77063566Y-97466657D01*
X76954550Y-97545862D01*
X76872490Y-97605483D01*
X76872488Y-97605485D01*
X76872487Y-97605485D01*
X76705485Y-97772487D01*
X76705485Y-97772488D01*
X76705483Y-97772490D01*
X76673394Y-97816657D01*
X76566657Y-97963566D01*
X76459433Y-98174003D01*
X76386446Y-98398631D01*
X76349500Y-98631902D01*
X73340500Y-98631902D01*
X73340500Y-80021577D01*
X82299500Y-80021577D01*
X82299500Y-80218422D01*
X82330290Y-80412826D01*
X82391117Y-80600029D01*
X82413794Y-80644534D01*
X82480476Y-80775405D01*
X82596172Y-80934646D01*
X82735354Y-81073828D01*
X82894595Y-81189524D01*
X82977455Y-81231743D01*
X83069970Y-81278882D01*
X83069972Y-81278882D01*
X83069975Y-81278884D01*
X83170317Y-81311487D01*
X83257173Y-81339709D01*
X83451578Y-81370500D01*
X83451583Y-81370500D01*
X83648422Y-81370500D01*
X83842826Y-81339709D01*
X83866656Y-81331966D01*
X84030025Y-81278884D01*
X84205405Y-81189524D01*
X84364646Y-81073828D01*
X84503828Y-80934646D01*
X84619524Y-80775405D01*
X84708884Y-80600025D01*
X84769709Y-80412826D01*
X84789164Y-80289991D01*
X84800500Y-80218422D01*
X84800500Y-80021577D01*
X84769709Y-79827173D01*
X84734633Y-79719222D01*
X84708884Y-79639975D01*
X84708882Y-79639972D01*
X84708882Y-79639970D01*
X84619523Y-79464594D01*
X84503828Y-79305354D01*
X84364646Y-79166172D01*
X84205405Y-79050476D01*
X84030029Y-78961117D01*
X83842826Y-78900290D01*
X83648422Y-78869500D01*
X83648417Y-78869500D01*
X83451583Y-78869500D01*
X83451578Y-78869500D01*
X83257173Y-78900290D01*
X83069970Y-78961117D01*
X82894594Y-79050476D01*
X82803741Y-79116485D01*
X82735354Y-79166172D01*
X82735352Y-79166174D01*
X82735351Y-79166174D01*
X82596174Y-79305351D01*
X82596174Y-79305352D01*
X82596172Y-79305354D01*
X82565163Y-79348034D01*
X82480476Y-79464594D01*
X82391117Y-79639970D01*
X82330290Y-79827173D01*
X82299500Y-80021577D01*
X73340500Y-80021577D01*
X73340500Y-57952135D01*
X73599500Y-57952135D01*
X73599500Y-59747870D01*
X73599501Y-59747876D01*
X73605908Y-59807483D01*
X73656202Y-59942328D01*
X73656206Y-59942335D01*
X73742452Y-60057544D01*
X73742455Y-60057547D01*
X73857664Y-60143793D01*
X73857671Y-60143797D01*
X73989082Y-60192810D01*
X74045016Y-60234681D01*
X74069433Y-60300145D01*
X74054582Y-60368418D01*
X74033431Y-60396673D01*
X73919889Y-60510215D01*
X73794951Y-60682179D01*
X73698444Y-60871585D01*
X73632753Y-61073760D01*
X73616003Y-61179515D01*
X73599500Y-61283713D01*
X73599500Y-61496287D01*
X73632754Y-61706243D01*
X73688688Y-61878390D01*
X73698444Y-61908414D01*
X73794951Y-62097820D01*
X73919890Y-62269786D01*
X74070213Y-62420109D01*
X74242182Y-62545050D01*
X74250946Y-62549516D01*
X74301742Y-62597491D01*
X74318536Y-62665312D01*
X74295998Y-62731447D01*
X74250946Y-62770484D01*
X74242182Y-62774949D01*
X74070213Y-62899890D01*
X73919890Y-63050213D01*
X73794951Y-63222179D01*
X73698444Y-63411585D01*
X73632753Y-63613760D01*
X73616003Y-63719515D01*
X73599500Y-63823713D01*
X73599500Y-64036287D01*
X73632754Y-64246243D01*
X73688688Y-64418390D01*
X73698444Y-64448414D01*
X73794951Y-64637820D01*
X73919890Y-64809786D01*
X74070213Y-64960109D01*
X74242182Y-65085050D01*
X74250946Y-65089516D01*
X74301742Y-65137491D01*
X74318536Y-65205312D01*
X74295998Y-65271447D01*
X74250946Y-65310484D01*
X74242182Y-65314949D01*
X74070213Y-65439890D01*
X73919890Y-65590213D01*
X73794951Y-65762179D01*
X73698444Y-65951585D01*
X73632753Y-66153760D01*
X73616003Y-66259515D01*
X73599500Y-66363713D01*
X73599500Y-66576287D01*
X73632754Y-66786243D01*
X73688688Y-66958390D01*
X73698444Y-66988414D01*
X73794951Y-67177820D01*
X73919890Y-67349786D01*
X74070213Y-67500109D01*
X74242182Y-67625050D01*
X74250946Y-67629516D01*
X74301742Y-67677491D01*
X74318536Y-67745312D01*
X74295998Y-67811447D01*
X74250946Y-67850484D01*
X74242182Y-67854949D01*
X74070213Y-67979890D01*
X73919890Y-68130213D01*
X73794951Y-68302179D01*
X73698444Y-68491585D01*
X73632753Y-68693760D01*
X73616003Y-68799515D01*
X73599500Y-68903713D01*
X73599500Y-69116287D01*
X73632754Y-69326243D01*
X73688688Y-69498390D01*
X73698444Y-69528414D01*
X73794951Y-69717820D01*
X73919890Y-69889786D01*
X74070213Y-70040109D01*
X74242182Y-70165050D01*
X74250946Y-70169516D01*
X74301742Y-70217491D01*
X74318536Y-70285312D01*
X74295998Y-70351447D01*
X74250946Y-70390484D01*
X74242182Y-70394949D01*
X74070213Y-70519890D01*
X73919890Y-70670213D01*
X73794951Y-70842179D01*
X73698444Y-71031585D01*
X73632753Y-71233760D01*
X73599500Y-71443713D01*
X73599500Y-71656287D01*
X73632754Y-71866243D01*
X73688688Y-72038390D01*
X73698444Y-72068414D01*
X73794951Y-72257820D01*
X73919890Y-72429786D01*
X74070213Y-72580109D01*
X74242182Y-72705050D01*
X74250946Y-72709516D01*
X74301742Y-72757491D01*
X74318536Y-72825312D01*
X74295998Y-72891447D01*
X74250946Y-72930484D01*
X74242182Y-72934949D01*
X74070213Y-73059890D01*
X73919890Y-73210213D01*
X73794951Y-73382179D01*
X73698444Y-73571585D01*
X73632753Y-73773760D01*
X73603335Y-73959500D01*
X73599500Y-73983713D01*
X73599500Y-74196287D01*
X73632754Y-74406243D01*
X73690704Y-74584595D01*
X73698444Y-74608414D01*
X73794951Y-74797820D01*
X73919890Y-74969786D01*
X74070213Y-75120109D01*
X74242182Y-75245050D01*
X74250946Y-75249516D01*
X74301742Y-75297491D01*
X74318536Y-75365312D01*
X74295998Y-75431447D01*
X74250946Y-75470484D01*
X74242182Y-75474949D01*
X74070213Y-75599890D01*
X73919890Y-75750213D01*
X73794951Y-75922179D01*
X73698444Y-76111585D01*
X73632753Y-76313760D01*
X73604760Y-76490500D01*
X73599500Y-76523713D01*
X73599500Y-76736287D01*
X73606108Y-76778005D01*
X73630831Y-76934106D01*
X73632754Y-76946243D01*
X73688688Y-77118390D01*
X73698444Y-77148414D01*
X73794951Y-77337820D01*
X73919890Y-77509786D01*
X74070213Y-77660109D01*
X74242179Y-77785048D01*
X74242181Y-77785049D01*
X74242184Y-77785051D01*
X74431588Y-77881557D01*
X74633757Y-77947246D01*
X74843713Y-77980500D01*
X74843714Y-77980500D01*
X75056286Y-77980500D01*
X75056287Y-77980500D01*
X75266243Y-77947246D01*
X75468412Y-77881557D01*
X75657816Y-77785051D01*
X75778117Y-77697648D01*
X75829786Y-77660109D01*
X75829788Y-77660106D01*
X75829792Y-77660104D01*
X75980104Y-77509792D01*
X75980106Y-77509788D01*
X75980109Y-77509786D01*
X76105048Y-77337820D01*
X76105047Y-77337820D01*
X76105051Y-77337816D01*
X76201557Y-77148412D01*
X76267246Y-76946243D01*
X76300500Y-76736287D01*
X76300500Y-76523713D01*
X76267246Y-76313757D01*
X76201557Y-76111588D01*
X76105051Y-75922184D01*
X76105049Y-75922181D01*
X76105048Y-75922179D01*
X75980109Y-75750213D01*
X75829786Y-75599890D01*
X75657820Y-75474951D01*
X75657115Y-75474591D01*
X75649054Y-75470485D01*
X75598259Y-75422512D01*
X75581463Y-75354692D01*
X75603999Y-75288556D01*
X75649054Y-75249515D01*
X75657816Y-75245051D01*
X75679789Y-75229086D01*
X75800237Y-75141577D01*
X82299500Y-75141577D01*
X82299500Y-75338422D01*
X82330290Y-75532826D01*
X82391117Y-75720029D01*
X82473537Y-75881786D01*
X82480476Y-75895405D01*
X82596172Y-76054646D01*
X82735354Y-76193828D01*
X82894595Y-76309524D01*
X82914355Y-76319592D01*
X83069970Y-76398882D01*
X83069972Y-76398882D01*
X83069975Y-76398884D01*
X83170317Y-76431487D01*
X83257173Y-76459709D01*
X83451578Y-76490500D01*
X83451583Y-76490500D01*
X83648422Y-76490500D01*
X83842826Y-76459709D01*
X84030025Y-76398884D01*
X84205405Y-76309524D01*
X84364646Y-76193828D01*
X84503828Y-76054646D01*
X84619524Y-75895405D01*
X84708884Y-75720025D01*
X84769709Y-75532826D01*
X84774020Y-75505606D01*
X84800500Y-75338422D01*
X84800500Y-75141577D01*
X84769709Y-74947173D01*
X84741384Y-74860000D01*
X84708884Y-74759975D01*
X84708882Y-74759972D01*
X84708882Y-74759970D01*
X84619523Y-74584594D01*
X84615200Y-74578644D01*
X84503828Y-74425354D01*
X84364646Y-74286172D01*
X84205405Y-74170476D01*
X84160730Y-74147713D01*
X84030029Y-74081117D01*
X83842826Y-74020290D01*
X83648422Y-73989500D01*
X83648417Y-73989500D01*
X83451583Y-73989500D01*
X83451578Y-73989500D01*
X83257173Y-74020290D01*
X83069970Y-74081117D01*
X82894594Y-74170476D01*
X82859069Y-74196287D01*
X82735354Y-74286172D01*
X82735352Y-74286174D01*
X82735351Y-74286174D01*
X82596174Y-74425351D01*
X82596174Y-74425352D01*
X82596172Y-74425354D01*
X82546485Y-74493741D01*
X82480476Y-74584594D01*
X82391117Y-74759970D01*
X82330290Y-74947173D01*
X82299500Y-75141577D01*
X75800237Y-75141577D01*
X75829786Y-75120109D01*
X75829788Y-75120106D01*
X75829792Y-75120104D01*
X75980104Y-74969792D01*
X75980106Y-74969788D01*
X75980109Y-74969786D01*
X76105048Y-74797820D01*
X76105047Y-74797820D01*
X76105051Y-74797816D01*
X76201557Y-74608412D01*
X76267246Y-74406243D01*
X76300500Y-74196287D01*
X76300500Y-73983713D01*
X76267246Y-73773757D01*
X76201557Y-73571588D01*
X76105051Y-73382184D01*
X76105049Y-73382181D01*
X76105048Y-73382179D01*
X75980109Y-73210213D01*
X75829786Y-73059890D01*
X75657820Y-72934951D01*
X75657115Y-72934591D01*
X75649054Y-72930485D01*
X75598259Y-72882512D01*
X75581463Y-72814692D01*
X75603999Y-72748556D01*
X75649054Y-72709515D01*
X75657816Y-72705051D01*
X75679789Y-72689086D01*
X75829786Y-72580109D01*
X75829788Y-72580106D01*
X75829792Y-72580104D01*
X75980104Y-72429792D01*
X75980106Y-72429788D01*
X75980109Y-72429786D01*
X76105048Y-72257820D01*
X76105047Y-72257820D01*
X76105051Y-72257816D01*
X76201557Y-72068412D01*
X76267246Y-71866243D01*
X76300500Y-71656287D01*
X76300500Y-71443713D01*
X76267246Y-71233757D01*
X76201557Y-71031588D01*
X76105051Y-70842184D01*
X76105049Y-70842181D01*
X76105048Y-70842179D01*
X75980109Y-70670213D01*
X75829786Y-70519890D01*
X75657820Y-70394951D01*
X75657115Y-70394591D01*
X75649054Y-70390485D01*
X75598259Y-70342512D01*
X75581463Y-70274692D01*
X75603999Y-70208556D01*
X75649054Y-70169515D01*
X75657816Y-70165051D01*
X75778117Y-70077648D01*
X75829786Y-70040109D01*
X75829788Y-70040106D01*
X75829792Y-70040104D01*
X75980104Y-69889792D01*
X75980106Y-69889788D01*
X75980109Y-69889786D01*
X76105048Y-69717820D01*
X76105047Y-69717820D01*
X76105051Y-69717816D01*
X76201557Y-69528412D01*
X76267246Y-69326243D01*
X76300500Y-69116287D01*
X76300500Y-68903713D01*
X76267246Y-68693757D01*
X76201557Y-68491588D01*
X76105051Y-68302184D01*
X76105049Y-68302181D01*
X76105048Y-68302179D01*
X75980109Y-68130213D01*
X75829786Y-67979890D01*
X75657820Y-67854951D01*
X75657115Y-67854591D01*
X75649054Y-67850485D01*
X75598259Y-67802512D01*
X75581463Y-67734692D01*
X75603999Y-67668556D01*
X75649054Y-67629515D01*
X75657816Y-67625051D01*
X75778117Y-67537648D01*
X75829786Y-67500109D01*
X75829788Y-67500106D01*
X75829792Y-67500104D01*
X75980104Y-67349792D01*
X75980106Y-67349788D01*
X75980109Y-67349786D01*
X76105048Y-67177820D01*
X76105047Y-67177820D01*
X76105051Y-67177816D01*
X76201557Y-66988412D01*
X76267246Y-66786243D01*
X76300500Y-66576287D01*
X76300500Y-66363713D01*
X76267246Y-66153757D01*
X76201557Y-65951588D01*
X76105051Y-65762184D01*
X76105049Y-65762181D01*
X76105048Y-65762179D01*
X75980109Y-65590213D01*
X75829786Y-65439890D01*
X75657820Y-65314951D01*
X75657115Y-65314591D01*
X75649054Y-65310485D01*
X75598259Y-65262512D01*
X75581463Y-65194692D01*
X75603999Y-65128556D01*
X75649054Y-65089515D01*
X75657816Y-65085051D01*
X75778117Y-64997648D01*
X75829786Y-64960109D01*
X75829788Y-64960106D01*
X75829792Y-64960104D01*
X75980104Y-64809792D01*
X75980106Y-64809788D01*
X75980109Y-64809786D01*
X76105048Y-64637820D01*
X76105047Y-64637820D01*
X76105051Y-64637816D01*
X76201557Y-64448412D01*
X76267246Y-64246243D01*
X76300500Y-64036287D01*
X76300500Y-63823713D01*
X76267246Y-63613757D01*
X76201557Y-63411588D01*
X76105051Y-63222184D01*
X76105049Y-63222181D01*
X76105048Y-63222179D01*
X75980109Y-63050213D01*
X75829786Y-62899890D01*
X75657820Y-62774951D01*
X75657115Y-62774591D01*
X75649054Y-62770485D01*
X75598259Y-62722512D01*
X75581463Y-62654692D01*
X75603999Y-62588556D01*
X75649054Y-62549515D01*
X75657816Y-62545051D01*
X75778117Y-62457648D01*
X75829786Y-62420109D01*
X75829788Y-62420106D01*
X75829792Y-62420104D01*
X75980104Y-62269792D01*
X75980106Y-62269788D01*
X75980109Y-62269786D01*
X76105048Y-62097820D01*
X76105047Y-62097820D01*
X76105051Y-62097816D01*
X76201557Y-61908412D01*
X76267246Y-61706243D01*
X76300500Y-61496287D01*
X76300500Y-61283713D01*
X76267246Y-61073757D01*
X76201557Y-60871588D01*
X76105051Y-60682184D01*
X76105049Y-60682181D01*
X76105048Y-60682179D01*
X75980109Y-60510213D01*
X75866569Y-60396673D01*
X75833084Y-60335350D01*
X75838068Y-60265658D01*
X75879940Y-60209725D01*
X75910915Y-60192810D01*
X76042331Y-60143796D01*
X76157546Y-60057546D01*
X76243796Y-59942331D01*
X76294091Y-59807483D01*
X76300500Y-59747873D01*
X76300499Y-57952128D01*
X76294091Y-57892517D01*
X76269341Y-57826160D01*
X76243797Y-57757671D01*
X76243793Y-57757664D01*
X76157547Y-57642455D01*
X76157544Y-57642452D01*
X76042335Y-57556206D01*
X76042328Y-57556202D01*
X75907482Y-57505908D01*
X75907483Y-57505908D01*
X75847883Y-57499501D01*
X75847881Y-57499500D01*
X75847873Y-57499500D01*
X75847864Y-57499500D01*
X74052129Y-57499500D01*
X74052123Y-57499501D01*
X73992516Y-57505908D01*
X73857671Y-57556202D01*
X73857664Y-57556206D01*
X73742455Y-57642452D01*
X73742452Y-57642455D01*
X73656206Y-57757664D01*
X73656202Y-57757671D01*
X73605908Y-57892517D01*
X73599501Y-57952116D01*
X73599501Y-57952123D01*
X73599500Y-57952135D01*
X73340500Y-57952135D01*
X73340500Y-56879983D01*
X93584500Y-56879983D01*
X93584500Y-58080001D01*
X93584501Y-58080018D01*
X93595000Y-58182796D01*
X93595001Y-58182799D01*
X93650185Y-58349331D01*
X93650186Y-58349334D01*
X93742288Y-58498656D01*
X93866344Y-58622712D01*
X94015666Y-58714814D01*
X94097570Y-58741954D01*
X94155015Y-58781727D01*
X94181838Y-58846243D01*
X94169523Y-58915018D01*
X94131451Y-58959978D01*
X94037787Y-59028028D01*
X94037782Y-59028032D01*
X93893028Y-59172786D01*
X93772715Y-59338386D01*
X93679781Y-59520776D01*
X93616522Y-59715465D01*
X93584500Y-59917648D01*
X93584500Y-60122351D01*
X93616522Y-60324534D01*
X93679781Y-60519223D01*
X93743691Y-60644653D01*
X93762812Y-60682179D01*
X93772715Y-60701613D01*
X93893028Y-60867213D01*
X94037786Y-61011971D01*
X94192749Y-61124556D01*
X94203390Y-61132287D01*
X94294840Y-61178883D01*
X94296080Y-61179515D01*
X94346876Y-61227490D01*
X94363671Y-61295311D01*
X94341134Y-61361446D01*
X94296080Y-61400485D01*
X94203386Y-61447715D01*
X94037786Y-61568028D01*
X93893028Y-61712786D01*
X93772715Y-61878386D01*
X93679781Y-62060776D01*
X93616522Y-62255465D01*
X93584500Y-62457648D01*
X93584500Y-62662351D01*
X93616522Y-62864534D01*
X93679781Y-63059223D01*
X93743691Y-63184653D01*
X93762812Y-63222179D01*
X93772715Y-63241613D01*
X93893028Y-63407213D01*
X94037786Y-63551971D01*
X94192749Y-63664556D01*
X94203390Y-63672287D01*
X94294840Y-63718883D01*
X94296080Y-63719515D01*
X94346876Y-63767490D01*
X94363671Y-63835311D01*
X94341134Y-63901446D01*
X94296080Y-63940485D01*
X94203386Y-63987715D01*
X94037786Y-64108028D01*
X93893028Y-64252786D01*
X93772715Y-64418386D01*
X93679781Y-64600776D01*
X93616522Y-64795465D01*
X93584500Y-64997648D01*
X93584500Y-65202351D01*
X93616522Y-65404534D01*
X93679781Y-65599223D01*
X93743691Y-65724653D01*
X93762812Y-65762179D01*
X93772715Y-65781613D01*
X93893028Y-65947213D01*
X94037786Y-66091971D01*
X94192749Y-66204556D01*
X94203390Y-66212287D01*
X94294840Y-66258883D01*
X94296080Y-66259515D01*
X94346876Y-66307490D01*
X94363671Y-66375311D01*
X94341134Y-66441446D01*
X94296080Y-66480485D01*
X94203386Y-66527715D01*
X94037786Y-66648028D01*
X93893028Y-66792786D01*
X93772715Y-66958386D01*
X93679781Y-67140776D01*
X93616522Y-67335465D01*
X93584500Y-67537648D01*
X93584500Y-67742351D01*
X93616522Y-67944534D01*
X93679781Y-68139223D01*
X93743691Y-68264653D01*
X93762812Y-68302179D01*
X93772715Y-68321613D01*
X93893028Y-68487213D01*
X94037786Y-68631971D01*
X94192749Y-68744556D01*
X94203390Y-68752287D01*
X94294840Y-68798883D01*
X94296080Y-68799515D01*
X94346876Y-68847490D01*
X94363671Y-68915311D01*
X94341134Y-68981446D01*
X94296080Y-69020485D01*
X94203386Y-69067715D01*
X94037786Y-69188028D01*
X93893028Y-69332786D01*
X93772715Y-69498386D01*
X93679781Y-69680776D01*
X93616522Y-69875465D01*
X93584500Y-70077648D01*
X93584500Y-70282351D01*
X93616522Y-70484534D01*
X93679781Y-70679223D01*
X93743691Y-70804653D01*
X93762812Y-70842179D01*
X93772715Y-70861613D01*
X93893028Y-71027213D01*
X94037786Y-71171971D01*
X94192749Y-71284556D01*
X94203390Y-71292287D01*
X94294840Y-71338883D01*
X94296080Y-71339515D01*
X94346876Y-71387490D01*
X94363671Y-71455311D01*
X94341134Y-71521446D01*
X94296080Y-71560485D01*
X94203386Y-71607715D01*
X94037786Y-71728028D01*
X93893028Y-71872786D01*
X93772715Y-72038386D01*
X93679781Y-72220776D01*
X93616522Y-72415465D01*
X93584500Y-72617648D01*
X93584500Y-72822351D01*
X93616522Y-73024534D01*
X93679781Y-73219223D01*
X93743691Y-73344653D01*
X93772585Y-73401359D01*
X93772715Y-73401613D01*
X93893028Y-73567213D01*
X94037786Y-73711971D01*
X94203385Y-73832284D01*
X94203387Y-73832285D01*
X94203390Y-73832287D01*
X94295529Y-73879234D01*
X94296630Y-73879795D01*
X94347426Y-73927770D01*
X94364221Y-73995591D01*
X94341684Y-74061725D01*
X94296630Y-74100765D01*
X94203644Y-74148143D01*
X94159077Y-74180523D01*
X94159077Y-74180524D01*
X94838553Y-74860000D01*
X94832339Y-74860000D01*
X94730606Y-74887259D01*
X94639394Y-74939920D01*
X94564920Y-75014394D01*
X94512259Y-75105606D01*
X94485000Y-75207339D01*
X94485000Y-75213553D01*
X93805524Y-74534077D01*
X93805523Y-74534077D01*
X93773143Y-74578644D01*
X93680244Y-74760968D01*
X93617009Y-74955582D01*
X93585000Y-75157682D01*
X93585000Y-75362317D01*
X93617009Y-75564417D01*
X93680244Y-75759031D01*
X93773141Y-75941350D01*
X93773147Y-75941359D01*
X93805523Y-75985921D01*
X93805524Y-75985922D01*
X94485000Y-75306446D01*
X94485000Y-75312661D01*
X94512259Y-75414394D01*
X94564920Y-75505606D01*
X94639394Y-75580080D01*
X94730606Y-75632741D01*
X94832339Y-75660000D01*
X94838552Y-75660000D01*
X94159076Y-76339474D01*
X94203652Y-76371861D01*
X94296628Y-76419234D01*
X94347425Y-76467208D01*
X94364220Y-76535029D01*
X94341683Y-76601164D01*
X94296630Y-76640203D01*
X94203388Y-76687713D01*
X94037786Y-76808028D01*
X93893028Y-76952786D01*
X93772715Y-77118386D01*
X93679781Y-77300776D01*
X93616522Y-77495465D01*
X93584500Y-77697648D01*
X93584500Y-77902351D01*
X93616522Y-78104534D01*
X93679781Y-78299223D01*
X93772715Y-78481613D01*
X93893028Y-78647213D01*
X94037786Y-78791971D01*
X94144498Y-78869500D01*
X94203390Y-78912287D01*
X94294840Y-78958883D01*
X94296080Y-78959515D01*
X94346876Y-79007490D01*
X94363671Y-79075311D01*
X94341134Y-79141446D01*
X94296080Y-79180485D01*
X94203386Y-79227715D01*
X94037786Y-79348028D01*
X93893028Y-79492786D01*
X93772715Y-79658386D01*
X93679781Y-79840776D01*
X93616522Y-80035465D01*
X93584500Y-80237648D01*
X93584500Y-80442351D01*
X93616522Y-80644534D01*
X93679781Y-80839223D01*
X93772715Y-81021613D01*
X93893028Y-81187213D01*
X94037786Y-81331971D01*
X94192749Y-81444556D01*
X94203390Y-81452287D01*
X94294840Y-81498883D01*
X94296080Y-81499515D01*
X94346876Y-81547490D01*
X94363671Y-81615311D01*
X94341134Y-81681446D01*
X94296080Y-81720485D01*
X94203386Y-81767715D01*
X94037786Y-81888028D01*
X93893028Y-82032786D01*
X93772715Y-82198386D01*
X93679781Y-82380776D01*
X93616522Y-82575465D01*
X93584500Y-82777648D01*
X93584500Y-82982351D01*
X93616522Y-83184534D01*
X93679781Y-83379223D01*
X93772715Y-83561613D01*
X93893028Y-83727213D01*
X94037786Y-83871971D01*
X94192749Y-83984556D01*
X94203390Y-83992287D01*
X94294840Y-84038883D01*
X94296080Y-84039515D01*
X94346876Y-84087490D01*
X94363671Y-84155311D01*
X94341134Y-84221446D01*
X94296080Y-84260485D01*
X94203386Y-84307715D01*
X94037786Y-84428028D01*
X93893028Y-84572786D01*
X93772715Y-84738386D01*
X93679781Y-84920776D01*
X93616522Y-85115465D01*
X93584500Y-85317648D01*
X93584500Y-85522351D01*
X93616522Y-85724534D01*
X93679781Y-85919223D01*
X93772715Y-86101613D01*
X93893028Y-86267213D01*
X94037786Y-86411971D01*
X94186478Y-86520000D01*
X94203390Y-86532287D01*
X94294840Y-86578883D01*
X94296080Y-86579515D01*
X94346876Y-86627490D01*
X94363671Y-86695311D01*
X94341134Y-86761446D01*
X94296080Y-86800485D01*
X94203386Y-86847715D01*
X94037786Y-86968028D01*
X93893028Y-87112786D01*
X93772715Y-87278386D01*
X93679781Y-87460776D01*
X93616522Y-87655465D01*
X93584500Y-87857648D01*
X93584500Y-88062351D01*
X93616522Y-88264534D01*
X93679781Y-88459223D01*
X93772715Y-88641613D01*
X93893028Y-88807213D01*
X94037786Y-88951971D01*
X94192749Y-89064556D01*
X94203390Y-89072287D01*
X94294840Y-89118883D01*
X94296080Y-89119515D01*
X94346876Y-89167490D01*
X94363671Y-89235311D01*
X94341134Y-89301446D01*
X94296080Y-89340485D01*
X94203386Y-89387715D01*
X94037786Y-89508028D01*
X93893028Y-89652786D01*
X93772715Y-89818386D01*
X93679781Y-90000776D01*
X93616522Y-90195465D01*
X93584500Y-90397648D01*
X93584500Y-90602351D01*
X93616522Y-90804534D01*
X93679781Y-90999223D01*
X93772715Y-91181613D01*
X93893028Y-91347213D01*
X94037786Y-91491971D01*
X94192749Y-91604556D01*
X94203390Y-91612287D01*
X94319607Y-91671503D01*
X94385776Y-91705218D01*
X94385778Y-91705218D01*
X94385781Y-91705220D01*
X94490137Y-91739127D01*
X94580465Y-91768477D01*
X94681557Y-91784488D01*
X94782648Y-91800500D01*
X94782649Y-91800500D01*
X94987351Y-91800500D01*
X94987352Y-91800500D01*
X95189534Y-91768477D01*
X95384219Y-91705220D01*
X95566610Y-91612287D01*
X95659590Y-91544732D01*
X95732213Y-91491971D01*
X95732215Y-91491968D01*
X95732219Y-91491966D01*
X95876966Y-91347219D01*
X95876968Y-91347215D01*
X95876971Y-91347213D01*
X95929732Y-91274590D01*
X95997287Y-91181610D01*
X96090220Y-90999219D01*
X96153477Y-90804534D01*
X96185500Y-90602352D01*
X96185500Y-90397648D01*
X96153477Y-90195466D01*
X96090220Y-90000781D01*
X96090218Y-90000778D01*
X96090218Y-90000776D01*
X96056503Y-89934607D01*
X95997287Y-89818390D01*
X95989556Y-89807749D01*
X95876971Y-89652786D01*
X95732213Y-89508028D01*
X95566614Y-89387715D01*
X95560006Y-89384348D01*
X95473917Y-89340483D01*
X95423123Y-89292511D01*
X95406328Y-89224690D01*
X95428865Y-89158555D01*
X95473917Y-89119516D01*
X95566610Y-89072287D01*
X95587770Y-89056913D01*
X95732213Y-88951971D01*
X95732215Y-88951968D01*
X95732219Y-88951966D01*
X95876966Y-88807219D01*
X95876968Y-88807215D01*
X95876971Y-88807213D01*
X95994173Y-88645896D01*
X95997287Y-88641610D01*
X96079686Y-88479892D01*
X96127659Y-88429098D01*
X96195480Y-88412303D01*
X96261615Y-88434840D01*
X96277851Y-88448508D01*
X102255886Y-94426542D01*
X102311291Y-94481947D01*
X102353459Y-94524115D01*
X102468182Y-94600771D01*
X102468189Y-94600775D01*
X102539952Y-94630500D01*
X102595671Y-94653580D01*
X102622591Y-94658934D01*
X102717479Y-94677809D01*
X102731006Y-94680500D01*
X102731007Y-94680500D01*
X107274684Y-94680500D01*
X107322136Y-94689939D01*
X107390008Y-94718052D01*
X107466503Y-94749737D01*
X107621153Y-94780499D01*
X107621156Y-94780500D01*
X107621158Y-94780500D01*
X107778844Y-94780500D01*
X107778845Y-94780499D01*
X107933497Y-94749737D01*
X108079179Y-94689394D01*
X108210289Y-94601789D01*
X108321789Y-94490289D01*
X108327363Y-94481947D01*
X114800000Y-94481947D01*
X114800000Y-94718052D01*
X114836934Y-94951247D01*
X114909897Y-95175802D01*
X115017087Y-95386174D01*
X115077338Y-95469104D01*
X115077340Y-95469105D01*
X115776212Y-94770233D01*
X115787482Y-94812292D01*
X115859890Y-94937708D01*
X115962292Y-95040110D01*
X116087708Y-95112518D01*
X116129765Y-95123787D01*
X115430893Y-95822658D01*
X115513828Y-95882914D01*
X115724197Y-95990102D01*
X115948752Y-96063065D01*
X115948751Y-96063065D01*
X116181948Y-96100000D01*
X116418052Y-96100000D01*
X116651247Y-96063065D01*
X116875802Y-95990102D01*
X117086163Y-95882918D01*
X117086169Y-95882914D01*
X117169104Y-95822658D01*
X117169105Y-95822658D01*
X116470233Y-95123787D01*
X116512292Y-95112518D01*
X116637708Y-95040110D01*
X116740110Y-94937708D01*
X116812518Y-94812292D01*
X116823787Y-94770234D01*
X117522658Y-95469105D01*
X117522658Y-95469104D01*
X117582914Y-95386169D01*
X117582918Y-95386163D01*
X117690102Y-95175802D01*
X117763065Y-94951247D01*
X117800000Y-94718052D01*
X117800000Y-94481947D01*
X117763065Y-94248752D01*
X117690102Y-94024197D01*
X117582914Y-93813828D01*
X117522658Y-93730894D01*
X117522658Y-93730893D01*
X116823787Y-94429765D01*
X116812518Y-94387708D01*
X116740110Y-94262292D01*
X116637708Y-94159890D01*
X116512292Y-94087482D01*
X116470234Y-94076212D01*
X117169105Y-93377340D01*
X117169104Y-93377339D01*
X117086174Y-93317087D01*
X116875802Y-93209897D01*
X116651247Y-93136934D01*
X116651248Y-93136934D01*
X116418052Y-93100000D01*
X116181948Y-93100000D01*
X115948752Y-93136934D01*
X115724197Y-93209897D01*
X115513830Y-93317084D01*
X115430894Y-93377340D01*
X116129766Y-94076212D01*
X116087708Y-94087482D01*
X115962292Y-94159890D01*
X115859890Y-94262292D01*
X115787482Y-94387708D01*
X115776212Y-94429766D01*
X115077340Y-93730894D01*
X115017084Y-93813830D01*
X114909897Y-94024197D01*
X114836934Y-94248752D01*
X114800000Y-94481947D01*
X108327363Y-94481947D01*
X108376650Y-94408184D01*
X108382080Y-94400055D01*
X108409394Y-94359179D01*
X108469737Y-94213497D01*
X108500500Y-94058842D01*
X108500500Y-93901158D01*
X108500500Y-93901155D01*
X108500499Y-93901153D01*
X108469738Y-93746510D01*
X108469737Y-93746503D01*
X108411517Y-93605946D01*
X108409397Y-93600827D01*
X108409390Y-93600814D01*
X108337678Y-93493490D01*
X108321789Y-93469711D01*
X108321786Y-93469707D01*
X108210292Y-93358213D01*
X108210288Y-93358210D01*
X108079185Y-93270609D01*
X108079172Y-93270602D01*
X107933501Y-93210264D01*
X107933489Y-93210261D01*
X107778845Y-93179500D01*
X107778842Y-93179500D01*
X107621158Y-93179500D01*
X107621155Y-93179500D01*
X107466510Y-93210261D01*
X107466498Y-93210264D01*
X107322136Y-93270061D01*
X107274684Y-93279500D01*
X103141518Y-93279500D01*
X103074479Y-93259815D01*
X103053837Y-93243181D01*
X97236819Y-87426162D01*
X97203334Y-87364839D01*
X97200500Y-87338481D01*
X97200500Y-59026004D01*
X97173581Y-58890677D01*
X97173580Y-58890676D01*
X97173580Y-58890672D01*
X97128454Y-58781727D01*
X97120776Y-58763191D01*
X97107761Y-58743713D01*
X97068678Y-58685220D01*
X97044114Y-58648457D01*
X97044112Y-58648454D01*
X96221818Y-57826160D01*
X96188333Y-57764837D01*
X96185499Y-57738479D01*
X96185499Y-57377648D01*
X101204500Y-57377648D01*
X101204500Y-57582351D01*
X101236522Y-57784534D01*
X101299781Y-57979223D01*
X101351140Y-58080018D01*
X101382812Y-58142179D01*
X101392715Y-58161613D01*
X101513028Y-58327213D01*
X101657786Y-58471971D01*
X101812749Y-58584556D01*
X101823390Y-58592287D01*
X101914840Y-58638883D01*
X101916080Y-58639515D01*
X101966876Y-58687490D01*
X101983671Y-58755311D01*
X101961134Y-58821446D01*
X101916080Y-58860485D01*
X101823386Y-58907715D01*
X101657786Y-59028028D01*
X101513028Y-59172786D01*
X101392715Y-59338386D01*
X101299781Y-59520776D01*
X101236522Y-59715465D01*
X101204500Y-59917648D01*
X101204500Y-60122351D01*
X101236522Y-60324534D01*
X101299781Y-60519223D01*
X101363691Y-60644653D01*
X101382812Y-60682179D01*
X101392715Y-60701613D01*
X101513028Y-60867213D01*
X101657786Y-61011971D01*
X101812749Y-61124556D01*
X101823390Y-61132287D01*
X101914840Y-61178883D01*
X101916080Y-61179515D01*
X101966876Y-61227490D01*
X101983671Y-61295311D01*
X101961134Y-61361446D01*
X101916080Y-61400485D01*
X101823386Y-61447715D01*
X101657786Y-61568028D01*
X101513028Y-61712786D01*
X101392715Y-61878386D01*
X101299781Y-62060776D01*
X101236522Y-62255465D01*
X101204500Y-62457648D01*
X101204500Y-62662351D01*
X101236522Y-62864534D01*
X101299781Y-63059223D01*
X101363691Y-63184653D01*
X101382812Y-63222179D01*
X101392715Y-63241613D01*
X101513028Y-63407213D01*
X101657786Y-63551971D01*
X101812749Y-63664556D01*
X101823390Y-63672287D01*
X101914840Y-63718883D01*
X101916080Y-63719515D01*
X101966876Y-63767490D01*
X101983671Y-63835311D01*
X101961134Y-63901446D01*
X101916080Y-63940485D01*
X101823386Y-63987715D01*
X101657786Y-64108028D01*
X101513028Y-64252786D01*
X101392715Y-64418386D01*
X101299781Y-64600776D01*
X101236522Y-64795465D01*
X101204500Y-64997648D01*
X101204500Y-65202351D01*
X101236522Y-65404534D01*
X101299781Y-65599223D01*
X101363691Y-65724653D01*
X101382812Y-65762179D01*
X101392715Y-65781613D01*
X101513028Y-65947213D01*
X101657786Y-66091971D01*
X101812749Y-66204556D01*
X101823390Y-66212287D01*
X101914840Y-66258883D01*
X101916080Y-66259515D01*
X101966876Y-66307490D01*
X101983671Y-66375311D01*
X101961134Y-66441446D01*
X101916080Y-66480485D01*
X101823386Y-66527715D01*
X101657786Y-66648028D01*
X101513028Y-66792786D01*
X101392715Y-66958386D01*
X101299781Y-67140776D01*
X101236522Y-67335465D01*
X101204500Y-67537648D01*
X101204500Y-67742351D01*
X101236522Y-67944534D01*
X101299781Y-68139223D01*
X101363691Y-68264653D01*
X101382812Y-68302179D01*
X101392715Y-68321613D01*
X101513028Y-68487213D01*
X101657786Y-68631971D01*
X101812749Y-68744556D01*
X101823390Y-68752287D01*
X101914840Y-68798883D01*
X101916080Y-68799515D01*
X101966876Y-68847490D01*
X101983671Y-68915311D01*
X101961134Y-68981446D01*
X101916080Y-69020485D01*
X101823386Y-69067715D01*
X101657786Y-69188028D01*
X101513028Y-69332786D01*
X101392715Y-69498386D01*
X101299781Y-69680776D01*
X101236522Y-69875465D01*
X101204500Y-70077648D01*
X101204500Y-70282351D01*
X101236522Y-70484534D01*
X101299781Y-70679223D01*
X101363691Y-70804653D01*
X101382812Y-70842179D01*
X101392715Y-70861613D01*
X101513028Y-71027213D01*
X101657786Y-71171971D01*
X101823385Y-71292284D01*
X101823387Y-71292285D01*
X101823390Y-71292287D01*
X101916080Y-71339515D01*
X101916630Y-71339795D01*
X101967426Y-71387770D01*
X101984221Y-71455591D01*
X101961684Y-71521725D01*
X101916630Y-71560765D01*
X101823644Y-71608143D01*
X101779077Y-71640523D01*
X101779077Y-71640524D01*
X102458554Y-72320000D01*
X102452339Y-72320000D01*
X102350606Y-72347259D01*
X102259394Y-72399920D01*
X102184920Y-72474394D01*
X102132259Y-72565606D01*
X102105000Y-72667339D01*
X102105000Y-72673553D01*
X101425524Y-71994077D01*
X101425523Y-71994077D01*
X101393143Y-72038644D01*
X101300244Y-72220968D01*
X101237009Y-72415582D01*
X101205000Y-72617682D01*
X101205000Y-72822317D01*
X101237009Y-73024417D01*
X101300244Y-73219031D01*
X101393141Y-73401350D01*
X101393147Y-73401359D01*
X101425523Y-73445921D01*
X101425524Y-73445922D01*
X102105000Y-72766446D01*
X102105000Y-72772661D01*
X102132259Y-72874394D01*
X102184920Y-72965606D01*
X102259394Y-73040080D01*
X102350606Y-73092741D01*
X102452339Y-73120000D01*
X102458553Y-73120000D01*
X101779076Y-73799474D01*
X101823652Y-73831861D01*
X101916628Y-73879234D01*
X101967425Y-73927208D01*
X101984220Y-73995029D01*
X101961683Y-74061164D01*
X101916630Y-74100203D01*
X101823388Y-74147713D01*
X101657786Y-74268028D01*
X101513028Y-74412786D01*
X101392715Y-74578386D01*
X101299781Y-74760776D01*
X101236522Y-74955465D01*
X101204500Y-75157648D01*
X101204500Y-75362351D01*
X101236522Y-75564534D01*
X101299781Y-75759223D01*
X101362231Y-75881786D01*
X101392585Y-75941359D01*
X101392715Y-75941613D01*
X101513028Y-76107213D01*
X101657779Y-76251964D01*
X101661038Y-76254748D01*
X101699227Y-76313258D01*
X101704500Y-76349033D01*
X101704500Y-76710966D01*
X101684815Y-76778005D01*
X101661046Y-76805244D01*
X101657784Y-76808030D01*
X101513028Y-76952786D01*
X101392715Y-77118386D01*
X101299781Y-77300776D01*
X101236522Y-77495465D01*
X101204500Y-77697648D01*
X101204500Y-77902351D01*
X101236522Y-78104534D01*
X101299781Y-78299223D01*
X101392715Y-78481613D01*
X101513028Y-78647213D01*
X101657786Y-78791971D01*
X101764498Y-78869500D01*
X101823390Y-78912287D01*
X101914840Y-78958883D01*
X101916080Y-78959515D01*
X101966876Y-79007490D01*
X101983671Y-79075311D01*
X101961134Y-79141446D01*
X101916080Y-79180485D01*
X101823386Y-79227715D01*
X101657786Y-79348028D01*
X101513028Y-79492786D01*
X101392715Y-79658386D01*
X101299781Y-79840776D01*
X101236522Y-80035465D01*
X101204500Y-80237648D01*
X101204500Y-80442351D01*
X101236522Y-80644534D01*
X101299781Y-80839223D01*
X101392715Y-81021613D01*
X101513028Y-81187213D01*
X101657786Y-81331971D01*
X101812749Y-81444556D01*
X101823390Y-81452287D01*
X101914840Y-81498883D01*
X101916080Y-81499515D01*
X101966876Y-81547490D01*
X101983671Y-81615311D01*
X101961134Y-81681446D01*
X101916080Y-81720485D01*
X101823386Y-81767715D01*
X101657786Y-81888028D01*
X101513028Y-82032786D01*
X101392715Y-82198386D01*
X101299781Y-82380776D01*
X101236522Y-82575465D01*
X101204500Y-82777648D01*
X101204500Y-82982351D01*
X101236522Y-83184534D01*
X101299781Y-83379223D01*
X101392715Y-83561613D01*
X101513028Y-83727213D01*
X101657786Y-83871971D01*
X101812749Y-83984556D01*
X101823390Y-83992287D01*
X101914840Y-84038883D01*
X101916080Y-84039515D01*
X101966876Y-84087490D01*
X101983671Y-84155311D01*
X101961134Y-84221446D01*
X101916080Y-84260485D01*
X101823386Y-84307715D01*
X101657786Y-84428028D01*
X101513028Y-84572786D01*
X101392715Y-84738386D01*
X101299781Y-84920776D01*
X101236522Y-85115465D01*
X101204500Y-85317648D01*
X101204500Y-85522351D01*
X101236522Y-85724534D01*
X101299781Y-85919223D01*
X101392715Y-86101613D01*
X101513028Y-86267213D01*
X101657786Y-86411971D01*
X101806478Y-86520000D01*
X101823390Y-86532287D01*
X101914840Y-86578883D01*
X101916080Y-86579515D01*
X101966876Y-86627490D01*
X101983671Y-86695311D01*
X101961134Y-86761446D01*
X101916080Y-86800485D01*
X101823386Y-86847715D01*
X101657786Y-86968028D01*
X101513028Y-87112786D01*
X101392715Y-87278386D01*
X101299781Y-87460776D01*
X101236522Y-87655465D01*
X101204500Y-87857648D01*
X101204500Y-88062351D01*
X101236522Y-88264534D01*
X101299781Y-88459223D01*
X101392715Y-88641613D01*
X101513028Y-88807213D01*
X101657786Y-88951971D01*
X101812749Y-89064556D01*
X101823390Y-89072287D01*
X101914840Y-89118883D01*
X101916080Y-89119515D01*
X101966876Y-89167490D01*
X101983671Y-89235311D01*
X101961134Y-89301446D01*
X101916080Y-89340485D01*
X101823386Y-89387715D01*
X101657786Y-89508028D01*
X101513028Y-89652786D01*
X101392715Y-89818386D01*
X101299781Y-90000776D01*
X101236522Y-90195465D01*
X101204500Y-90397648D01*
X101204500Y-90602351D01*
X101236522Y-90804534D01*
X101299781Y-90999223D01*
X101392715Y-91181613D01*
X101513028Y-91347213D01*
X101657786Y-91491971D01*
X101812749Y-91604556D01*
X101823390Y-91612287D01*
X101939607Y-91671503D01*
X102005776Y-91705218D01*
X102005778Y-91705218D01*
X102005781Y-91705220D01*
X102110137Y-91739127D01*
X102200465Y-91768477D01*
X102301557Y-91784488D01*
X102402648Y-91800500D01*
X102402649Y-91800500D01*
X102607351Y-91800500D01*
X102607352Y-91800500D01*
X102809534Y-91768477D01*
X103004219Y-91705220D01*
X103186610Y-91612287D01*
X103279590Y-91544732D01*
X103352213Y-91491971D01*
X103352215Y-91491968D01*
X103352219Y-91491966D01*
X103496966Y-91347219D01*
X103496968Y-91347215D01*
X103496971Y-91347213D01*
X103549732Y-91274590D01*
X103617287Y-91181610D01*
X103710220Y-90999219D01*
X103773477Y-90804534D01*
X103805500Y-90602352D01*
X103805500Y-90397648D01*
X103773477Y-90195466D01*
X103710220Y-90000781D01*
X103710218Y-90000778D01*
X103710218Y-90000776D01*
X103676503Y-89934607D01*
X103617287Y-89818390D01*
X103609556Y-89807749D01*
X103496971Y-89652786D01*
X103352213Y-89508028D01*
X103186614Y-89387715D01*
X103180006Y-89384348D01*
X103093917Y-89340483D01*
X103043123Y-89292511D01*
X103026328Y-89224690D01*
X103048865Y-89158555D01*
X103093917Y-89119516D01*
X103186610Y-89072287D01*
X103207770Y-89056913D01*
X103352213Y-88951971D01*
X103352215Y-88951968D01*
X103352219Y-88951966D01*
X103496966Y-88807219D01*
X103496968Y-88807215D01*
X103496971Y-88807213D01*
X103589032Y-88680500D01*
X103617287Y-88641610D01*
X103710220Y-88459219D01*
X103773477Y-88264534D01*
X103805500Y-88062352D01*
X103805500Y-87857648D01*
X103773477Y-87655466D01*
X103710220Y-87460781D01*
X103710218Y-87460778D01*
X103710218Y-87460776D01*
X103664219Y-87370500D01*
X103617287Y-87278390D01*
X103564665Y-87205961D01*
X103496971Y-87112786D01*
X103352213Y-86968028D01*
X103186614Y-86847715D01*
X103180006Y-86844348D01*
X103093917Y-86800483D01*
X103043123Y-86752511D01*
X103026328Y-86684690D01*
X103048865Y-86618555D01*
X103093917Y-86579516D01*
X103186610Y-86532287D01*
X103207770Y-86516913D01*
X103352213Y-86411971D01*
X103352215Y-86411968D01*
X103352219Y-86411966D01*
X103496966Y-86267219D01*
X103496968Y-86267215D01*
X103496971Y-86267213D01*
X103599358Y-86126287D01*
X103617287Y-86101610D01*
X103710220Y-85919219D01*
X103773477Y-85724534D01*
X103805500Y-85522352D01*
X103805500Y-85317648D01*
X103773477Y-85115466D01*
X103710220Y-84920781D01*
X103710218Y-84920778D01*
X103710218Y-84920776D01*
X103659747Y-84821722D01*
X103617287Y-84738390D01*
X103574016Y-84678832D01*
X103496971Y-84572786D01*
X103352213Y-84428028D01*
X103186614Y-84307715D01*
X103180006Y-84304348D01*
X103093917Y-84260483D01*
X103043123Y-84212511D01*
X103026328Y-84144690D01*
X103048865Y-84078555D01*
X103093917Y-84039516D01*
X103186610Y-83992287D01*
X103207770Y-83976913D01*
X103352213Y-83871971D01*
X103352215Y-83871968D01*
X103352219Y-83871966D01*
X103496966Y-83727219D01*
X103496968Y-83727215D01*
X103496971Y-83727213D01*
X103599358Y-83586287D01*
X103617287Y-83561610D01*
X103710220Y-83379219D01*
X103773477Y-83184534D01*
X103805500Y-82982352D01*
X103805500Y-82777648D01*
X103777396Y-82600208D01*
X103773477Y-82575465D01*
X103731518Y-82446330D01*
X103710220Y-82380781D01*
X103710218Y-82380778D01*
X103710218Y-82380776D01*
X103664219Y-82290499D01*
X103617287Y-82198390D01*
X103580307Y-82147491D01*
X103496971Y-82032786D01*
X103352213Y-81888028D01*
X103186614Y-81767715D01*
X103180006Y-81764348D01*
X103093917Y-81720483D01*
X103043123Y-81672511D01*
X103026328Y-81604690D01*
X103048865Y-81538555D01*
X103093917Y-81499516D01*
X103186610Y-81452287D01*
X103207770Y-81436913D01*
X103352213Y-81331971D01*
X103352215Y-81331968D01*
X103352219Y-81331966D01*
X103496966Y-81187219D01*
X103566425Y-81091615D01*
X103621755Y-81048949D01*
X103666744Y-81040500D01*
X106168481Y-81040500D01*
X106235520Y-81060185D01*
X106256162Y-81076819D01*
X107253928Y-82074585D01*
X107280808Y-82114814D01*
X107340602Y-82259172D01*
X107340609Y-82259185D01*
X107428210Y-82390288D01*
X107428213Y-82390292D01*
X107539707Y-82501786D01*
X107539711Y-82501789D01*
X107670814Y-82589390D01*
X107670827Y-82589397D01*
X107816498Y-82649735D01*
X107816503Y-82649737D01*
X107971153Y-82680499D01*
X107971156Y-82680500D01*
X107971158Y-82680500D01*
X108128844Y-82680500D01*
X108128845Y-82680499D01*
X108283497Y-82649737D01*
X108403059Y-82600213D01*
X108429172Y-82589397D01*
X108429172Y-82589396D01*
X108429179Y-82589394D01*
X108560289Y-82501789D01*
X108671789Y-82390289D01*
X108759394Y-82259179D01*
X108819737Y-82113497D01*
X108850500Y-81958842D01*
X108850500Y-81801158D01*
X108850500Y-81801155D01*
X108850499Y-81801153D01*
X108828946Y-81692799D01*
X108819737Y-81646503D01*
X108802418Y-81604690D01*
X108759397Y-81500827D01*
X108759390Y-81500814D01*
X108671789Y-81369711D01*
X108671786Y-81369707D01*
X108560292Y-81258213D01*
X108560288Y-81258210D01*
X108429185Y-81170609D01*
X108429172Y-81170602D01*
X108284814Y-81110808D01*
X108244585Y-81083928D01*
X106956546Y-79795888D01*
X106956545Y-79795887D01*
X106841807Y-79719222D01*
X106714332Y-79666421D01*
X106714322Y-79666418D01*
X106578996Y-79639500D01*
X106578994Y-79639500D01*
X106578993Y-79639500D01*
X103666744Y-79639500D01*
X103599705Y-79619815D01*
X103566425Y-79588384D01*
X103496969Y-79492784D01*
X103352213Y-79348028D01*
X103186614Y-79227715D01*
X103180006Y-79224348D01*
X103093917Y-79180483D01*
X103043123Y-79132511D01*
X103026328Y-79064690D01*
X103048865Y-78998555D01*
X103093917Y-78959516D01*
X103186610Y-78912287D01*
X103245502Y-78869500D01*
X103352213Y-78791971D01*
X103352215Y-78791968D01*
X103352219Y-78791966D01*
X103496966Y-78647219D01*
X103496968Y-78647215D01*
X103496971Y-78647213D01*
X103549732Y-78574590D01*
X103617287Y-78481610D01*
X103710220Y-78299219D01*
X103773477Y-78104534D01*
X103805500Y-77902352D01*
X103805500Y-77711304D01*
X109449500Y-77711304D01*
X109449500Y-77888695D01*
X109484103Y-78062658D01*
X109484106Y-78062667D01*
X109551984Y-78226542D01*
X109551985Y-78226543D01*
X109551987Y-78226547D01*
X109600548Y-78299223D01*
X109628602Y-78341208D01*
X109649480Y-78407885D01*
X109649500Y-78410099D01*
X109649500Y-86211006D01*
X109649500Y-86348994D01*
X109649500Y-86348996D01*
X109649499Y-86348996D01*
X109676418Y-86484322D01*
X109676421Y-86484332D01*
X109729222Y-86611807D01*
X109805887Y-86726545D01*
X109805888Y-86726546D01*
X110923265Y-87843922D01*
X110956750Y-87905245D01*
X110957201Y-87907411D01*
X110984104Y-88042660D01*
X110984107Y-88042670D01*
X111051983Y-88206540D01*
X111051990Y-88206553D01*
X111150535Y-88354034D01*
X111150538Y-88354038D01*
X111275961Y-88479461D01*
X111275965Y-88479464D01*
X111423446Y-88578009D01*
X111423459Y-88578016D01*
X111546363Y-88628923D01*
X111587334Y-88645894D01*
X111587336Y-88645894D01*
X111587341Y-88645896D01*
X111761304Y-88680499D01*
X111761307Y-88680500D01*
X111761309Y-88680500D01*
X111938693Y-88680500D01*
X111938694Y-88680499D01*
X111996682Y-88668964D01*
X112112658Y-88645896D01*
X112112661Y-88645894D01*
X112112666Y-88645894D01*
X112276547Y-88578013D01*
X112424035Y-88479464D01*
X112549464Y-88354035D01*
X112648013Y-88206547D01*
X112715894Y-88042666D01*
X112750500Y-87868691D01*
X112750500Y-87691309D01*
X112750500Y-87691306D01*
X112750499Y-87691304D01*
X112715896Y-87517341D01*
X112715893Y-87517332D01*
X112648016Y-87353459D01*
X112648009Y-87353446D01*
X112549464Y-87205965D01*
X112549461Y-87205961D01*
X112424038Y-87080538D01*
X112424034Y-87080535D01*
X112276553Y-86981990D01*
X112276540Y-86981983D01*
X112112670Y-86914107D01*
X112112660Y-86914104D01*
X111977411Y-86887201D01*
X111915500Y-86854816D01*
X111913922Y-86853265D01*
X111086819Y-86026162D01*
X111053334Y-85964839D01*
X111050500Y-85938481D01*
X111050500Y-80289983D01*
X116759500Y-80289983D01*
X116759500Y-81590001D01*
X116759501Y-81590018D01*
X116770000Y-81692796D01*
X116770001Y-81692799D01*
X116805907Y-81801155D01*
X116825186Y-81859334D01*
X116917288Y-82008656D01*
X117041344Y-82132712D01*
X117190666Y-82224814D01*
X117201223Y-82228312D01*
X117258668Y-82268084D01*
X117285492Y-82332600D01*
X117273177Y-82401376D01*
X117235113Y-82446330D01*
X117230219Y-82449885D01*
X117230209Y-82449894D01*
X117079890Y-82600213D01*
X116954951Y-82772179D01*
X116858444Y-82961585D01*
X116792753Y-83163760D01*
X116759500Y-83373713D01*
X116759500Y-83586286D01*
X116792753Y-83796239D01*
X116858444Y-83998414D01*
X116954951Y-84187820D01*
X117079890Y-84359786D01*
X117230213Y-84510109D01*
X117402182Y-84635050D01*
X117410946Y-84639516D01*
X117461742Y-84687491D01*
X117478536Y-84755312D01*
X117455998Y-84821447D01*
X117410946Y-84860484D01*
X117402182Y-84864949D01*
X117230213Y-84989890D01*
X117079890Y-85140213D01*
X116954951Y-85312179D01*
X116858444Y-85501585D01*
X116792753Y-85703760D01*
X116759500Y-85913713D01*
X116759500Y-86126286D01*
X116792735Y-86336127D01*
X116792754Y-86336243D01*
X116840871Y-86484332D01*
X116858444Y-86538414D01*
X116954951Y-86727820D01*
X117079890Y-86899786D01*
X117230213Y-87050109D01*
X117402179Y-87175048D01*
X117402181Y-87175049D01*
X117402184Y-87175051D01*
X117591588Y-87271557D01*
X117793757Y-87337246D01*
X118003713Y-87370500D01*
X118003714Y-87370500D01*
X118216286Y-87370500D01*
X118216287Y-87370500D01*
X118426243Y-87337246D01*
X118628412Y-87271557D01*
X118817816Y-87175051D01*
X118903524Y-87112781D01*
X118989786Y-87050109D01*
X118989788Y-87050106D01*
X118989792Y-87050104D01*
X119140104Y-86899792D01*
X119140106Y-86899788D01*
X119140109Y-86899786D01*
X119225890Y-86781717D01*
X119265051Y-86727816D01*
X119269793Y-86718508D01*
X119317763Y-86667711D01*
X119385583Y-86650911D01*
X119451719Y-86673445D01*
X119490763Y-86718500D01*
X119495373Y-86727547D01*
X119534728Y-86781716D01*
X120167037Y-86149408D01*
X120184075Y-86212993D01*
X120249901Y-86327007D01*
X120342993Y-86420099D01*
X120457007Y-86485925D01*
X120520590Y-86502962D01*
X119888282Y-87135269D01*
X119888282Y-87135270D01*
X119942449Y-87174624D01*
X120131782Y-87271095D01*
X120333870Y-87336757D01*
X120543754Y-87370000D01*
X120756246Y-87370000D01*
X120966127Y-87336757D01*
X120966130Y-87336757D01*
X121168217Y-87271095D01*
X121357554Y-87174622D01*
X121411716Y-87135270D01*
X121411717Y-87135270D01*
X120779408Y-86502962D01*
X120842993Y-86485925D01*
X120957007Y-86420099D01*
X121050099Y-86327007D01*
X121115925Y-86212993D01*
X121132962Y-86149409D01*
X121765270Y-86781717D01*
X121765270Y-86781716D01*
X121804622Y-86727554D01*
X121901095Y-86538217D01*
X121966757Y-86336130D01*
X121966757Y-86336127D01*
X122000000Y-86126246D01*
X122000000Y-85913753D01*
X121966757Y-85703872D01*
X121966757Y-85703869D01*
X121901095Y-85501782D01*
X121804624Y-85312449D01*
X121765270Y-85258282D01*
X121765269Y-85258282D01*
X121132962Y-85890590D01*
X121115925Y-85827007D01*
X121050099Y-85712993D01*
X120957007Y-85619901D01*
X120842993Y-85554075D01*
X120779409Y-85537037D01*
X121411716Y-84904728D01*
X121357547Y-84865373D01*
X121357547Y-84865372D01*
X121348500Y-84860763D01*
X121297706Y-84812788D01*
X121280912Y-84744966D01*
X121303451Y-84678832D01*
X121348508Y-84639793D01*
X121357816Y-84635051D01*
X121443524Y-84572781D01*
X121529786Y-84510109D01*
X121529788Y-84510106D01*
X121529792Y-84510104D01*
X121680104Y-84359792D01*
X121680106Y-84359788D01*
X121680109Y-84359786D01*
X121805048Y-84187820D01*
X121805047Y-84187820D01*
X121805051Y-84187816D01*
X121901557Y-83998412D01*
X121967246Y-83796243D01*
X122000500Y-83586287D01*
X122000500Y-83373713D01*
X121967246Y-83163757D01*
X121901557Y-82961588D01*
X121805051Y-82772184D01*
X121805049Y-82772181D01*
X121805048Y-82772179D01*
X121680109Y-82600213D01*
X121529786Y-82449890D01*
X121357820Y-82324951D01*
X121357115Y-82324591D01*
X121349054Y-82320485D01*
X121298259Y-82272512D01*
X121281463Y-82204692D01*
X121303999Y-82138556D01*
X121349054Y-82099515D01*
X121357816Y-82095051D01*
X121443524Y-82032781D01*
X121529786Y-81970109D01*
X121529788Y-81970106D01*
X121529792Y-81970104D01*
X121680104Y-81819792D01*
X121680106Y-81819788D01*
X121680109Y-81819786D01*
X121805048Y-81647820D01*
X121805047Y-81647820D01*
X121805051Y-81647816D01*
X121901557Y-81458412D01*
X121967246Y-81256243D01*
X122000500Y-81046287D01*
X122000500Y-80833713D01*
X121967246Y-80623757D01*
X121901557Y-80421588D01*
X121805051Y-80232184D01*
X121805049Y-80232181D01*
X121805048Y-80232179D01*
X121680109Y-80060213D01*
X121529786Y-79909890D01*
X121357820Y-79784951D01*
X121168414Y-79688444D01*
X121168413Y-79688443D01*
X121168412Y-79688443D01*
X120966243Y-79622754D01*
X120966241Y-79622753D01*
X120966240Y-79622753D01*
X120804957Y-79597208D01*
X120756287Y-79589500D01*
X120543713Y-79589500D01*
X120495042Y-79597208D01*
X120333760Y-79622753D01*
X120333757Y-79622754D01*
X120224094Y-79658386D01*
X120131585Y-79688444D01*
X119942179Y-79784951D01*
X119770213Y-79909890D01*
X119619894Y-80060209D01*
X119619885Y-80060219D01*
X119616330Y-80065113D01*
X119560997Y-80107775D01*
X119491383Y-80113748D01*
X119429591Y-80081137D01*
X119398312Y-80031223D01*
X119394815Y-80020670D01*
X119394814Y-80020666D01*
X119302712Y-79871344D01*
X119178656Y-79747288D01*
X119047549Y-79666421D01*
X119029336Y-79655187D01*
X119029331Y-79655185D01*
X118983415Y-79639970D01*
X118862797Y-79600001D01*
X118862795Y-79600000D01*
X118760010Y-79589500D01*
X117459998Y-79589500D01*
X117459981Y-79589501D01*
X117357203Y-79600000D01*
X117357200Y-79600001D01*
X117190668Y-79655185D01*
X117190663Y-79655187D01*
X117041342Y-79747289D01*
X116917289Y-79871342D01*
X116825187Y-80020663D01*
X116825185Y-80020668D01*
X116812083Y-80060208D01*
X116770001Y-80187203D01*
X116770001Y-80187204D01*
X116770000Y-80187204D01*
X116759500Y-80289983D01*
X111050500Y-80289983D01*
X111050500Y-78410099D01*
X111070185Y-78343060D01*
X111071398Y-78341208D01*
X111148013Y-78226547D01*
X111215894Y-78062666D01*
X111250500Y-77888691D01*
X111250500Y-77711309D01*
X111250500Y-77711306D01*
X111250499Y-77711304D01*
X111215896Y-77537341D01*
X111215893Y-77537332D01*
X111148016Y-77373459D01*
X111148009Y-77373446D01*
X111049464Y-77225965D01*
X111049461Y-77225961D01*
X110924038Y-77100538D01*
X110924034Y-77100535D01*
X110776553Y-77001990D01*
X110776540Y-77001983D01*
X110612667Y-76934106D01*
X110612658Y-76934103D01*
X110438694Y-76899500D01*
X110438691Y-76899500D01*
X110261309Y-76899500D01*
X110261306Y-76899500D01*
X110087341Y-76934103D01*
X110087332Y-76934106D01*
X109923459Y-77001983D01*
X109923446Y-77001990D01*
X109775965Y-77100535D01*
X109775961Y-77100538D01*
X109650538Y-77225961D01*
X109650535Y-77225965D01*
X109551990Y-77373446D01*
X109551983Y-77373459D01*
X109484106Y-77537332D01*
X109484103Y-77537341D01*
X109449500Y-77711304D01*
X103805500Y-77711304D01*
X103805500Y-77697648D01*
X103799554Y-77660104D01*
X103773477Y-77495465D01*
X103744127Y-77405137D01*
X103710220Y-77300781D01*
X103710218Y-77300778D01*
X103710218Y-77300776D01*
X103672097Y-77225961D01*
X103617287Y-77118390D01*
X103604315Y-77100535D01*
X103496971Y-76952786D01*
X103352215Y-76808030D01*
X103348954Y-76805244D01*
X103310770Y-76746731D01*
X103305500Y-76710966D01*
X103305500Y-76349033D01*
X103314144Y-76319592D01*
X103320668Y-76289606D01*
X103324243Y-76285201D01*
X103325185Y-76281994D01*
X103341819Y-76261352D01*
X103348511Y-76254659D01*
X103352219Y-76251966D01*
X103496966Y-76107219D01*
X103499659Y-76103511D01*
X103506352Y-76096819D01*
X103532912Y-76082315D01*
X103558258Y-76065773D01*
X103565038Y-76064773D01*
X103567675Y-76063334D01*
X103572476Y-76063677D01*
X103594033Y-76060500D01*
X105018844Y-76060500D01*
X105018845Y-76060499D01*
X105173497Y-76029737D01*
X105319179Y-75969394D01*
X105450289Y-75881789D01*
X108921789Y-72410289D01*
X109009394Y-72279179D01*
X109069738Y-72133497D01*
X109100500Y-71978842D01*
X109100500Y-71821157D01*
X109100500Y-56482939D01*
X109120185Y-56415900D01*
X109136814Y-56395262D01*
X110251232Y-55280844D01*
X110291454Y-55253968D01*
X110426547Y-55198013D01*
X110574035Y-55099464D01*
X110699464Y-54974035D01*
X110798013Y-54826547D01*
X110865894Y-54662666D01*
X110900500Y-54488691D01*
X110900500Y-54311309D01*
X110900500Y-54311306D01*
X110900499Y-54311304D01*
X110865896Y-54137341D01*
X110865893Y-54137332D01*
X110798016Y-53973459D01*
X110798009Y-53973446D01*
X110699464Y-53825965D01*
X110699461Y-53825961D01*
X110574038Y-53700538D01*
X110574034Y-53700535D01*
X110426553Y-53601990D01*
X110426544Y-53601985D01*
X110291457Y-53546031D01*
X110251229Y-53519151D01*
X108936819Y-52204741D01*
X108903334Y-52143418D01*
X108900500Y-52117060D01*
X108900500Y-51245207D01*
X108909939Y-51197755D01*
X108965892Y-51062670D01*
X108965894Y-51062666D01*
X109000500Y-50888691D01*
X109000500Y-50711309D01*
X109000500Y-50711306D01*
X109000499Y-50711304D01*
X108965896Y-50537341D01*
X108965893Y-50537332D01*
X108898016Y-50373459D01*
X108898009Y-50373446D01*
X108799464Y-50225965D01*
X108799461Y-50225961D01*
X108674038Y-50100538D01*
X108674034Y-50100535D01*
X108526553Y-50001990D01*
X108526540Y-50001983D01*
X108362667Y-49934106D01*
X108362658Y-49934103D01*
X108188694Y-49899500D01*
X108188691Y-49899500D01*
X108011309Y-49899500D01*
X108011306Y-49899500D01*
X107837341Y-49934103D01*
X107837332Y-49934106D01*
X107673459Y-50001983D01*
X107673446Y-50001990D01*
X107525965Y-50100535D01*
X107525961Y-50100538D01*
X107400538Y-50225961D01*
X107400535Y-50225965D01*
X107301990Y-50373446D01*
X107301983Y-50373459D01*
X107234106Y-50537332D01*
X107234103Y-50537341D01*
X107199500Y-50711304D01*
X107199500Y-50888695D01*
X107234104Y-51062658D01*
X107234107Y-51062670D01*
X107290061Y-51197755D01*
X107299500Y-51245207D01*
X107299500Y-52578846D01*
X107330261Y-52733489D01*
X107330264Y-52733501D01*
X107390602Y-52879172D01*
X107390609Y-52879185D01*
X107478210Y-53010288D01*
X107478213Y-53010292D01*
X108780240Y-54312319D01*
X108813725Y-54373642D01*
X108808741Y-54443334D01*
X108780240Y-54487681D01*
X108168461Y-55099461D01*
X107789711Y-55478211D01*
X107733960Y-55533962D01*
X107678209Y-55589712D01*
X107590609Y-55720814D01*
X107590602Y-55720827D01*
X107530264Y-55866498D01*
X107530261Y-55866510D01*
X107499500Y-56021153D01*
X107499500Y-71517060D01*
X107479815Y-71584099D01*
X107463181Y-71604741D01*
X104644741Y-74423181D01*
X104583418Y-74456666D01*
X104557060Y-74459500D01*
X103594033Y-74459500D01*
X103526994Y-74439815D01*
X103499748Y-74416038D01*
X103496964Y-74412779D01*
X103352213Y-74268028D01*
X103186611Y-74147713D01*
X103093369Y-74100203D01*
X103042574Y-74052229D01*
X103025779Y-73984407D01*
X103048317Y-73918273D01*
X103093371Y-73879234D01*
X103186346Y-73831861D01*
X103186347Y-73831861D01*
X103230921Y-73799474D01*
X102551447Y-73120000D01*
X102557661Y-73120000D01*
X102659394Y-73092741D01*
X102750606Y-73040080D01*
X102825080Y-72965606D01*
X102877741Y-72874394D01*
X102905000Y-72772661D01*
X102905000Y-72766448D01*
X103584474Y-73445922D01*
X103584474Y-73445921D01*
X103616859Y-73401349D01*
X103709755Y-73219031D01*
X103772990Y-73024417D01*
X103805000Y-72822317D01*
X103805000Y-72617682D01*
X103772990Y-72415582D01*
X103709755Y-72220968D01*
X103616859Y-72038650D01*
X103584474Y-71994077D01*
X103584474Y-71994076D01*
X102905000Y-72673551D01*
X102905000Y-72667339D01*
X102877741Y-72565606D01*
X102825080Y-72474394D01*
X102750606Y-72399920D01*
X102659394Y-72347259D01*
X102557661Y-72320000D01*
X102551446Y-72320000D01*
X103230922Y-71640524D01*
X103230921Y-71640523D01*
X103186359Y-71608147D01*
X103186350Y-71608141D01*
X103093369Y-71560765D01*
X103042573Y-71512790D01*
X103025778Y-71444969D01*
X103048315Y-71378835D01*
X103093370Y-71339795D01*
X103093920Y-71339515D01*
X103186610Y-71292287D01*
X103267166Y-71233760D01*
X103352213Y-71171971D01*
X103352215Y-71171968D01*
X103352219Y-71171966D01*
X103496966Y-71027219D01*
X103496968Y-71027215D01*
X103496971Y-71027213D01*
X103549732Y-70954590D01*
X103617287Y-70861610D01*
X103710220Y-70679219D01*
X103773477Y-70484534D01*
X103805500Y-70282352D01*
X103805500Y-70077648D01*
X103773477Y-69875466D01*
X103710220Y-69680781D01*
X103710218Y-69680778D01*
X103710218Y-69680776D01*
X103676503Y-69614607D01*
X103617287Y-69498390D01*
X103609556Y-69487749D01*
X103496971Y-69332786D01*
X103352213Y-69188028D01*
X103186614Y-69067715D01*
X103178149Y-69063402D01*
X103093917Y-69020483D01*
X103043123Y-68972511D01*
X103026328Y-68904690D01*
X103048865Y-68838555D01*
X103093917Y-68799516D01*
X103186610Y-68752287D01*
X103207770Y-68736913D01*
X103352213Y-68631971D01*
X103352215Y-68631968D01*
X103352219Y-68631966D01*
X103496966Y-68487219D01*
X103496968Y-68487215D01*
X103496971Y-68487213D01*
X103549732Y-68414590D01*
X103617287Y-68321610D01*
X103710220Y-68139219D01*
X103773477Y-67944534D01*
X103805500Y-67742352D01*
X103805500Y-67537648D01*
X103773477Y-67335466D01*
X103710220Y-67140781D01*
X103710218Y-67140778D01*
X103710218Y-67140776D01*
X103676503Y-67074607D01*
X103617287Y-66958390D01*
X103609556Y-66947749D01*
X103496971Y-66792786D01*
X103352213Y-66648028D01*
X103186614Y-66527715D01*
X103178149Y-66523402D01*
X103093917Y-66480483D01*
X103043123Y-66432511D01*
X103026328Y-66364690D01*
X103048865Y-66298555D01*
X103093917Y-66259516D01*
X103186610Y-66212287D01*
X103207770Y-66196913D01*
X103352213Y-66091971D01*
X103352215Y-66091968D01*
X103352219Y-66091966D01*
X103496966Y-65947219D01*
X103496968Y-65947215D01*
X103496971Y-65947213D01*
X103549732Y-65874590D01*
X103617287Y-65781610D01*
X103710220Y-65599219D01*
X103773477Y-65404534D01*
X103805500Y-65202352D01*
X103805500Y-64997648D01*
X103773477Y-64795466D01*
X103710220Y-64600781D01*
X103710218Y-64600778D01*
X103710218Y-64600776D01*
X103676503Y-64534607D01*
X103617287Y-64418390D01*
X103609556Y-64407749D01*
X103496971Y-64252786D01*
X103352213Y-64108028D01*
X103186614Y-63987715D01*
X103178149Y-63983402D01*
X103093917Y-63940483D01*
X103043123Y-63892511D01*
X103026328Y-63824690D01*
X103048865Y-63758555D01*
X103093917Y-63719516D01*
X103186610Y-63672287D01*
X103207770Y-63656913D01*
X103352213Y-63551971D01*
X103352215Y-63551968D01*
X103352219Y-63551966D01*
X103496966Y-63407219D01*
X103496968Y-63407215D01*
X103496971Y-63407213D01*
X103549732Y-63334590D01*
X103617287Y-63241610D01*
X103710220Y-63059219D01*
X103773477Y-62864534D01*
X103805500Y-62662352D01*
X103805500Y-62457648D01*
X103773477Y-62255466D01*
X103710220Y-62060781D01*
X103710218Y-62060778D01*
X103710218Y-62060776D01*
X103676503Y-61994607D01*
X103617287Y-61878390D01*
X103609556Y-61867749D01*
X103496971Y-61712786D01*
X103352213Y-61568028D01*
X103186614Y-61447715D01*
X103178149Y-61443402D01*
X103093917Y-61400483D01*
X103043123Y-61352511D01*
X103026328Y-61284690D01*
X103048865Y-61218555D01*
X103093917Y-61179516D01*
X103186610Y-61132287D01*
X103207770Y-61116913D01*
X103352213Y-61011971D01*
X103352215Y-61011968D01*
X103352219Y-61011966D01*
X103496966Y-60867219D01*
X103496968Y-60867215D01*
X103496971Y-60867213D01*
X103549732Y-60794590D01*
X103617287Y-60701610D01*
X103710220Y-60519219D01*
X103773477Y-60324534D01*
X103805500Y-60122352D01*
X103805500Y-59917648D01*
X103788051Y-59807482D01*
X103773477Y-59715465D01*
X103744127Y-59625137D01*
X103710220Y-59520781D01*
X103710218Y-59520778D01*
X103710218Y-59520776D01*
X103676503Y-59454607D01*
X103617287Y-59338390D01*
X103609556Y-59327749D01*
X103496971Y-59172786D01*
X103352213Y-59028028D01*
X103186614Y-58907715D01*
X103153155Y-58890667D01*
X103093917Y-58860483D01*
X103043123Y-58812511D01*
X103026328Y-58744690D01*
X103048865Y-58678555D01*
X103093917Y-58639516D01*
X103186610Y-58592287D01*
X103207770Y-58576913D01*
X103352213Y-58471971D01*
X103352215Y-58471968D01*
X103352219Y-58471966D01*
X103496966Y-58327219D01*
X103496968Y-58327215D01*
X103496971Y-58327213D01*
X103601892Y-58182799D01*
X103617287Y-58161610D01*
X103710220Y-57979219D01*
X103773477Y-57784534D01*
X103805500Y-57582352D01*
X103805500Y-57377648D01*
X103773477Y-57175466D01*
X103710220Y-56980781D01*
X103710218Y-56980778D01*
X103710218Y-56980776D01*
X103658865Y-56879991D01*
X103617287Y-56798390D01*
X103601892Y-56777200D01*
X103496971Y-56632786D01*
X103352213Y-56488028D01*
X103186613Y-56367715D01*
X103186612Y-56367714D01*
X103186610Y-56367713D01*
X103126898Y-56337288D01*
X103004223Y-56274781D01*
X102809534Y-56211522D01*
X102634995Y-56183878D01*
X102607352Y-56179500D01*
X102402648Y-56179500D01*
X102378329Y-56183351D01*
X102200465Y-56211522D01*
X102005776Y-56274781D01*
X101823386Y-56367715D01*
X101657786Y-56488028D01*
X101513028Y-56632786D01*
X101392715Y-56798386D01*
X101299781Y-56980776D01*
X101236522Y-57175465D01*
X101204500Y-57377648D01*
X96185499Y-57377648D01*
X96185499Y-56879998D01*
X96185498Y-56879981D01*
X96174999Y-56777203D01*
X96174998Y-56777200D01*
X96119814Y-56610666D01*
X96027712Y-56461344D01*
X95903656Y-56337288D01*
X95754334Y-56245186D01*
X95587797Y-56190001D01*
X95587795Y-56190000D01*
X95485010Y-56179500D01*
X94284998Y-56179500D01*
X94284981Y-56179501D01*
X94182203Y-56190000D01*
X94182200Y-56190001D01*
X94015668Y-56245185D01*
X94015663Y-56245187D01*
X93866342Y-56337289D01*
X93742289Y-56461342D01*
X93650187Y-56610663D01*
X93650186Y-56610666D01*
X93595001Y-56777203D01*
X93595001Y-56777204D01*
X93595000Y-56777204D01*
X93584500Y-56879983D01*
X73340500Y-56879983D01*
X73340500Y-50152135D01*
X97257000Y-50152135D01*
X97257000Y-52247870D01*
X97257001Y-52247876D01*
X97263408Y-52307483D01*
X97313702Y-52442328D01*
X97313706Y-52442335D01*
X97399952Y-52557544D01*
X97399955Y-52557547D01*
X97515164Y-52643793D01*
X97515171Y-52643797D01*
X97650017Y-52694091D01*
X97650016Y-52694091D01*
X97656944Y-52694835D01*
X97709627Y-52700500D01*
X99710372Y-52700499D01*
X99769983Y-52694091D01*
X99904831Y-52643796D01*
X100020046Y-52557546D01*
X100106296Y-52442331D01*
X100116872Y-52413974D01*
X100158740Y-52358041D01*
X100224204Y-52333622D01*
X100292477Y-52348472D01*
X100305940Y-52356988D01*
X100488723Y-52489788D01*
X100692429Y-52593582D01*
X100909871Y-52664234D01*
X101000000Y-52678509D01*
X101000000Y-51690747D01*
X101037708Y-51712518D01*
X101177591Y-51750000D01*
X101322409Y-51750000D01*
X101462292Y-51712518D01*
X101500000Y-51690747D01*
X101500000Y-52678508D01*
X101590128Y-52664234D01*
X101807570Y-52593582D01*
X102011276Y-52489788D01*
X102196242Y-52355402D01*
X102357905Y-52193739D01*
X102419371Y-52109137D01*
X102474701Y-52066470D01*
X102544314Y-52060491D01*
X102606109Y-52093096D01*
X102620007Y-52109134D01*
X102681714Y-52194066D01*
X102843434Y-52355786D01*
X103028462Y-52490217D01*
X103231327Y-52593582D01*
X103232244Y-52594049D01*
X103449751Y-52664721D01*
X103449752Y-52664721D01*
X103449755Y-52664722D01*
X103675646Y-52700500D01*
X103675647Y-52700500D01*
X103904353Y-52700500D01*
X103904354Y-52700500D01*
X104130245Y-52664722D01*
X104130248Y-52664721D01*
X104130249Y-52664721D01*
X104347755Y-52594049D01*
X104347755Y-52594048D01*
X104347758Y-52594048D01*
X104551538Y-52490217D01*
X104736566Y-52355786D01*
X104898286Y-52194066D01*
X105032717Y-52009038D01*
X105136548Y-51805258D01*
X105207222Y-51587745D01*
X105243000Y-51361854D01*
X105243000Y-51038146D01*
X105207222Y-50812255D01*
X105207221Y-50812251D01*
X105207221Y-50812250D01*
X105136549Y-50594744D01*
X105032716Y-50390961D01*
X105019996Y-50373453D01*
X104898286Y-50205934D01*
X104736566Y-50044214D01*
X104551538Y-49909783D01*
X104347755Y-49805950D01*
X104130248Y-49735278D01*
X103944812Y-49705908D01*
X103904354Y-49699500D01*
X103675646Y-49699500D01*
X103635188Y-49705908D01*
X103449753Y-49735278D01*
X103449750Y-49735278D01*
X103232244Y-49805950D01*
X103028461Y-49909783D01*
X102962550Y-49957671D01*
X102843434Y-50044214D01*
X102843432Y-50044216D01*
X102843431Y-50044216D01*
X102681716Y-50205931D01*
X102681709Y-50205940D01*
X102620007Y-50290864D01*
X102564677Y-50333530D01*
X102495063Y-50339508D01*
X102433269Y-50306901D01*
X102419372Y-50290863D01*
X102357907Y-50206263D01*
X102357902Y-50206257D01*
X102196242Y-50044597D01*
X102011276Y-49910211D01*
X101807568Y-49806417D01*
X101590124Y-49735765D01*
X101500000Y-49721490D01*
X101500000Y-50709252D01*
X101462292Y-50687482D01*
X101322409Y-50650000D01*
X101177591Y-50650000D01*
X101037708Y-50687482D01*
X101000000Y-50709252D01*
X101000000Y-49721490D01*
X100999999Y-49721490D01*
X100909875Y-49735765D01*
X100692431Y-49806417D01*
X100488719Y-49910213D01*
X100305939Y-50043010D01*
X100240132Y-50066490D01*
X100172079Y-50050664D01*
X100123384Y-50000558D01*
X100116875Y-49986033D01*
X100106296Y-49957669D01*
X100106295Y-49957667D01*
X100106293Y-49957664D01*
X100020047Y-49842455D01*
X100020044Y-49842452D01*
X99904835Y-49756206D01*
X99904828Y-49756202D01*
X99769982Y-49705908D01*
X99769983Y-49705908D01*
X99710383Y-49699501D01*
X99710381Y-49699500D01*
X99710373Y-49699500D01*
X99710364Y-49699500D01*
X97709629Y-49699500D01*
X97709623Y-49699501D01*
X97650016Y-49705908D01*
X97515171Y-49756202D01*
X97515164Y-49756206D01*
X97399955Y-49842452D01*
X97399952Y-49842455D01*
X97313706Y-49957664D01*
X97313702Y-49957671D01*
X97263408Y-50092517D01*
X97257001Y-50152116D01*
X97257000Y-50152135D01*
X73340500Y-50152135D01*
X73340500Y-46472135D01*
X86779500Y-46472135D01*
X86779500Y-48567870D01*
X86779501Y-48567876D01*
X86785908Y-48627483D01*
X86836202Y-48762328D01*
X86836206Y-48762335D01*
X86922452Y-48877544D01*
X86922455Y-48877547D01*
X87037664Y-48963793D01*
X87037671Y-48963797D01*
X87172517Y-49014091D01*
X87172516Y-49014091D01*
X87179444Y-49014835D01*
X87232127Y-49020500D01*
X91327872Y-49020499D01*
X91387483Y-49014091D01*
X91522331Y-48963796D01*
X91637546Y-48877546D01*
X91723796Y-48762331D01*
X91774091Y-48627483D01*
X91780500Y-48567873D01*
X91780499Y-46472128D01*
X91774091Y-46412517D01*
X91730337Y-46295207D01*
X91723797Y-46277671D01*
X91723793Y-46277664D01*
X91637547Y-46162455D01*
X91637544Y-46162452D01*
X91522335Y-46076206D01*
X91522328Y-46076202D01*
X91387482Y-46025908D01*
X91387483Y-46025908D01*
X91327883Y-46019501D01*
X91327881Y-46019500D01*
X91327873Y-46019500D01*
X91327864Y-46019500D01*
X87232129Y-46019500D01*
X87232123Y-46019501D01*
X87172516Y-46025908D01*
X87037671Y-46076202D01*
X87037664Y-46076206D01*
X86922455Y-46162452D01*
X86922452Y-46162455D01*
X86836206Y-46277664D01*
X86836202Y-46277671D01*
X86785908Y-46412517D01*
X86779501Y-46472116D01*
X86779501Y-46472123D01*
X86779500Y-46472135D01*
X73340500Y-46472135D01*
X73340500Y-45761304D01*
X97799500Y-45761304D01*
X97799500Y-45938695D01*
X97834104Y-46112658D01*
X97834107Y-46112670D01*
X97890061Y-46247755D01*
X97899500Y-46295207D01*
X97899500Y-47804793D01*
X97890061Y-47852245D01*
X97834106Y-47987332D01*
X97834103Y-47987341D01*
X97799500Y-48161304D01*
X97799500Y-48338695D01*
X97834103Y-48512658D01*
X97834106Y-48512667D01*
X97901983Y-48676540D01*
X97901990Y-48676553D01*
X98000535Y-48824034D01*
X98000538Y-48824038D01*
X98125961Y-48949461D01*
X98125965Y-48949464D01*
X98273446Y-49048009D01*
X98273459Y-49048016D01*
X98396363Y-49098923D01*
X98437334Y-49115894D01*
X98437336Y-49115894D01*
X98437341Y-49115896D01*
X98611304Y-49150499D01*
X98611307Y-49150500D01*
X98611309Y-49150500D01*
X98788693Y-49150500D01*
X98788694Y-49150499D01*
X98846682Y-49138964D01*
X98962658Y-49115896D01*
X98962661Y-49115894D01*
X98962666Y-49115894D01*
X99126547Y-49048013D01*
X99274035Y-48949464D01*
X99399464Y-48824035D01*
X99498013Y-48676547D01*
X99565894Y-48512666D01*
X99600500Y-48338691D01*
X99600500Y-48161309D01*
X99600500Y-48161306D01*
X99600499Y-48161304D01*
X99565896Y-47987341D01*
X99565893Y-47987332D01*
X99509939Y-47852245D01*
X99500500Y-47804793D01*
X99500500Y-46295207D01*
X99509939Y-46247755D01*
X99565892Y-46112670D01*
X99565894Y-46112666D01*
X99600500Y-45938691D01*
X99600500Y-45761309D01*
X99600500Y-45761306D01*
X99600499Y-45761304D01*
X99565896Y-45587341D01*
X99565893Y-45587332D01*
X99498016Y-45423459D01*
X99498009Y-45423446D01*
X99399464Y-45275965D01*
X99399461Y-45275961D01*
X99274038Y-45150538D01*
X99274034Y-45150535D01*
X99126553Y-45051990D01*
X99126540Y-45051983D01*
X98962667Y-44984106D01*
X98962658Y-44984103D01*
X98788694Y-44949500D01*
X98788691Y-44949500D01*
X98611309Y-44949500D01*
X98611306Y-44949500D01*
X98437341Y-44984103D01*
X98437332Y-44984106D01*
X98273459Y-45051983D01*
X98273446Y-45051990D01*
X98125965Y-45150535D01*
X98125961Y-45150538D01*
X98000538Y-45275961D01*
X98000535Y-45275965D01*
X97901990Y-45423446D01*
X97901983Y-45423459D01*
X97834106Y-45587332D01*
X97834103Y-45587341D01*
X97799500Y-45761304D01*
X73340500Y-45761304D01*
X73340500Y-39981995D01*
X76299500Y-39981995D01*
X76299500Y-40218004D01*
X76299501Y-40218020D01*
X76330306Y-40452010D01*
X76391394Y-40679993D01*
X76481714Y-40898045D01*
X76481719Y-40898056D01*
X76552124Y-41020000D01*
X76599727Y-41102450D01*
X76599729Y-41102453D01*
X76599730Y-41102454D01*
X76743406Y-41289697D01*
X76743412Y-41289704D01*
X76910295Y-41456587D01*
X76910301Y-41456592D01*
X77097550Y-41600273D01*
X77228918Y-41676118D01*
X77301943Y-41718280D01*
X77301948Y-41718282D01*
X77301951Y-41718284D01*
X77520007Y-41808606D01*
X77747986Y-41869693D01*
X77981989Y-41900500D01*
X77981996Y-41900500D01*
X78218004Y-41900500D01*
X78218011Y-41900500D01*
X78452014Y-41869693D01*
X78679993Y-41808606D01*
X78898049Y-41718284D01*
X79102450Y-41600273D01*
X79289699Y-41456592D01*
X79456592Y-41289699D01*
X79600273Y-41102450D01*
X79718284Y-40898049D01*
X79808606Y-40679993D01*
X79869693Y-40452014D01*
X79900500Y-40218011D01*
X79900500Y-39981989D01*
X79869693Y-39747986D01*
X79843947Y-39651902D01*
X83279500Y-39651902D01*
X83279500Y-41388097D01*
X83316446Y-41621368D01*
X83389433Y-41845996D01*
X83427191Y-41920099D01*
X83496657Y-42056433D01*
X83635483Y-42247510D01*
X83802490Y-42414517D01*
X83993567Y-42553343D01*
X84092991Y-42604002D01*
X84204003Y-42660566D01*
X84204005Y-42660566D01*
X84204008Y-42660568D01*
X84324412Y-42699689D01*
X84428631Y-42733553D01*
X84661903Y-42770500D01*
X84661908Y-42770500D01*
X84898097Y-42770500D01*
X85131368Y-42733553D01*
X85355992Y-42660568D01*
X85566433Y-42553343D01*
X85757510Y-42414517D01*
X85924517Y-42247510D01*
X86063343Y-42056433D01*
X86170568Y-41845992D01*
X86212063Y-41718284D01*
X86219753Y-41694618D01*
X86219753Y-41694617D01*
X86243552Y-41621372D01*
X86243552Y-41621371D01*
X86243553Y-41621368D01*
X86270034Y-41454174D01*
X86280500Y-41388097D01*
X86280500Y-41270000D01*
X87150898Y-41270000D01*
X88196988Y-41270000D01*
X88164075Y-41327007D01*
X88130000Y-41454174D01*
X88130000Y-41585826D01*
X88164075Y-41712993D01*
X88196988Y-41770000D01*
X87150898Y-41770000D01*
X87166934Y-41871247D01*
X87239897Y-42095802D01*
X87347085Y-42306171D01*
X87485866Y-42497186D01*
X87652813Y-42664133D01*
X87843828Y-42802914D01*
X88054197Y-42910102D01*
X88278752Y-42983065D01*
X88278751Y-42983065D01*
X88511948Y-43020000D01*
X89030000Y-43020000D01*
X89030000Y-42020000D01*
X89530000Y-42020000D01*
X89530000Y-43020000D01*
X90048052Y-43020000D01*
X90281247Y-42983065D01*
X90505802Y-42910102D01*
X90716171Y-42802914D01*
X90907186Y-42664133D01*
X91074133Y-42497186D01*
X91212914Y-42306171D01*
X91320102Y-42095802D01*
X91393065Y-41871247D01*
X91409102Y-41770000D01*
X90363012Y-41770000D01*
X90395925Y-41712993D01*
X90430000Y-41585826D01*
X90430000Y-41454174D01*
X90395925Y-41327007D01*
X90363012Y-41270000D01*
X91409102Y-41270000D01*
X91393065Y-41168752D01*
X91320102Y-40944197D01*
X91212914Y-40733828D01*
X91074133Y-40542813D01*
X90907186Y-40375866D01*
X90716171Y-40237085D01*
X90505802Y-40129897D01*
X90281247Y-40056934D01*
X90281248Y-40056934D01*
X90048052Y-40020000D01*
X89530000Y-40020000D01*
X89530000Y-41020000D01*
X89030000Y-41020000D01*
X89030000Y-40020000D01*
X88511948Y-40020000D01*
X88278752Y-40056934D01*
X88054197Y-40129897D01*
X87843828Y-40237085D01*
X87652813Y-40375866D01*
X87485866Y-40542813D01*
X87347085Y-40733828D01*
X87239897Y-40944197D01*
X87166934Y-41168752D01*
X87150898Y-41270000D01*
X86280500Y-41270000D01*
X86280500Y-39651902D01*
X92279500Y-39651902D01*
X92279500Y-41388097D01*
X92316446Y-41621368D01*
X92389433Y-41845996D01*
X92427191Y-41920099D01*
X92496657Y-42056433D01*
X92635483Y-42247510D01*
X92802490Y-42414517D01*
X92993567Y-42553343D01*
X93092991Y-42604002D01*
X93204003Y-42660566D01*
X93204005Y-42660566D01*
X93204008Y-42660568D01*
X93324412Y-42699689D01*
X93428631Y-42733553D01*
X93661903Y-42770500D01*
X93661908Y-42770500D01*
X93898097Y-42770500D01*
X94131368Y-42733553D01*
X94355992Y-42660568D01*
X94566433Y-42553343D01*
X94757510Y-42414517D01*
X94924517Y-42247510D01*
X95063343Y-42056433D01*
X95170568Y-41845992D01*
X95243553Y-41621368D01*
X95270034Y-41454174D01*
X95280500Y-41388097D01*
X95280500Y-41381902D01*
X95999500Y-41381902D01*
X95999500Y-41618097D01*
X96036446Y-41851368D01*
X96109433Y-42075996D01*
X96196825Y-42247510D01*
X96216657Y-42286433D01*
X96355483Y-42477510D01*
X96522490Y-42644517D01*
X96713567Y-42783343D01*
X96812991Y-42834002D01*
X96924003Y-42890566D01*
X96924005Y-42890566D01*
X96924008Y-42890568D01*
X97044412Y-42929689D01*
X97148631Y-42963553D01*
X97381903Y-43000500D01*
X97381908Y-43000500D01*
X97618097Y-43000500D01*
X97851368Y-42963553D01*
X98075992Y-42890568D01*
X98286433Y-42783343D01*
X98477510Y-42644517D01*
X98644517Y-42477510D01*
X98783343Y-42286433D01*
X98890568Y-42075992D01*
X98963553Y-41851368D01*
X98970326Y-41808605D01*
X99000500Y-41618097D01*
X99000500Y-41381902D01*
X102499500Y-41381902D01*
X102499500Y-41618097D01*
X102536446Y-41851368D01*
X102609433Y-42075996D01*
X102696825Y-42247510D01*
X102716657Y-42286433D01*
X102855483Y-42477510D01*
X103022490Y-42644517D01*
X103213567Y-42783343D01*
X103312991Y-42834002D01*
X103424003Y-42890566D01*
X103424005Y-42890566D01*
X103424008Y-42890568D01*
X103544412Y-42929689D01*
X103648631Y-42963553D01*
X103881903Y-43000500D01*
X103881908Y-43000500D01*
X104118097Y-43000500D01*
X104351368Y-42963553D01*
X104575992Y-42890568D01*
X104786433Y-42783343D01*
X104977510Y-42644517D01*
X105144517Y-42477510D01*
X105283343Y-42286433D01*
X105390568Y-42075992D01*
X105463553Y-41851368D01*
X105470326Y-41808605D01*
X105500500Y-41618097D01*
X105500500Y-41381902D01*
X105463553Y-41148631D01*
X105390566Y-40924003D01*
X105283342Y-40713566D01*
X105144517Y-40522490D01*
X104977510Y-40355483D01*
X104786433Y-40216657D01*
X104575996Y-40109433D01*
X104554772Y-40102537D01*
X104493099Y-40082498D01*
X104351368Y-40036446D01*
X104118097Y-39999500D01*
X104118092Y-39999500D01*
X103881908Y-39999500D01*
X103881903Y-39999500D01*
X103648631Y-40036446D01*
X103424003Y-40109433D01*
X103213566Y-40216657D01*
X103185450Y-40237085D01*
X103022490Y-40355483D01*
X103022488Y-40355485D01*
X103022487Y-40355485D01*
X102855485Y-40522487D01*
X102855485Y-40522488D01*
X102855483Y-40522490D01*
X102795862Y-40604550D01*
X102716657Y-40713566D01*
X102609433Y-40924003D01*
X102536446Y-41148631D01*
X102499500Y-41381902D01*
X99000500Y-41381902D01*
X98963553Y-41148631D01*
X98890566Y-40924003D01*
X98783342Y-40713566D01*
X98644517Y-40522490D01*
X98477510Y-40355483D01*
X98286433Y-40216657D01*
X98075996Y-40109433D01*
X97851368Y-40036446D01*
X97618097Y-39999500D01*
X97618092Y-39999500D01*
X97381908Y-39999500D01*
X97381903Y-39999500D01*
X97148631Y-40036446D01*
X96924003Y-40109433D01*
X96713566Y-40216657D01*
X96685450Y-40237085D01*
X96522490Y-40355483D01*
X96522488Y-40355485D01*
X96522487Y-40355485D01*
X96355485Y-40522487D01*
X96355485Y-40522488D01*
X96355483Y-40522490D01*
X96295862Y-40604550D01*
X96216657Y-40713566D01*
X96109433Y-40924003D01*
X96036446Y-41148631D01*
X95999500Y-41381902D01*
X95280500Y-41381902D01*
X95280500Y-39981995D01*
X117599500Y-39981995D01*
X117599500Y-40218004D01*
X117599501Y-40218020D01*
X117630306Y-40452010D01*
X117691394Y-40679993D01*
X117781714Y-40898045D01*
X117781719Y-40898056D01*
X117852124Y-41020000D01*
X117899727Y-41102450D01*
X117899729Y-41102453D01*
X117899730Y-41102454D01*
X118043406Y-41289697D01*
X118043412Y-41289704D01*
X118210295Y-41456587D01*
X118210301Y-41456592D01*
X118397550Y-41600273D01*
X118528918Y-41676118D01*
X118601943Y-41718280D01*
X118601948Y-41718282D01*
X118601951Y-41718284D01*
X118820007Y-41808606D01*
X119047986Y-41869693D01*
X119281989Y-41900500D01*
X119281996Y-41900500D01*
X119518004Y-41900500D01*
X119518011Y-41900500D01*
X119752014Y-41869693D01*
X119979993Y-41808606D01*
X120198049Y-41718284D01*
X120402450Y-41600273D01*
X120589699Y-41456592D01*
X120756592Y-41289699D01*
X120900273Y-41102450D01*
X121018284Y-40898049D01*
X121108606Y-40679993D01*
X121169693Y-40452014D01*
X121200500Y-40218011D01*
X121200500Y-39981989D01*
X121169693Y-39747986D01*
X121108606Y-39520007D01*
X121018284Y-39301951D01*
X121018282Y-39301948D01*
X121018280Y-39301943D01*
X120955960Y-39194003D01*
X120900273Y-39097550D01*
X120756592Y-38910301D01*
X120756587Y-38910295D01*
X120589704Y-38743412D01*
X120589697Y-38743406D01*
X120402454Y-38599730D01*
X120402453Y-38599729D01*
X120402450Y-38599727D01*
X120320957Y-38552677D01*
X120198056Y-38481719D01*
X120198045Y-38481714D01*
X119979993Y-38391394D01*
X119752010Y-38330306D01*
X119518020Y-38299501D01*
X119518017Y-38299500D01*
X119518011Y-38299500D01*
X119281989Y-38299500D01*
X119281983Y-38299500D01*
X119281979Y-38299501D01*
X119047989Y-38330306D01*
X118820006Y-38391394D01*
X118601954Y-38481714D01*
X118601943Y-38481719D01*
X118397545Y-38599730D01*
X118210302Y-38743406D01*
X118210295Y-38743412D01*
X118043412Y-38910295D01*
X118043406Y-38910302D01*
X117899730Y-39097545D01*
X117781719Y-39301943D01*
X117781714Y-39301954D01*
X117691394Y-39520006D01*
X117630306Y-39747989D01*
X117599501Y-39981979D01*
X117599500Y-39981995D01*
X95280500Y-39981995D01*
X95280500Y-39651902D01*
X95243553Y-39418631D01*
X95170566Y-39194003D01*
X95063342Y-38983566D01*
X94924517Y-38792490D01*
X94757510Y-38625483D01*
X94566433Y-38486657D01*
X94521089Y-38463553D01*
X94355996Y-38379433D01*
X94131368Y-38306446D01*
X93898097Y-38269500D01*
X93898092Y-38269500D01*
X93661908Y-38269500D01*
X93661903Y-38269500D01*
X93428631Y-38306446D01*
X93204003Y-38379433D01*
X92993566Y-38486657D01*
X92884550Y-38565862D01*
X92802490Y-38625483D01*
X92802488Y-38625485D01*
X92802487Y-38625485D01*
X92635485Y-38792487D01*
X92635485Y-38792488D01*
X92635483Y-38792490D01*
X92575862Y-38874550D01*
X92496657Y-38983566D01*
X92389433Y-39194003D01*
X92316446Y-39418631D01*
X92279500Y-39651902D01*
X86280500Y-39651902D01*
X86243553Y-39418631D01*
X86170566Y-39194003D01*
X86063342Y-38983566D01*
X85924517Y-38792490D01*
X85757510Y-38625483D01*
X85747958Y-38618543D01*
X88279499Y-38618543D01*
X88317947Y-38811829D01*
X88317950Y-38811839D01*
X88393364Y-38993907D01*
X88393371Y-38993920D01*
X88502860Y-39157781D01*
X88502863Y-39157785D01*
X88642214Y-39297136D01*
X88642218Y-39297139D01*
X88806079Y-39406628D01*
X88806092Y-39406635D01*
X88988160Y-39482049D01*
X88988165Y-39482051D01*
X88988169Y-39482051D01*
X88988170Y-39482052D01*
X89181456Y-39520500D01*
X89181459Y-39520500D01*
X89378543Y-39520500D01*
X89508582Y-39494632D01*
X89571835Y-39482051D01*
X89753914Y-39406632D01*
X89917782Y-39297139D01*
X90057139Y-39157782D01*
X90166632Y-38993914D01*
X90242051Y-38811835D01*
X90279119Y-38625485D01*
X90280500Y-38618543D01*
X90280500Y-38421456D01*
X90242052Y-38228170D01*
X90242051Y-38228169D01*
X90242051Y-38228165D01*
X90207402Y-38144514D01*
X90166635Y-38046092D01*
X90166628Y-38046079D01*
X90057139Y-37882218D01*
X90057136Y-37882214D01*
X89917785Y-37742863D01*
X89917781Y-37742860D01*
X89753920Y-37633371D01*
X89753907Y-37633364D01*
X89571839Y-37557950D01*
X89571829Y-37557947D01*
X89378543Y-37519500D01*
X89378541Y-37519500D01*
X89181459Y-37519500D01*
X89181457Y-37519500D01*
X88988170Y-37557947D01*
X88988160Y-37557950D01*
X88806092Y-37633364D01*
X88806079Y-37633371D01*
X88642218Y-37742860D01*
X88642214Y-37742863D01*
X88502863Y-37882214D01*
X88502860Y-37882218D01*
X88393371Y-38046079D01*
X88393364Y-38046092D01*
X88317950Y-38228160D01*
X88317947Y-38228170D01*
X88279500Y-38421456D01*
X88279500Y-38421459D01*
X88279500Y-38618541D01*
X88279500Y-38618543D01*
X88279499Y-38618543D01*
X85747958Y-38618543D01*
X85566433Y-38486657D01*
X85521089Y-38463553D01*
X85355996Y-38379433D01*
X85131368Y-38306446D01*
X84898097Y-38269500D01*
X84898092Y-38269500D01*
X84661908Y-38269500D01*
X84661903Y-38269500D01*
X84428631Y-38306446D01*
X84204003Y-38379433D01*
X83993566Y-38486657D01*
X83884550Y-38565862D01*
X83802490Y-38625483D01*
X83802488Y-38625485D01*
X83802487Y-38625485D01*
X83635485Y-38792487D01*
X83635485Y-38792488D01*
X83635483Y-38792490D01*
X83575862Y-38874550D01*
X83496657Y-38983566D01*
X83389433Y-39194003D01*
X83316446Y-39418631D01*
X83279500Y-39651902D01*
X79843947Y-39651902D01*
X79808606Y-39520007D01*
X79718284Y-39301951D01*
X79718282Y-39301948D01*
X79718280Y-39301943D01*
X79655960Y-39194003D01*
X79600273Y-39097550D01*
X79456592Y-38910301D01*
X79456587Y-38910295D01*
X79289704Y-38743412D01*
X79289697Y-38743406D01*
X79102454Y-38599730D01*
X79102453Y-38599729D01*
X79102450Y-38599727D01*
X79020957Y-38552677D01*
X78898056Y-38481719D01*
X78898045Y-38481714D01*
X78679993Y-38391394D01*
X78452010Y-38330306D01*
X78218020Y-38299501D01*
X78218017Y-38299500D01*
X78218011Y-38299500D01*
X77981989Y-38299500D01*
X77981983Y-38299500D01*
X77981979Y-38299501D01*
X77747989Y-38330306D01*
X77520006Y-38391394D01*
X77301954Y-38481714D01*
X77301943Y-38481719D01*
X77097545Y-38599730D01*
X76910302Y-38743406D01*
X76910295Y-38743412D01*
X76743412Y-38910295D01*
X76743406Y-38910302D01*
X76599730Y-39097545D01*
X76481719Y-39301943D01*
X76481714Y-39301954D01*
X76391394Y-39520006D01*
X76330306Y-39747989D01*
X76299501Y-39981979D01*
X76299500Y-39981995D01*
X73340500Y-39981995D01*
X73340500Y-36881902D01*
X95999500Y-36881902D01*
X95999500Y-37118097D01*
X96036446Y-37351368D01*
X96109433Y-37575996D01*
X96194455Y-37742860D01*
X96216657Y-37786433D01*
X96355483Y-37977510D01*
X96522490Y-38144517D01*
X96713567Y-38283343D01*
X96805737Y-38330306D01*
X96924003Y-38390566D01*
X96924005Y-38390566D01*
X96924008Y-38390568D01*
X97044412Y-38429689D01*
X97148631Y-38463553D01*
X97381903Y-38500500D01*
X97381908Y-38500500D01*
X97618097Y-38500500D01*
X97851368Y-38463553D01*
X98075992Y-38390568D01*
X98286433Y-38283343D01*
X98477510Y-38144517D01*
X98644517Y-37977510D01*
X98783343Y-37786433D01*
X98890568Y-37575992D01*
X98963553Y-37351368D01*
X99000500Y-37118097D01*
X99000500Y-36881902D01*
X102499500Y-36881902D01*
X102499500Y-37118097D01*
X102536446Y-37351368D01*
X102609433Y-37575996D01*
X102694455Y-37742860D01*
X102716657Y-37786433D01*
X102855483Y-37977510D01*
X103022490Y-38144517D01*
X103213567Y-38283343D01*
X103305737Y-38330306D01*
X103424003Y-38390566D01*
X103424005Y-38390566D01*
X103424008Y-38390568D01*
X103544412Y-38429689D01*
X103648631Y-38463553D01*
X103881903Y-38500500D01*
X103881908Y-38500500D01*
X104118097Y-38500500D01*
X104351368Y-38463553D01*
X104575992Y-38390568D01*
X104786433Y-38283343D01*
X104977510Y-38144517D01*
X105144517Y-37977510D01*
X105283343Y-37786433D01*
X105390568Y-37575992D01*
X105463553Y-37351368D01*
X105500500Y-37118097D01*
X105500500Y-36881902D01*
X105463553Y-36648631D01*
X105390566Y-36424003D01*
X105283342Y-36213566D01*
X105144517Y-36022490D01*
X104977510Y-35855483D01*
X104786433Y-35716657D01*
X104575996Y-35609433D01*
X104351368Y-35536446D01*
X104118097Y-35499500D01*
X104118092Y-35499500D01*
X103881908Y-35499500D01*
X103881903Y-35499500D01*
X103648631Y-35536446D01*
X103424003Y-35609433D01*
X103213566Y-35716657D01*
X103104550Y-35795862D01*
X103022490Y-35855483D01*
X103022488Y-35855485D01*
X103022487Y-35855485D01*
X102855485Y-36022487D01*
X102855485Y-36022488D01*
X102855483Y-36022490D01*
X102795862Y-36104550D01*
X102716657Y-36213566D01*
X102609433Y-36424003D01*
X102536446Y-36648631D01*
X102499500Y-36881902D01*
X99000500Y-36881902D01*
X98963553Y-36648631D01*
X98890566Y-36424003D01*
X98783342Y-36213566D01*
X98644517Y-36022490D01*
X98477510Y-35855483D01*
X98286433Y-35716657D01*
X98075996Y-35609433D01*
X97851368Y-35536446D01*
X97618097Y-35499500D01*
X97618092Y-35499500D01*
X97381908Y-35499500D01*
X97381903Y-35499500D01*
X97148631Y-35536446D01*
X96924003Y-35609433D01*
X96713566Y-35716657D01*
X96604550Y-35795862D01*
X96522490Y-35855483D01*
X96522488Y-35855485D01*
X96522487Y-35855485D01*
X96355485Y-36022487D01*
X96355485Y-36022488D01*
X96355483Y-36022490D01*
X96295862Y-36104550D01*
X96216657Y-36213566D01*
X96109433Y-36424003D01*
X96036446Y-36648631D01*
X95999500Y-36881902D01*
X73340500Y-36881902D01*
X73340500Y-35364500D01*
X73360185Y-35297461D01*
X73412989Y-35251706D01*
X73464500Y-35240500D01*
X124015500Y-35240500D01*
X124082539Y-35260185D01*
G37*
%TD.AperFunction*%
%TD*%
M02*
