%TF.GenerationSoftware,KiCad,Pcbnew,9.0.7*%
%TF.CreationDate,2026-02-28T16:38:49+05:30*%
%TF.ProjectId,E205 AVR Board design IPD task 1,45323035-2041-4565-9220-426f61726420,rev?*%
%TF.SameCoordinates,Original*%
%TF.FileFunction,Soldermask,Top*%
%TF.FilePolarity,Negative*%
%FSLAX46Y46*%
G04 Gerber Fmt 4.6, Leading zero omitted, Abs format (unit mm)*
G04 Created by KiCad (PCBNEW 9.0.7) date 2026-02-28 16:38:49*
%MOMM*%
%LPD*%
G01*
G04 APERTURE LIST*
G04 Aperture macros list*
%AMRoundRect*
0 Rectangle with rounded corners*
0 $1 Rounding radius*
0 $2 $3 $4 $5 $6 $7 $8 $9 X,Y pos of 4 corners*
0 Add a 4 corners polygon primitive as box body*
4,1,4,$2,$3,$4,$5,$6,$7,$8,$9,$2,$3,0*
0 Add four circle primitives for the rounded corners*
1,1,$1+$1,$2,$3*
1,1,$1+$1,$4,$5*
1,1,$1+$1,$6,$7*
1,1,$1+$1,$8,$9*
0 Add four rect primitives between the rounded corners*
20,1,$1+$1,$2,$3,$4,$5,0*
20,1,$1+$1,$4,$5,$6,$7,0*
20,1,$1+$1,$6,$7,$8,$9,0*
20,1,$1+$1,$8,$9,$2,$3,0*%
G04 Aperture macros list end*
%ADD10R,1.700000X1.700000*%
%ADD11C,1.700000*%
%ADD12RoundRect,0.250000X-0.450000X0.262500X-0.450000X-0.262500X0.450000X-0.262500X0.450000X0.262500X0*%
%ADD13RoundRect,0.250000X-0.550000X-0.550000X0.550000X-0.550000X0.550000X0.550000X-0.550000X0.550000X0*%
%ADD14C,1.600000*%
%ADD15RoundRect,0.250000X-0.475000X0.250000X-0.475000X-0.250000X0.475000X-0.250000X0.475000X0.250000X0*%
%ADD16RoundRect,0.375000X-0.625000X-0.375000X0.625000X-0.375000X0.625000X0.375000X-0.625000X0.375000X0*%
%ADD17RoundRect,0.500000X-0.500000X-1.400000X0.500000X-1.400000X0.500000X1.400000X-0.500000X1.400000X0*%
%ADD18RoundRect,0.250000X0.262500X0.450000X-0.262500X0.450000X-0.262500X-0.450000X0.262500X-0.450000X0*%
%ADD19C,3.200000*%
%ADD20RoundRect,0.250000X-0.750000X-0.750000X0.750000X-0.750000X0.750000X0.750000X-0.750000X0.750000X0*%
%ADD21C,2.000000*%
%ADD22RoundRect,0.250000X-0.250000X-0.475000X0.250000X-0.475000X0.250000X0.475000X-0.250000X0.475000X0*%
%ADD23RoundRect,0.250000X0.475000X-0.250000X0.475000X0.250000X-0.475000X0.250000X-0.475000X-0.250000X0*%
%ADD24RoundRect,0.150000X-0.587500X-0.150000X0.587500X-0.150000X0.587500X0.150000X-0.587500X0.150000X0*%
%ADD25RoundRect,0.243750X-0.243750X-0.456250X0.243750X-0.456250X0.243750X0.456250X-0.243750X0.456250X0*%
%ADD26R,4.000000X2.000000*%
%ADD27O,3.300000X2.000000*%
%ADD28O,2.000000X3.500000*%
%ADD29RoundRect,0.250000X-0.600000X-0.600000X0.600000X-0.600000X0.600000X0.600000X-0.600000X0.600000X0*%
%ADD30R,2.000000X2.000000*%
%ADD31RoundRect,0.218750X-0.381250X0.218750X-0.381250X-0.218750X0.381250X-0.218750X0.381250X0.218750X0*%
%ADD32R,1.905000X2.000000*%
%ADD33O,1.905000X2.000000*%
%ADD34R,2.000000X4.000000*%
%ADD35O,2.000000X3.300000*%
%ADD36O,3.500000X2.000000*%
%ADD37C,1.500000*%
%ADD38RoundRect,0.250000X0.250000X0.475000X-0.250000X0.475000X-0.250000X-0.475000X0.250000X-0.475000X0*%
%ADD39RoundRect,0.250000X-0.750000X0.750000X-0.750000X-0.750000X0.750000X-0.750000X0.750000X0.750000X0*%
%ADD40R,1.500000X1.050000*%
%ADD41O,1.500000X1.050000*%
G04 APERTURE END LIST*
D10*
%TO.C,J9*%
X122600000Y-125270000D03*
D11*
X122600000Y-127810000D03*
X122600000Y-130350000D03*
X122600000Y-132890000D03*
X122600000Y-135430000D03*
X122600000Y-137970000D03*
X122600000Y-140510000D03*
X122600000Y-143050000D03*
%TD*%
D12*
%TO.C,R2*%
X111850000Y-89367500D03*
X111850000Y-91192500D03*
%TD*%
D13*
%TO.C,U1*%
X94885000Y-57480000D03*
D14*
X94885000Y-60020000D03*
X94885000Y-62560000D03*
X94885000Y-65100000D03*
X94885000Y-67640000D03*
X94885000Y-70180000D03*
X94885000Y-72720000D03*
X94885000Y-75260000D03*
X94885000Y-77800000D03*
X94885000Y-80340000D03*
X94885000Y-82880000D03*
X94885000Y-85420000D03*
X94885000Y-87960000D03*
X94885000Y-90500000D03*
X102505000Y-90500000D03*
X102505000Y-87960000D03*
X102505000Y-85420000D03*
X102505000Y-82880000D03*
X102505000Y-80340000D03*
X102505000Y-77800000D03*
X102505000Y-75260000D03*
X102505000Y-72720000D03*
X102505000Y-70180000D03*
X102505000Y-67640000D03*
X102505000Y-65100000D03*
X102505000Y-62560000D03*
X102505000Y-60020000D03*
X102505000Y-57480000D03*
%TD*%
D15*
%TO.C,C4*%
X91250000Y-72980000D03*
X91250000Y-74880000D03*
%TD*%
D16*
%TO.C,U3*%
X113550000Y-47625000D03*
X113550000Y-49925000D03*
D17*
X119850000Y-49925000D03*
D16*
X113550000Y-52225000D03*
%TD*%
D18*
%TO.C,R3*%
X90650000Y-88080000D03*
X88825000Y-88080000D03*
%TD*%
D19*
%TO.C,H4*%
X78100000Y-150050000D03*
%TD*%
D20*
%TO.C,J7*%
X86580000Y-150850000D03*
D21*
X90390000Y-150850000D03*
%TD*%
D19*
%TO.C,H3*%
X119400000Y-150050000D03*
%TD*%
D21*
%TO.C,SW1*%
X122800000Y-99100000D03*
X116300000Y-99100000D03*
X122800000Y-94600000D03*
X116300000Y-94600000D03*
%TD*%
D22*
%TO.C,C10*%
X110550000Y-42000000D03*
X112450000Y-42000000D03*
%TD*%
D23*
%TO.C,C8*%
X88450000Y-78730000D03*
X88450000Y-76830000D03*
%TD*%
D24*
%TO.C,Q1*%
X108162500Y-47000000D03*
X108162500Y-48900000D03*
X110037500Y-47950000D03*
%TD*%
D25*
%TO.C,D2*%
X83275000Y-88080000D03*
X85150000Y-88080000D03*
%TD*%
D14*
%TO.C,J4*%
X89280000Y-38520000D03*
D26*
X89280000Y-47520000D03*
D27*
X89280000Y-41520000D03*
D28*
X93780000Y-40520000D03*
X84780000Y-40520000D03*
%TD*%
D13*
%TO.C,U5*%
X104100000Y-119550000D03*
D14*
X104100000Y-122090000D03*
X104100000Y-124630000D03*
X104100000Y-127170000D03*
X104100000Y-129710000D03*
X104100000Y-132250000D03*
X104100000Y-134790000D03*
X104100000Y-137330000D03*
X104100000Y-139870000D03*
X111720000Y-139870000D03*
X111720000Y-137330000D03*
X111720000Y-134790000D03*
X111720000Y-132250000D03*
X111720000Y-129710000D03*
X111720000Y-127170000D03*
X111720000Y-124630000D03*
X111720000Y-122090000D03*
X111720000Y-119550000D03*
%TD*%
D25*
%TO.C,D3*%
X83275000Y-91480000D03*
X85150000Y-91480000D03*
%TD*%
D29*
%TO.C,J1*%
X118110000Y-80940000D03*
D11*
X120650000Y-80940000D03*
X118110000Y-83480000D03*
X120650000Y-83480000D03*
X118110000Y-86020000D03*
X120650000Y-86020000D03*
%TD*%
D30*
%TO.C,BZ1*%
X112850000Y-109200000D03*
D21*
X105250000Y-109200000D03*
%TD*%
D10*
%TO.C,J3*%
X74950000Y-58850000D03*
D11*
X74950000Y-61390000D03*
X74950000Y-63930000D03*
X74950000Y-66470000D03*
X74950000Y-69010000D03*
X74950000Y-71550000D03*
X74950000Y-74090000D03*
X74950000Y-76630000D03*
%TD*%
D31*
%TO.C,FB1*%
X107500000Y-39875000D03*
X107500000Y-42000000D03*
%TD*%
D15*
%TO.C,C2*%
X111820000Y-97930000D03*
X111820000Y-99830000D03*
%TD*%
D18*
%TO.C,R4*%
X90650000Y-91480000D03*
X88825000Y-91480000D03*
%TD*%
D10*
%TO.C,J10*%
X122600000Y-103940000D03*
D11*
X122600000Y-106480000D03*
X122600000Y-109020000D03*
X122600000Y-111560000D03*
X122600000Y-114100000D03*
X122600000Y-116640000D03*
X122600000Y-119180000D03*
X122600000Y-121720000D03*
%TD*%
D32*
%TO.C,U2*%
X98710000Y-51200000D03*
D33*
X101250000Y-51200000D03*
X103790000Y-51200000D03*
%TD*%
D20*
%TO.C,J8*%
X95190000Y-150850000D03*
D21*
X99000000Y-150850000D03*
%TD*%
D14*
%TO.C,J5*%
X76600000Y-103250000D03*
D34*
X85600000Y-103250000D03*
D35*
X79600000Y-103250000D03*
D36*
X78600000Y-98750000D03*
X78600000Y-107750000D03*
%TD*%
D21*
%TO.C,SW2*%
X97500000Y-37000000D03*
X104000000Y-37000000D03*
X97500000Y-41500000D03*
X104000000Y-41500000D03*
%TD*%
D10*
%TO.C,J2*%
X122550000Y-71550000D03*
D11*
X122550000Y-69010000D03*
X122550000Y-66470000D03*
X122550000Y-63930000D03*
X122550000Y-61390000D03*
X122550000Y-58850000D03*
%TD*%
D15*
%TO.C,C3*%
X108250000Y-97930000D03*
X108250000Y-99830000D03*
%TD*%
D12*
%TO.C,R5*%
X94950000Y-95875000D03*
X94950000Y-97700000D03*
%TD*%
D19*
%TO.C,H1*%
X78100000Y-40100000D03*
%TD*%
D22*
%TO.C,C9*%
X110550000Y-37990000D03*
X112450000Y-37990000D03*
%TD*%
D23*
%TO.C,C1*%
X106350000Y-74880000D03*
X106350000Y-72980000D03*
%TD*%
D37*
%TO.C,Y1*%
X83550000Y-80120000D03*
X83550000Y-75240000D03*
%TD*%
D23*
%TO.C,C6*%
X91550000Y-80330000D03*
X91550000Y-78430000D03*
%TD*%
D38*
%TO.C,C7*%
X108100000Y-54600000D03*
X106200000Y-54600000D03*
%TD*%
D22*
%TO.C,C5*%
X105300000Y-77830000D03*
X107200000Y-77830000D03*
%TD*%
D13*
%TO.C,U4*%
X90980000Y-103460000D03*
D14*
X90980000Y-106000000D03*
X90980000Y-108540000D03*
X90980000Y-111080000D03*
X90980000Y-113620000D03*
X90980000Y-116160000D03*
X90980000Y-118700000D03*
X90980000Y-121240000D03*
X98600000Y-121240000D03*
X98600000Y-118700000D03*
X98600000Y-116160000D03*
X98600000Y-113620000D03*
X98600000Y-111080000D03*
X98600000Y-108540000D03*
X98600000Y-106000000D03*
X98600000Y-103460000D03*
%TD*%
D12*
%TO.C,R1*%
X111850000Y-93367500D03*
X111850000Y-95192500D03*
%TD*%
D19*
%TO.C,H2*%
X119400000Y-40100000D03*
%TD*%
D39*
%TO.C,J6*%
X77200000Y-112640000D03*
D21*
X77200000Y-116450000D03*
X77200000Y-120260000D03*
X77200000Y-124070000D03*
X77200000Y-127880000D03*
X77200000Y-131690000D03*
%TD*%
D15*
%TO.C,D1*%
X108250000Y-89355000D03*
X108250000Y-91255000D03*
%TD*%
D22*
%TO.C,C11*%
X88750000Y-96950000D03*
X90650000Y-96950000D03*
%TD*%
D40*
%TO.C,Q2*%
X100700000Y-95560000D03*
D41*
X100700000Y-96830000D03*
X100700000Y-98100000D03*
%TD*%
M02*
