%TF.GenerationSoftware,KiCad,Pcbnew,9.0.7*%
%TF.CreationDate,2026-02-28T16:38:49+05:30*%
%TF.ProjectId,E205 AVR Board design IPD task 1,45323035-2041-4565-9220-426f61726420,rev?*%
%TF.SameCoordinates,Original*%
%TF.FileFunction,Paste,Top*%
%TF.FilePolarity,Positive*%
%FSLAX46Y46*%
G04 Gerber Fmt 4.6, Leading zero omitted, Abs format (unit mm)*
G04 Created by KiCad (PCBNEW 9.0.7) date 2026-02-28 16:38:49*
%MOMM*%
%LPD*%
G01*
G04 APERTURE LIST*
G04 Aperture macros list*
%AMRoundRect*
0 Rectangle with rounded corners*
0 $1 Rounding radius*
0 $2 $3 $4 $5 $6 $7 $8 $9 X,Y pos of 4 corners*
0 Add a 4 corners polygon primitive as box body*
4,1,4,$2,$3,$4,$5,$6,$7,$8,$9,$2,$3,0*
0 Add four circle primitives for the rounded corners*
1,1,$1+$1,$2,$3*
1,1,$1+$1,$4,$5*
1,1,$1+$1,$6,$7*
1,1,$1+$1,$8,$9*
0 Add four rect primitives between the rounded corners*
20,1,$1+$1,$2,$3,$4,$5,0*
20,1,$1+$1,$4,$5,$6,$7,0*
20,1,$1+$1,$6,$7,$8,$9,0*
20,1,$1+$1,$8,$9,$2,$3,0*%
G04 Aperture macros list end*
%ADD10RoundRect,0.250000X-0.450000X0.262500X-0.450000X-0.262500X0.450000X-0.262500X0.450000X0.262500X0*%
%ADD11RoundRect,0.250000X-0.475000X0.250000X-0.475000X-0.250000X0.475000X-0.250000X0.475000X0.250000X0*%
%ADD12RoundRect,0.375000X-0.625000X-0.375000X0.625000X-0.375000X0.625000X0.375000X-0.625000X0.375000X0*%
%ADD13RoundRect,0.500000X-0.500000X-1.400000X0.500000X-1.400000X0.500000X1.400000X-0.500000X1.400000X0*%
%ADD14RoundRect,0.250000X0.262500X0.450000X-0.262500X0.450000X-0.262500X-0.450000X0.262500X-0.450000X0*%
%ADD15RoundRect,0.250000X-0.250000X-0.475000X0.250000X-0.475000X0.250000X0.475000X-0.250000X0.475000X0*%
%ADD16RoundRect,0.250000X0.475000X-0.250000X0.475000X0.250000X-0.475000X0.250000X-0.475000X-0.250000X0*%
%ADD17RoundRect,0.150000X-0.587500X-0.150000X0.587500X-0.150000X0.587500X0.150000X-0.587500X0.150000X0*%
%ADD18RoundRect,0.243750X-0.243750X-0.456250X0.243750X-0.456250X0.243750X0.456250X-0.243750X0.456250X0*%
%ADD19RoundRect,0.218750X-0.381250X0.218750X-0.381250X-0.218750X0.381250X-0.218750X0.381250X0.218750X0*%
%ADD20RoundRect,0.250000X0.250000X0.475000X-0.250000X0.475000X-0.250000X-0.475000X0.250000X-0.475000X0*%
G04 APERTURE END LIST*
D10*
%TO.C,R2*%
X111850000Y-89367500D03*
X111850000Y-91192500D03*
%TD*%
D11*
%TO.C,C4*%
X91250000Y-72980000D03*
X91250000Y-74880000D03*
%TD*%
D12*
%TO.C,U3*%
X113550000Y-47625000D03*
X113550000Y-49925000D03*
D13*
X119850000Y-49925000D03*
D12*
X113550000Y-52225000D03*
%TD*%
D14*
%TO.C,R3*%
X90650000Y-88080000D03*
X88825000Y-88080000D03*
%TD*%
D15*
%TO.C,C10*%
X110550000Y-42000000D03*
X112450000Y-42000000D03*
%TD*%
D16*
%TO.C,C8*%
X88450000Y-78730000D03*
X88450000Y-76830000D03*
%TD*%
D17*
%TO.C,Q1*%
X108162500Y-47000000D03*
X108162500Y-48900000D03*
X110037500Y-47950000D03*
%TD*%
D18*
%TO.C,D2*%
X83275000Y-88080000D03*
X85150000Y-88080000D03*
%TD*%
%TO.C,D3*%
X83275000Y-91480000D03*
X85150000Y-91480000D03*
%TD*%
D19*
%TO.C,FB1*%
X107500000Y-39875000D03*
X107500000Y-42000000D03*
%TD*%
D11*
%TO.C,C2*%
X111820000Y-97930000D03*
X111820000Y-99830000D03*
%TD*%
D14*
%TO.C,R4*%
X90650000Y-91480000D03*
X88825000Y-91480000D03*
%TD*%
D11*
%TO.C,C3*%
X108250000Y-97930000D03*
X108250000Y-99830000D03*
%TD*%
D10*
%TO.C,R5*%
X94950000Y-95875000D03*
X94950000Y-97700000D03*
%TD*%
D15*
%TO.C,C9*%
X110550000Y-37990000D03*
X112450000Y-37990000D03*
%TD*%
D16*
%TO.C,C1*%
X106350000Y-74880000D03*
X106350000Y-72980000D03*
%TD*%
%TO.C,C6*%
X91550000Y-80330000D03*
X91550000Y-78430000D03*
%TD*%
D20*
%TO.C,C7*%
X108100000Y-54600000D03*
X106200000Y-54600000D03*
%TD*%
D15*
%TO.C,C5*%
X105300000Y-77830000D03*
X107200000Y-77830000D03*
%TD*%
D10*
%TO.C,R1*%
X111850000Y-93367500D03*
X111850000Y-95192500D03*
%TD*%
D11*
%TO.C,D1*%
X108250000Y-89355000D03*
X108250000Y-91255000D03*
%TD*%
D15*
%TO.C,C11*%
X88750000Y-96950000D03*
X90650000Y-96950000D03*
%TD*%
M02*
